  0
SECTION
  2
HEADER
  9
$ACADVER
  1
AC1015
  9
$ACADMAINTVER
 70
     6
  9
$DWGCODEPAGE
  3
ANSI_1252
  9
$INSBASE
 10
0.0
 20
0.0
 30
0.0
  9
$EXTMIN
 10
0.0
 20
0.0
 30
0.0
  9
$EXTMAX
 10
11.0
 20
8.5
 30
0.0
  9
$LIMMIN
 10
0.0
 20
0.0
  9
$LIMMAX
 10
11.0
 20
8.5
  9
$ORTHOMODE
 70
     0
  9
$REGENMODE
 70
     1
  9
$FILLMODE
 70
     1
  9
$QTEXTMODE
 70
     0
  9
$MIRRTEXT
 70
     1
  9
$LTSCALE
 40
1.0
  9
$ATTMODE
 70
     1
  9
$TEXTSIZE
 40
0.1377952756
  9
$TRACEWID
 40
0.05
  9
$TEXTSTYLE
  7
Standard
  9
$CLAYER
  8
0
  9
$CELTYPE
  6
ByLayer
  9
$CECOLOR
 62
   256
  9
$CELTSCALE
 40
1.0
  9
$DISPSILH
 70
     0
  9
$DIMSCALE
 40
1.0
  9
$DIMASZ
 40
0.14
  9
$DIMEXO
 40
0.0393700787
  9
$DIMDLI
 40
0.38
  9
$DIMRND
 40
0.0
  9
$DIMDLE
 40
0.0
  9
$DIMEXE
 40
0.0393700787
  9
$DIMTP
 40
0.0
  9
$DIMTM
 40
0.0
  9
$DIMTXT
 40
0.1377952756
  9
$DIMCEN
 40
0.09
  9
$DIMTSZ
 40
0.0
  9
$DIMTOL
 70
     0
  9
$DIMLIM
 70
     0
  9
$DIMTIH
 70
     1
  9
$DIMTOH
 70
     1
  9
$DIMSE1
 70
     0
  9
$DIMSE2
 70
     0
  9
$DIMTAD
 70
     1
  9
$DIMZIN
 70
     1
  9
$DIMBLK
  1

  9
$DIMASO
 70
     1
  9
$DIMSHO
 70
     1
  9
$DIMPOST
  1

  9
$DIMAPOST
  1

  9
$DIMALT
 70
     0
  9
$DIMALTD
 70
     2
  9
$DIMALTF
 40
25.4
  9
$DIMLFAC
 40
10.0
  9
$DIMTOFL
 70
     0
  9
$DIMTVP
 40
0.0
  9
$DIMTIX
 70
     0
  9
$DIMSOXD
 70
     0
  9
$DIMSAH
 70
     0
  9
$DIMBLK1
  1

  9
$DIMBLK2
  1

  9
$DIMSTYLE
  2
Standard
  9
$DIMCLRD
 70
     0
  9
$DIMCLRE
 70
     0
  9
$DIMCLRT
 70
     0
  9
$DIMTFAC
 40
1.0
  9
$DIMGAP
 40
0.06
  9
$DIMJUST
 70
     0
  9
$DIMSD1
 70
     0
  9
$DIMSD2
 70
     0
  9
$DIMTOLJ
 70
     1
  9
$DIMTZIN
 70
     1
  9
$DIMALTZ
 70
     0
  9
$DIMALTTZ
 70
     0
  9
$DIMUPT
 70
     0
  9
$DIMDEC
 70
     3
  9
$DIMTDEC
 70
     3
  9
$DIMALTU
 70
     2
  9
$DIMALTTD
 70
     2
  9
$DIMTXSTY
  7
Standard
  9
$DIMAUNIT
 70
     0
  9
$DIMADEC
 70
     3
  9
$DIMALTRND
 40
0.0
  9
$DIMAZIN
 70
     0
  9
$DIMDSEP
 70
    46
  9
$DIMATFIT
 70
     3
  9
$DIMFRAC
 70
     0
  9
$DIMLDRBLK
  1

  9
$DIMLUNIT
 70
     2
  9
$DIMLWD
 70
    -2
  9
$DIMLWE
 70
    -2
  9
$DIMTMOVE
 70
     0
  9
$LUNITS
 70
     2
  9
$LUPREC
 70
     3
  9
$SKETCHINC
 40
0.1
  9
$FILLETRAD
 40
0.5
  9
$AUNITS
 70
     0
  9
$AUPREC
 70
     3
  9
$MENU
  1
.
  9
$ELEVATION
 40
0.0
  9
$PELEVATION
 40
0.0
  9
$THICKNESS
 40
0.0
  9
$LIMCHECK
 70
     0
  9
$CHAMFERA
 40
0.0
  9
$CHAMFERB
 40
0.0
  9
$CHAMFERC
 40
0.0
  9
$CHAMFERD
 40
0.0
  9
$SKPOLY
 70
     0
  9
$TDCREATE
 40
2458661.744806944
  9
$TDUCREATE
 40
2458662.036473611
  9
$TDUPDATE
 40
2458661.744811099
  9
$TDUUPDATE
 40
2458662.036477766
  9
$TDINDWG
 40
0.0000000116
  9
$TDUSRTIMER
 40
0.0000000116
  9
$USRTIMER
 70
     1
  9
$ANGBASE
 50
0.0
  9
$ANGDIR
 70
     0
  9
$PDMODE
 70
     0
  9
$PDSIZE
 40
-1.0
  9
$PLINEWID
 40
0.0
  9
$SPLFRAME
 70
     0
  9
$SPLINETYPE
 70
     6
  9
$SPLINESEGS
 70
     8
  9
$HANDSEED
  5
2EC
  9
$SURFTAB1
 70
     6
  9
$SURFTAB2
 70
     6
  9
$SURFTYPE
 70
     6
  9
$SURFU
 70
     6
  9
$SURFV
 70
     6
  9
$UCSBASE
  2

  9
$UCSNAME
  2

  9
$UCSORG
 10
0.0
 20
0.0
 30
0.0
  9
$UCSXDIR
 10
1.0
 20
0.0
 30
0.0
  9
$UCSYDIR
 10
0.0
 20
1.0
 30
0.0
  9
$UCSORTHOREF
  2

  9
$UCSORTHOVIEW
 70
     0
  9
$UCSORGTOP
 10
0.0
 20
0.0
 30
0.0
  9
$UCSORGBOTTOM
 10
0.0
 20
0.0
 30
0.0
  9
$UCSORGLEFT
 10
0.0
 20
0.0
 30
0.0
  9
$UCSORGRIGHT
 10
0.0
 20
0.0
 30
0.0
  9
$UCSORGFRONT
 10
0.0
 20
0.0
 30
0.0
  9
$UCSORGBACK
 10
0.0
 20
0.0
 30
0.0
  9
$PUCSBASE
  2

  9
$PUCSNAME
  2

  9
$PUCSORG
 10
0.0
 20
0.0
 30
0.0
  9
$PUCSXDIR
 10
1.0
 20
0.0
 30
0.0
  9
$PUCSYDIR
 10
0.0
 20
1.0
 30
0.0
  9
$PUCSORTHOREF
  2

  9
$PUCSORTHOVIEW
 70
     0
  9
$PUCSORGTOP
 10
0.0
 20
0.0
 30
0.0
  9
$PUCSORGBOTTOM
 10
0.0
 20
0.0
 30
0.0
  9
$PUCSORGLEFT
 10
0.0
 20
0.0
 30
0.0
  9
$PUCSORGRIGHT
 10
0.0
 20
0.0
 30
0.0
  9
$PUCSORGFRONT
 10
0.0
 20
0.0
 30
0.0
  9
$PUCSORGBACK
 10
0.0
 20
0.0
 30
0.0
  9
$USERI1
 70
     0
  9
$USERI2
 70
     0
  9
$USERI3
 70
     0
  9
$USERI4
 70
     0
  9
$USERI5
 70
     0
  9
$USERR1
 40
0.0
  9
$USERR2
 40
0.0
  9
$USERR3
 40
0.0
  9
$USERR4
 40
0.0
  9
$USERR5
 40
0.0
  9
$WORLDVIEW
 70
     1
  9
$SHADEDGE
 70
     3
  9
$SHADEDIF
 70
    70
  9
$TILEMODE
 70
     1
  9
$MAXACTVP
 70
    64
  9
$PINSBASE
 10
0.0
 20
0.0
 30
0.0
  9
$PLIMCHECK
 70
     0
  9
$PEXTMIN
 10
1.0000000000E+20
 20
1.0000000000E+20
 30
1.0000000000E+20
  9
$PEXTMAX
 10
-1.0000000000E+20
 20
-1.0000000000E+20
 30
-1.0000000000E+20
  9
$PLIMMIN
 10
0.0
 20
0.0
  9
$PLIMMAX
 10
12.0
 20
9.0
  9
$UNITMODE
 70
     0
  9
$VISRETAIN
 70
     1
  9
$PLINEGEN
 70
     0
  9
$PSLTSCALE
 70
     1
  9
$TREEDEPTH
 70
  3020
  9
$CMLSTYLE
  2
Standard
  9
$CMLJUST
 70
     0
  9
$CMLSCALE
 40
1.0
  9
$PROXYGRAPHICS
 70
     1
  9
$MEASUREMENT
 70
     0
  9
$CELWEIGHT
370
    -1
  9
$ENDCAPS
280
     0
  9
$JOINSTYLE
280
     0
  9
$LWDISPLAY
290
     1
  9
$INSUNITS
 70
     1
  9
$HYPERLINKBASE
  1

  9
$STYLESHEET
  1

  9
$XEDIT
290
     1
  9
$CEPSNTYPE
380
     0
  9
$PSTYLEMODE
290
     1
  9
$FINGERPRINTGUID
  2
{55A649B9-62E7-46FD-9D11-D87AC24D8A27}
  9
$VERSIONGUID
  2
{FAEB1C32-E019-11D5-929B-00C0DF256EC4}
  9
$EXTNAMES
290
     1
  9
$PSVPSCALE
 40
0.0
  9
$OLESTARTUP
290
     0
  0
ENDSEC
  0
SECTION
  2
CLASSES
  0
CLASS
  1
ACDBDICTIONARYWDFLT
  2
AcDbDictionaryWithDefault
  3
ObjectDBX Classes
 90
        0
280
     0
281
     0
  0
CLASS
  1
VISUALSTYLE
  2
AcDbVisualStyle
  3
ObjectDBX Classes
 90
     4095
280
     0
281
     0
  0
CLASS
  1
MATERIAL
  2
AcDbMaterial
  3
ObjectDBX Classes
 90
     1153
280
     0
281
     0
  0
CLASS
  1
SCALE
  2
AcDbScale
  3
ObjectDBX Classes
 90
     1153
280
     0
281
     0
  0
CLASS
  1
TABLESTYLE
  2
AcDbTableStyle
  3
ObjectDBX Classes
 90
     4095
280
     0
281
     0
  0
CLASS
  1
MLEADERSTYLE
  2
AcDbMLeaderStyle
  3
ACDB_MLEADERSTYLE_CLASS
 90
     4095
280
     0
281
     0
  0
CLASS
  1
SUN
  2
AcDbSun
  3
SCENEOE
 90
     1153
280
     0
281
     0
  0
CLASS
  1
ACDBPLACEHOLDER
  2
AcDbPlaceHolder
  3
ObjectDBX Classes
 90
        0
280
     0
281
     0
  0
CLASS
  1
LAYOUT
  2
AcDbLayout
  3
ObjectDBX Classes
 90
        0
280
     0
281
     0
  0
ENDSEC
  0
SECTION
  2
TABLES
  0
TABLE
  2
VPORT
  5
8
330
0
100
AcDbSymbolTable
 70
     1
  0
VPORT
  5
29
330
8
100
AcDbSymbolTableRecord
100
AcDbViewportTableRecord
  2
*Active
 70
     0
 10
0.0
 20
0.0
 11
1.0
 21
1.0
 12
5.5
 22
4.25
 13
0.0
 23
0.0
 14
0.5
 24
0.5
 15
0.5
 25
0.5
 16
0.0
 26
0.0
 36
1.0
 17
0.0
 27
0.0
 37
0.0
 40
8.5
 41
1.2941176471
 42
50.0
 43
0.0
 44
0.0
 50
0.0
 51
0.0
 71
     0
 72
  2000
 73
     1
 74
     3
 75
     0
 76
     0
 77
     0
 78
     0
281
     0
 65
     1
110
0.0
120
0.0
130
0.0
111
1.0
121
0.0
131
0.0
112
0.0
122
1.0
132
0.0
 79
     0
146
0.0
  0
ENDTAB
  0
TABLE
  2
LTYPE
  5
5
330
0
100
AcDbSymbolTable
 70
     6
  0
LTYPE
  5
14
330
5
100
AcDbSymbolTableRecord
100
AcDbLinetypeTableRecord
  2
ByBlock
 70
     0
  3

 72
    65
 73
     0
 40
0.0
  0
LTYPE
  5
15
330
5
100
AcDbSymbolTableRecord
100
AcDbLinetypeTableRecord
  2
ByLayer
 70
     0
  3

 72
    65
 73
     0
 40
0.0
  0
LTYPE
  5
16
330
5
100
AcDbSymbolTableRecord
100
AcDbLinetypeTableRecord
  2
Continuous
 70
     0
  3
Solid line
 72
    65
 73
     0
 40
0.0
  0
LTYPE
  5
6E
330
5
100
AcDbSymbolTableRecord
100
AcDbLinetypeTableRecord
  2
HIDDEN
 70
     0
  3
Hidden __ __ __ __ __ __ __ __ __ __ __ __ __ __
 72
    65
 73
     2
 40
0.075
 49
0.05
 74
     0
 49
-0.025
 74
     0
  0
LTYPE
  5
6F
330
5
100
AcDbSymbolTableRecord
100
AcDbLinetypeTableRecord
  2
PHANTOM
 70
     0
  3
Phantom ______  __  __  ______  __  __  ______
 72
    65
 73
     6
 40
0.5
 49
0.25
 74
     0
 49
-0.05
 74
     0
 49
0.05
 74
     0
 49
-0.05
 74
     0
 49
0.05
 74
     0
 49
-0.05
 74
     0
  0
LTYPE
  5
70
330
5
100
AcDbSymbolTableRecord
100
AcDbLinetypeTableRecord
  2
CENTER
 70
     0
  3
Center ____ _ ____ _ ____ _ ____ _ ____ _ ____
 72
    65
 73
     4
 40
0.4
 49
0.25
 74
     0
 49
-0.05
 74
     0
 49
0.05
 74
     0
 49
-0.05
 74
     0
  0
LTYPE
  5
71
330
5
100
AcDbSymbolTableRecord
100
AcDbLinetypeTableRecord
  2
CENTERX2
 70
     0
  3
Center (2x) ________  __  ________  __  _____
 72
    65
 73
     4
 40
0.8
 49
0.5
 74
     0
 49
-0.1
 74
     0
 49
0.1
 74
     0
 49
-0.1
 74
     0
  0
LTYPE
  5
72
330
5
100
AcDbSymbolTableRecord
100
AcDbLinetypeTableRecord
  2
DOT2
 70
     0
  3
Dot (.5x) ........................................
 72
    65
 73
     2
 40
0.025
 49
0.0
 74
     0
 49
-0.025
 74
     0
  0
ENDTAB
  0
TABLE
  2
LAYER
  5
2
330
0
100
AcDbSymbolTable
 70
     2
  0
LAYER
  5
10
330
2
100
AcDbSymbolTableRecord
100
AcDbLayerTableRecord
  2
0
 70
     0
 62
     7
  6
Continuous
370
    -3
390
F
  0
LAYER
  5
73
330
2
100
AcDbSymbolTableRecord
100
AcDbLayerTableRecord
  2
FORMAT
 70
     0
 62
     7
  6
Continuous
370
    -3
390
F
  0
ENDTAB
  0
TABLE
  2
STYLE
  5
3
330
0
100
AcDbSymbolTable
 70
     4
  0
STYLE
  5
11
330
3
100
AcDbSymbolTableRecord
100
AcDbTextStyleTableRecord
  2
Standard
 70
     0
 40
0.0
 41
1.0
 50
0.0
 71
     0
 42
0.1377952756
  3
txt
  4

  0
STYLE
  5
A2
330
3
100
AcDbSymbolTableRecord
100
AcDbTextStyleTableRecord
  2
SLDTEXTSTYLE0
 70
     0
 40
0.0
 41
0.75
 50
0.0
 71
     0
 42
0.1377952756
  3
TXT
  4

  0
STYLE
  5
B1
330
3
100
AcDbSymbolTableRecord
100
AcDbTextStyleTableRecord
  2
SLDTEXTSTYLE1
 70
     0
 40
0.0
 41
0.6875
 50
0.0
 71
     0
 42
0.1377952756
  3
TXT
  4

  0
STYLE
  5
B8
330
3
100
AcDbSymbolTableRecord
100
AcDbTextStyleTableRecord
  2
SLDTEXTSTYLE2
 70
     0
 40
0.0
 41
0.6944444444
 50
0.0
 71
     0
 42
0.1377952756
  3
TXT
  4

  0
ENDTAB
  0
TABLE
  2
VIEW
  5
6
330
0
100
AcDbSymbolTable
 70
     0
  0
ENDTAB
  0
TABLE
  2
UCS
  5
7
330
0
100
AcDbSymbolTable
 70
     0
  0
ENDTAB
  0
TABLE
  2
APPID
  5
9
330
0
100
AcDbSymbolTable
 70
     1
  0
APPID
  5
12
330
9
100
AcDbSymbolTableRecord
100
AcDbRegAppTableRecord
  2
ACAD
 70
     0
  0
ENDTAB
  0
TABLE
  2
DIMSTYLE
  5
A
330
0
100
AcDbSymbolTable
 70
     6
100
AcDbDimStyleTable
  0
DIMSTYLE
105
27
330
A
100
AcDbSymbolTableRecord
100
AcDbDimStyleTableRecord
  2
Standard
 70
     0
178
     0
340
11
  0
DIMSTYLE
105
139
102
{ACAD_REACTORS
330
138
330
156
102
}
330
A
100
AcDbSymbolTableRecord
100
AcDbDimStyleTableRecord
  2
SLDDIMSTYLE0
 70
     0
 41
0.14
 44
0.0
 45
0.000000001
 78
     8
 79
     2
140
0.1377952756
141
0.0
144
10.0
147
0.0344488189
172
     1
173
     1
178
     0
271
     3
272
     3
276
     2
284
    12
340
A2
341
13A
343
13A
344
13D
  0
DIMSTYLE
105
165
102
{ACAD_REACTORS
330
164
330
16F
330
2D6
102
}
330
A
100
AcDbSymbolTableRecord
100
AcDbDimStyleTableRecord
  2
SLDDIMSTYLE1
 70
     0
 41
0.14
 44
0.0
 45
0.000000001
 73
     0
 74
     0
 77
     1
 78
     4
 79
     1
140
0.1377952756
144
10.0
147
0.0344488189
173
     1
178
     0
271
     3
272
     3
276
     2
284
    12
340
A2
341
13D
343
13D
344
13D
  0
DIMSTYLE
105
17A
102
{ACAD_REACTORS
330
179
330
186
330
1AB
330
1C3
330
2E0
102
}
330
A
100
AcDbSymbolTableRecord
100
AcDbDimStyleTableRecord
  2
SLDDIMSTYLE2
 70
     0
 41
0.14
 44
0.0
 45
0.000000001
 73
     0
 74
     0
 77
     1
 78
     4
 79
     1
140
0.1377952756
144
10.0
147
0.0344488189
172
     1
173
     1
178
     0
271
     3
272
     3
276
     2
284
    12
289
     0
340
A2
341
13D
343
13D
344
13D
  0
DIMSTYLE
105
193
102
{ACAD_REACTORS
330
192
330
19F
330
1B7
102
}
330
A
100
AcDbSymbolTableRecord
100
AcDbDimStyleTableRecord
  2
SLDDIMSTYLE3
 70
     0
 41
0.14
 44
0.0
 45
0.000000001
 73
     0
 74
     0
 77
     1
140
0.1377952756
144
10.0
147
0.0344488189
172
     1
173
     1
178
     0
271
     3
272
     3
276
     2
284
    12
289
     0
340
A2
341
13D
343
13D
344
13D
  0
DIMSTYLE
105
1D0
102
{ACAD_REACTORS
330
1CF
102
}
330
A
100
AcDbSymbolTableRecord
100
AcDbDimStyleTableRecord
  2
SLDDIMSTYLE4
 70
     0
 41
0.14
 44
0.0
 45
0.000000001
 73
     0
 74
     0
 77
     1
 78
    12
 79
     3
140
0.1377952756
144
10.0
147
0.0344488189
172
     1
173
     1
178
     0
271
     3
272
     3
276
     2
284
    12
289
     0
340
A2
341
13D
343
13D
344
13D
  0
ENDTAB
  0
TABLE
  2
BLOCK_RECORD
  5
1
330
0
100
AcDbSymbolTable
 70
    23
  0
BLOCK_RECORD
  5
1F
330
1
100
AcDbSymbolTableRecord
100
AcDbBlockTableRecord
  2
*Model_Space
340
22
  0
BLOCK_RECORD
  5
1B
330
1
100
AcDbSymbolTableRecord
100
AcDbBlockTableRecord
  2
*Paper_Space
340
1E
  0
BLOCK_RECORD
  5
23
330
1
100
AcDbSymbolTableRecord
100
AcDbBlockTableRecord
  2
*Paper_Space0
340
26
  0
BLOCK_RECORD
  5
C7
330
1
100
AcDbSymbolTableRecord
100
AcDbBlockTableRecord
  2
SW_NOTE_0
340
0
102
{BLKREFS
331
CC
102
}
  0
BLOCK_RECORD
  5
CD
330
1
100
AcDbSymbolTableRecord
100
AcDbBlockTableRecord
  2
SW_NOTE_1
340
0
102
{BLKREFS
331
DC
102
}
  0
BLOCK_RECORD
  5
E1
330
1
100
AcDbSymbolTableRecord
100
AcDbBlockTableRecord
  2
SW_NOTE_2
340
0
102
{BLKREFS
331
EB
102
}
  0
BLOCK_RECORD
  5
13A
330
1
100
AcDbSymbolTableRecord
100
AcDbBlockTableRecord
  2
_NONE
340
0
  0
BLOCK_RECORD
  5
13D
330
1
100
AcDbSymbolTableRecord
100
AcDbBlockTableRecord
  2
_CLOSED
340
0
102
{BLKREFS
331
147
331
15A
331
169
331
16A
331
173
331
174
331
17E
331
17F
331
18A
331
18B
331
197
331
198
331
1A3
331
1A4
331
1AF
331
1B0
331
1BB
331
1BC
331
1C7
331
1C8
331
1D4
331
1D5
331
2DA
331
2DB
331
2E4
331
2E5
102
}
  0
BLOCK_RECORD
  5
144
330
1
100
AcDbSymbolTableRecord
100
AcDbBlockTableRecord
  2
_D
340
0
  0
BLOCK_RECORD
  5
14E
330
1
100
AcDbSymbolTableRecord
100
AcDbBlockTableRecord
  2
SW_SYMBOL_HOLE_SINK
340
0
102
{BLKREFS
331
153
331
161
102
}
  0
BLOCK_RECORD
  5
157
330
1
100
AcDbSymbolTableRecord
100
AcDbBlockTableRecord
  2
_D_1
340
0
  0
BLOCK_RECORD
  5
166
330
1
100
AcDbSymbolTableRecord
100
AcDbBlockTableRecord
  2
_D_2
340
0
  0
BLOCK_RECORD
  5
170
330
1
100
AcDbSymbolTableRecord
100
AcDbBlockTableRecord
  2
_D_3
340
0
  0
BLOCK_RECORD
  5
17B
330
1
100
AcDbSymbolTableRecord
100
AcDbBlockTableRecord
  2
_D_4
340
0
  0
BLOCK_RECORD
  5
187
330
1
100
AcDbSymbolTableRecord
100
AcDbBlockTableRecord
  2
_D_5
340
0
  0
BLOCK_RECORD
  5
194
330
1
100
AcDbSymbolTableRecord
100
AcDbBlockTableRecord
  2
_D_6
340
0
  0
BLOCK_RECORD
  5
1A0
330
1
100
AcDbSymbolTableRecord
100
AcDbBlockTableRecord
  2
_D_7
340
0
  0
BLOCK_RECORD
  5
1AC
330
1
100
AcDbSymbolTableRecord
100
AcDbBlockTableRecord
  2
_D_8
340
0
  0
BLOCK_RECORD
  5
1B8
330
1
100
AcDbSymbolTableRecord
100
AcDbBlockTableRecord
  2
_D_9
340
0
  0
BLOCK_RECORD
  5
1C4
330
1
100
AcDbSymbolTableRecord
100
AcDbBlockTableRecord
  2
_D_10
340
0
  0
BLOCK_RECORD
  5
1D1
330
1
100
AcDbSymbolTableRecord
100
AcDbBlockTableRecord
  2
_D_11
340
0
  0
BLOCK_RECORD
  5
1DC
330
1
100
AcDbSymbolTableRecord
100
AcDbBlockTableRecord
  2
SW_CENTERMARKSYMBOL_0
340
0
102
{BLKREFS
331
22F
102
}
  0
BLOCK_RECORD
  5
230
330
1
100
AcDbSymbolTableRecord
100
AcDbBlockTableRecord
  2
SW_CENTERMARKSYMBOL_1
340
0
102
{BLKREFS
331
2D1
102
}
  0
BLOCK_RECORD
  5
2D7
330
1
100
AcDbSymbolTableRecord
100
AcDbBlockTableRecord
  2
_D_12
340
0
  0
BLOCK_RECORD
  5
2E1
330
1
100
AcDbSymbolTableRecord
100
AcDbBlockTableRecord
  2
_D_13
340
0
  0
ENDTAB
  0
ENDSEC
  0
SECTION
  2
BLOCKS
  0
BLOCK
  5
20
330
1F
100
AcDbEntity
  8
0
100
AcDbBlockBegin
  2
*Model_Space
 70
     0
 10
0.0
 20
0.0
 30
0.0
  3
*Model_Space
  1

  0
ENDBLK
  5
21
330
1F
100
AcDbEntity
  8
0
100
AcDbBlockEnd
  0
BLOCK
  5
1C
330
1B
100
AcDbEntity
 67
     1
  8
0
100
AcDbBlockBegin
  2
*Paper_Space
 70
     0
 10
0.0
 20
0.0
 30
0.0
  3
*Paper_Space
  1

  0
ENDBLK
  5
1D
330
1B
100
AcDbEntity
 67
     1
  8
0
100
AcDbBlockEnd
  0
BLOCK
  5
24
330
23
100
AcDbEntity
  8
0
100
AcDbBlockBegin
  2
*Paper_Space0
 70
     0
 10
0.0
 20
0.0
 30
0.0
  3
*Paper_Space0
  1

  0
ENDBLK
  5
25
330
23
100
AcDbEntity
  8
0
100
AcDbBlockEnd
  0
BLOCK
  5
C8
330
C7
100
AcDbEntity
  8
0
100
AcDbBlockBegin
  2
SW_NOTE_0
 70
     0
 10
0.0
 20
0.0
 30
0.0
  3
SW_NOTE_0
  1

  0
MTEXT
  5
CA
330
C7
100
AcDbEntity
  8
0
  6
Continuous
 62
     0
370
     0
100
AcDbMText
 10
0.0
 20
0.0773440644
 30
0.0
 40
0.06
 41
0.0
 71
     1
 72
     1
  1
INTERPRET GEOMETRIC
  7
SLDTEXTSTYLE0
 73
     1
 44
1.0
  0
MTEXT
  5
CB
330
C7
100
AcDbEntity
  8
0
  6
Continuous
 62
     0
370
     0
100
AcDbMText
 10
0.0
 20
-0.0220260102
 30
0.0
 40
0.06
 41
0.0
 71
     1
 72
     1
  1
TOLERANCING PER:
  7
SLDTEXTSTYLE0
 73
     1
 44
1.0
  0
ENDBLK
  5
C9
330
C7
100
AcDbEntity
  8
0
100
AcDbBlockEnd
  0
BLOCK
  5
CE
330
CD
100
AcDbEntity
  8
0
100
AcDbBlockBegin
  2
SW_NOTE_1
 70
     0
 10
0.0
 20
0.0
 30
0.0
  3
SW_NOTE_1
  1

  0
MTEXT
  5
D0
330
CD
100
AcDbEntity
  8
0
  6
Continuous
 62
     0
370
     0
100
AcDbMText
 10
0.0
 20
0.0837894031
 30
0.0
 40
0.065
 41
0.0
 71
     1
 72
     1
  1
DIMENSIONS ARE IN INCHES
  7
SLDTEXTSTYLE0
 73
     1
 44
1.0
  0
MTEXT
  5
D1
330
CD
100
AcDbEntity
  8
0
  6
Continuous
 62
     0
370
     0
100
AcDbMText
 10
0.0
 20
-0.0205806729
 30
0.0
 40
0.065
 41
0.0
 71
     1
 72
     1
  1
TOLERANCES:
  7
SLDTEXTSTYLE0
 73
     1
 44
1.0
  0
MTEXT
  5
D2
330
CD
100
AcDbEntity
  8
0
  6
Continuous
 62
     0
370
     0
100
AcDbMText
 10
0.0
 20
-0.1249507489
 30
0.0
 40
0.065
 41
0.0
 71
     1
 72
     1
  1
FRACTIONAL
  7
SLDTEXTSTYLE0
 73
     1
 44
1.0
  0
MTEXT
  5
D3
330
CD
100
AcDbEntity
  8
0
  6
Continuous
 62
     0
370
     0
100
AcDbMText
 10
0.5175850508
 20
-0.1249507489
 30
0.0
 40
0.065
 41
0.0
 71
     1
 72
     1
  1
%%p
  7
SLDTEXTSTYLE0
 73
     1
 44
1.0
  0
MTEXT
  5
D4
330
CD
100
AcDbEntity
  8
0
  6
Continuous
 62
     0
370
     0
100
AcDbMText
 10
0.0
 20
-0.2293208248
 30
0.0
 40
0.065
 41
0.0
 71
     1
 72
     1
  1
ANGULAR: MACH
  7
SLDTEXTSTYLE0
 73
     1
 44
1.0
  0
MTEXT
  5
D5
330
CD
100
AcDbEntity
  8
0
  6
Continuous
 62
     0
370
     0
100
AcDbMText
 10
0.7233732769
 20
-0.2293208248
 30
0.0
 40
0.065
 41
0.0
 71
     1
 72
     1
  1
%%p
  7
SLDTEXTSTYLE0
 73
     1
 44
1.0
  0
MTEXT
  5
D6
330
CD
100
AcDbEntity
  8
0
  6
Continuous
 62
     0
370
     0
100
AcDbMText
 10
0.9071607683
 20
-0.2293208248
 30
0.0
 40
0.065
 41
0.0
 71
     1
 72
     1
  1
BEND
  7
SLDTEXTSTYLE0
 73
     1
 44
1.0
  0
MTEXT
  5
D7
330
CD
100
AcDbEntity
  8
0
  6
Continuous
 62
     0
370
     0
100
AcDbMText
 10
1.1478412867
 20
-0.2293208248
 30
0.0
 40
0.065
 41
0.0
 71
     1
 72
     1
  1
%%p
  7
SLDTEXTSTYLE0
 73
     1
 44
1.0
  0
MTEXT
  5
D8
330
CD
100
AcDbEntity
  8
0
  6
Continuous
 62
     0
370
     0
100
AcDbMText
 10
0.0
 20
-0.3336909008
 30
0.0
 40
0.065
 41
0.0
 71
     1
 72
     1
  1
TWO PLACE DECIMAL
  7
SLDTEXTSTYLE0
 73
     1
 44
1.0
  0
MTEXT
  5
D9
330
CD
100
AcDbEntity
  8
0
  6
Continuous
 62
     0
370
     0
100
AcDbMText
 10
0.9794349188
 20
-0.3336909008
 30
0.0
 40
0.065
 41
0.0
 71
     1
 72
     1
  1
%%p
  7
SLDTEXTSTYLE0
 73
     1
 44
1.0
  0
MTEXT
  5
DA
330
CD
100
AcDbEntity
  8
0
  6
Continuous
 62
     0
370
     0
100
AcDbMText
 10
0.0
 20
-0.4380609768
 30
0.0
 40
0.065
 41
0.0
 71
     1
 72
     1
  1
THREE PLACE DECIMAL
  7
SLDTEXTSTYLE0
 73
     1
 44
1.0
  0
MTEXT
  5
DB
330
CD
100
AcDbEntity
  8
0
  6
Continuous
 62
     0
370
     0
100
AcDbMText
 10
0.9738037905
 20
-0.4380609768
 30
0.0
 40
0.065
 41
0.0
 71
     1
 72
     1
  1
%%p
  7
SLDTEXTSTYLE0
 73
     1
 44
1.0
  0
ENDBLK
  5
CF
330
CD
100
AcDbEntity
  8
0
100
AcDbBlockEnd
  0
BLOCK
  5
E2
330
E1
100
AcDbEntity
  8
0
100
AcDbBlockBegin
  2
SW_NOTE_2
 70
     0
 10
0.0
 20
0.0
 30
0.0
  3
SW_NOTE_2
  1

  0
MTEXT
  5
E4
330
E1
100
AcDbEntity
  8
0
  6
Continuous
 62
     0
370
     0
100
AcDbMText
 10
0.0
 20
0.0773440644
 30
0.0
 40
0.06
 41
0.0
 71
     1
 72
     1
  1
THE INFORMATION CONTAINED IN THIS
  7
SLDTEXTSTYLE0
 73
     1
 44
1.0
  0
MTEXT
  5
E5
330
E1
100
AcDbEntity
  8
0
  6
Continuous
 62
     0
370
     0
100
AcDbMText
 10
0.0
 20
-0.0220260102
 30
0.0
 40
0.06
 41
0.0
 71
     1
 72
     1
  1
DRAWING IS THE SOLE PROPERTY OF
  7
SLDTEXTSTYLE0
 73
     1
 44
1.0
  0
MTEXT
  5
E6
330
E1
100
AcDbEntity
  8
0
  6
Continuous
 62
     0
370
     0
100
AcDbMText
 10
0.0
 20
-0.1213960848
 30
0.0
 40
0.06
 41
0.0
 71
     1
 72
     1
  1
<INSERT COMPANY NAME HERE>.  ANY
  7
SLDTEXTSTYLE0
 73
     1
 44
1.0
  0
MTEXT
  5
E7
330
E1
100
AcDbEntity
  8
0
  6
Continuous
 62
     0
370
     0
100
AcDbMText
 10
0.0
 20
-0.2207661593
 30
0.0
 40
0.06
 41
0.0
 71
     1
 72
     1
  1
REPRODUCTION IN PART OR AS A WHOLE
  7
SLDTEXTSTYLE0
 73
     1
 44
1.0
  0
MTEXT
  5
E8
330
E1
100
AcDbEntity
  8
0
  6
Continuous
 62
     0
370
     0
100
AcDbMText
 10
0.0
 20
-0.3201362339
 30
0.0
 40
0.06
 41
0.0
 71
     1
 72
     1
  1
WITHOUT THE WRITTEN PERMISSION OF
  7
SLDTEXTSTYLE0
 73
     1
 44
1.0
  0
MTEXT
  5
E9
330
E1
100
AcDbEntity
  8
0
  6
Continuous
 62
     0
370
     0
100
AcDbMText
 10
0.0
 20
-0.4195063085
 30
0.0
 40
0.06
 41
0.0
 71
     1
 72
     1
  1
<INSERT COMPANY NAME HERE> IS
  7
SLDTEXTSTYLE0
 73
     1
 44
1.0
  0
MTEXT
  5
EA
330
E1
100
AcDbEntity
  8
0
  6
Continuous
 62
     0
370
     0
100
AcDbMText
 10
0.0
 20
-0.518876383
 30
0.0
 40
0.06
 41
0.0
 71
     1
 72
     1
  1
PROHIBITED.
  7
SLDTEXTSTYLE0
 73
     1
 44
1.0
  0
ENDBLK
  5
E3
330
E1
100
AcDbEntity
  8
0
100
AcDbBlockEnd
  0
BLOCK
  5
13B
330
13A
100
AcDbEntity
  8
0
100
AcDbBlockBegin
  2
_NONE
 70
     0
 10
0.0
 20
0.0
 30
0.0
  3
_NONE
  1

  0
ENDBLK
  5
13C
330
13A
100
AcDbEntity
  8
0
100
AcDbBlockEnd
  0
BLOCK
  5
13E
330
13D
100
AcDbEntity
  8
0
100
AcDbBlockBegin
  2
_CLOSED
 70
     0
 10
0.0
 20
0.0
 30
0.0
  3
_CLOSED
  1

  0
LINE
  5
140
330
13D
100
AcDbEntity
  8
0
  6
ByBlock
 62
     0
370
    -2
100
AcDbLine
 10
-1.0
 20
0.166667
 30
0.0
 11
0.0
 21
0.0
 31
0.0
  0
LINE
  5
141
330
13D
100
AcDbEntity
  8
0
  6
ByBlock
 62
     0
370
    -2
100
AcDbLine
 10
0.0
 20
0.0
 30
0.0
 11
-1.0
 21
-0.166667
 31
0.0
  0
LINE
  5
142
330
13D
100
AcDbEntity
  8
0
  6
ByBlock
 62
     0
370
    -2
100
AcDbLine
 10
-1.0
 20
0.166667
 30
0.0
 11
-1.0
 21
-0.166667
 31
0.0
  0
LINE
  5
143
330
13D
100
AcDbEntity
  8
0
  6
ByBlock
 62
     0
370
    -2
100
AcDbLine
 10
0.0
 20
0.0
 30
0.0
 11
-1.0
 21
0.0
 31
0.0
  0
ENDBLK
  5
13F
330
13D
100
AcDbEntity
  8
0
100
AcDbBlockEnd
  0
BLOCK
  5
145
330
144
100
AcDbEntity
  8
0
100
AcDbBlockBegin
  2
_D
 70
     0
 10
0.0
 20
0.0
 30
0.0
  3
_D
  1

  0
INSERT
  5
147
330
144
100
AcDbEntity
  8
0
  6
Continuous
 62
     7
370
    18
100
AcDbBlockReference
  2
_CLOSED
 10
5.4639034979
 20
6.9777625811
 30
0.0
 41
0.14
 42
0.14
 50
180.0
  0
LINE
  5
148
330
144
100
AcDbEntity
  8
0
  6
Continuous
 62
     7
370
    18
100
AcDbLine
 10
5.4639034979
 20
6.9777625811
 30
0.0
 11
6.3375080305
 21
6.9777625811
 31
0.0
  0
LINE
  5
149
330
144
100
AcDbEntity
  8
0
  6
Continuous
 62
     7
370
    18
100
AcDbLine
 10
5.4004034979
 20
6.9777625811
 30
0.0
 11
5.4639034979
 21
6.9777625811
 31
0.0
  0
LINE
  5
14A
330
144
100
AcDbEntity
  8
0
  6
Continuous
 62
     7
370
    18
100
AcDbLine
 10
6.3375080305
 20
6.9777625811
 30
0.0
 11
8.3536102489
 21
6.9777625811
 31
0.0
  0
MTEXT
  5
14B
330
144
100
AcDbEntity
  8
0
  6
Continuous
 62
     7
370
    18
100
AcDbMText
 10
6.4000080305
 20
7.3783504397
 30
0.0
 40
0.1377952756
 41
0.0
 71
     1
 72
     1
  1
24 x
  7
SLDTEXTSTYLE1
 73
     1
 44
1.0
  0
MTEXT
  5
14C
330
144
100
AcDbEntity
  8
0
  6
Continuous
 62
     7
370
    18
100
AcDbMText
 10
6.7936814927
 20
7.3762452359
 30
0.0
 40
0.1377952756
 41
0.0
 71
     1
 72
     1
  1
%%c
  7
SLDTEXTSTYLE0
 73
     1
 44
1.0
  0
MTEXT
  5
14D
330
144
100
AcDbEntity
  8
0
  6
Continuous
 62
     7
370
    18
100
AcDbMText
 10
7.0531672171
 20
7.3783504397
 30
0.0
 40
0.1377952756
 41
0.0
 71
     1
 72
     1
  1
0.332 THRU ALL
  7
SLDTEXTSTYLE0
 73
     1
 44
1.0
  0
INSERT
  5
153
330
144
100
AcDbEntity
  8
0
  6
Continuous
 62
     7
370
    18
100
AcDbBlockReference
  2
SW_SYMBOL_HOLE_SINK
 10
6.5869789572
 20
6.9968709103
 30
0.0
 41
0.0044707031
 42
0.0044707031
 43
0.0044707031
  0
MTEXT
  5
154
330
144
100
AcDbEntity
  8
0
  6
Continuous
 62
     7
370
    18
100
AcDbMText
 10
6.9588539713
 20
7.1553900256
 30
0.0
 40
0.1377952756
 41
0.0
 71
     1
 72
     1
  1
%%c
  7
SLDTEXTSTYLE0
 73
     1
 44
1.0
  0
MTEXT
  5
155
330
144
100
AcDbEntity
  8
0
  6
Continuous
 62
     7
370
    18
100
AcDbMText
 10
7.2183396956
 20
7.1574952294
 30
0.0
 40
0.1377952756
 41
0.0
 71
     1
 72
     1
  1
0.635 X 82°
  7
SLDTEXTSTYLE0
 73
     1
 44
1.0
  0
ENDBLK
  5
146
330
144
100
AcDbEntity
  8
0
100
AcDbBlockEnd
  0
BLOCK
  5
14F
330
14E
100
AcDbEntity
  8
0
100
AcDbBlockBegin
  2
SW_SYMBOL_HOLE_SINK
 70
     0
 10
0.0
 20
0.0
 30
0.0
  3
SW_SYMBOL_HOLE_SINK
  1

  0
LINE
  5
151
330
14E
100
AcDbEntity
  8
0
  6
Continuous
 62
     0
370
    18
100
AcDbLine
 10
0.0
 20
34.4488188976
 30
0.0
 11
31.4960629921
 21
2.9527559055
 31
0.0
  0
LINE
  5
152
330
14E
100
AcDbEntity
  8
0
  6
Continuous
 62
     0
370
    18
100
AcDbLine
 10
31.4960629921
 20
2.9527559055
 30
0.0
 11
62.9921259843
 21
34.4488188976
 31
0.0
  0
ENDBLK
  5
150
330
14E
100
AcDbEntity
  8
0
100
AcDbBlockEnd
  0
BLOCK
  5
158
330
157
100
AcDbEntity
  8
0
100
AcDbBlockBegin
  2
_D_1
 70
     0
 10
0.0
 20
0.0
 30
0.0
  3
_D_1
  1

  0
INSERT
  5
15A
330
157
100
AcDbEntity
  8
0
  6
Continuous
 62
     7
370
    18
100
AcDbBlockReference
  2
_CLOSED
 10
5.6591497561
 20
6.748551371
 30
0.0
 41
0.14
 42
0.14
 50
148.2416848832
  0
LINE
  5
15B
330
157
100
AcDbEntity
  8
0
  6
Continuous
 62
     7
370
    18
100
AcDbLine
 10
5.6591497561
 20
6.748551371
 30
0.0
 11
6.3375080305
 21
6.3286343745
 31
0.0
  0
LINE
  5
15C
330
157
100
AcDbEntity
  8
0
  6
Continuous
 62
     7
370
    18
100
AcDbLine
 10
5.6051572397
 20
6.7819737912
 30
0.0
 11
5.6591497561
 21
6.748551371
 31
0.0
  0
LINE
  5
15D
330
157
100
AcDbEntity
  8
0
  6
Continuous
 62
     7
370
    18
100
AcDbLine
 10
6.3375080305
 20
6.3286343745
 30
0.0
 11
8.3536102489
 21
6.3286343745
 31
0.0
  0
MTEXT
  5
15E
330
157
100
AcDbEntity
  8
0
  6
Continuous
 62
     7
370
    18
100
AcDbMText
 10
6.4000080305
 20
6.7292222331
 30
0.0
 40
0.1377952756
 41
0.0
 71
     1
 72
     1
  1
12 x
  7
SLDTEXTSTYLE1
 73
     1
 44
1.0
  0
MTEXT
  5
15F
330
157
100
AcDbEntity
  8
0
  6
Continuous
 62
     7
370
    18
100
AcDbMText
 10
6.7936814927
 20
6.7271170293
 30
0.0
 40
0.1377952756
 41
0.0
 71
     1
 72
     1
  1
%%c
  7
SLDTEXTSTYLE0
 73
     1
 44
1.0
  0
MTEXT
  5
160
330
157
100
AcDbEntity
  8
0
  6
Continuous
 62
     7
370
    18
100
AcDbMText
 10
7.0531672171
 20
6.7292222331
 30
0.0
 40
0.1377952756
 41
0.0
 71
     1
 72
     1
  1
0.332 THRU ALL
  7
SLDTEXTSTYLE0
 73
     1
 44
1.0
  0
INSERT
  5
161
330
157
100
AcDbEntity
  8
0
  6
Continuous
 62
     7
370
    18
100
AcDbBlockReference
  2
SW_SYMBOL_HOLE_SINK
 10
6.5869789572
 20
6.3477427038
 30
0.0
 41
0.0044707031
 42
0.0044707031
 43
0.0044707031
  0
MTEXT
  5
162
330
157
100
AcDbEntity
  8
0
  6
Continuous
 62
     7
370
    18
100
AcDbMText
 10
6.9588539713
 20
6.506261819
 30
0.0
 40
0.1377952756
 41
0.0
 71
     1
 72
     1
  1
%%c
  7
SLDTEXTSTYLE0
 73
     1
 44
1.0
  0
MTEXT
  5
163
330
157
100
AcDbEntity
  8
0
  6
Continuous
 62
     7
370
    18
100
AcDbMText
 10
7.2183396956
 20
6.5083670228
 30
0.0
 40
0.1377952756
 41
0.0
 71
     1
 72
     1
  1
0.635 X 82°
  7
SLDTEXTSTYLE0
 73
     1
 44
1.0
  0
ENDBLK
  5
159
330
157
100
AcDbEntity
  8
0
100
AcDbBlockEnd
  0
BLOCK
  5
167
330
166
100
AcDbEntity
  8
0
100
AcDbBlockBegin
  2
_D_2
 70
     0
 10
0.0
 20
0.0
 30
0.0
  3
_D_2
  1

  0
INSERT
  5
169
330
166
100
AcDbEntity
  8
0
  6
Continuous
 62
     7
370
    18
100
AcDbBlockReference
  2
_CLOSED
 10
1.147431227
 20
7.0527625811
 30
0.0
 41
0.14
 42
0.14
 50
90.0
  0
INSERT
  5
16A
330
166
100
AcDbEntity
  8
0
  6
Continuous
 62
     7
370
    18
100
AcDbBlockReference
  2
_CLOSED
 10
1.147431227
 20
4.9777625811
 30
0.0
 41
0.14
 42
0.14
 50
270.0
  0
LINE
  5
16B
330
166
100
AcDbEntity
  8
0
  6
Continuous
 62
     7
370
    18
100
AcDbLine
 10
1.8177834191
 20
7.0527625811
 30
0.0
 11
1.1080611482
 21
7.0527625811
 31
0.0
  0
LINE
  5
16C
330
166
100
AcDbEntity
  8
0
  6
Continuous
 62
     7
370
    18
100
AcDbLine
 10
1.8177834191
 20
4.9777625811
 30
0.0
 11
1.1080611482
 21
4.9777625811
 31
0.0
  0
LINE
  5
16D
330
166
100
AcDbEntity
  8
0
  6
Continuous
 62
     7
370
    18
100
AcDbLine
 10
1.147431227
 20
7.0527625811
 30
0.0
 11
1.147431227
 21
4.9777625811
 31
0.0
  0
MTEXT
  5
16E
330
166
100
AcDbEntity
  8
0
  6
Continuous
 62
     7
370
    18
100
AcDbMText
 10
0.9698037894
 20
5.8246713002
 30
0.0
 40
0.1377952756
 41
0.0
 71
     1
 72
     1
  1
20.750
  7
SLDTEXTSTYLE0
 11
-7.044195017643634E-15
 21
1.0
 31
0.0
 73
     1
 44
1.0
  0
ENDBLK
  5
168
330
166
100
AcDbEntity
  8
0
100
AcDbBlockEnd
  0
BLOCK
  5
171
330
170
100
AcDbEntity
  8
0
100
AcDbBlockBegin
  2
_D_3
 70
     0
 10
0.0
 20
0.0
 30
0.0
  3
_D_3
  1

  0
INSERT
  5
173
330
170
100
AcDbEntity
  8
0
  6
Continuous
 62
     7
370
    18
100
AcDbBlockReference
  2
_CLOSED
 10
5.7071534979
 20
7.1814409259
 30
0.0
 41
0.14
 42
0.14
 50
0.0
  0
INSERT
  5
174
330
170
100
AcDbEntity
  8
0
  6
Continuous
 62
     7
370
    18
100
AcDbBlockReference
  2
_CLOSED
 10
1.8571534979
 20
7.1814409259
 30
0.0
 41
0.14
 42
0.14
 50
180.0
  0
LINE
  5
175
330
170
100
AcDbEntity
  8
0
  6
Continuous
 62
     7
370
    18
100
AcDbLine
 10
5.7071534979
 20
7.0921326599
 30
0.0
 11
5.7071534979
 21
7.2208110047
 31
0.0
  0
LINE
  5
176
330
170
100
AcDbEntity
  8
0
  6
Continuous
 62
     7
370
    18
100
AcDbLine
 10
1.8571534979
 20
7.0921326599
 30
0.0
 11
1.8571534979
 21
7.2208110047
 31
0.0
  0
LINE
  5
177
330
170
100
AcDbEntity
  8
0
  6
Continuous
 62
     7
370
    18
100
AcDbLine
 10
5.7071534979
 20
7.1814409259
 30
0.0
 11
1.8571534979
 21
7.1814409259
 31
0.0
  0
MTEXT
  5
178
330
170
100
AcDbEntity
  8
0
  6
Continuous
 62
     7
370
    18
100
AcDbMText
 10
3.6376708956
 20
7.3590683635
 30
0.0
 40
0.1377952756
 41
0.0
 71
     1
 72
     1
  1
38.500
  7
SLDTEXTSTYLE0
 73
     1
 44
1.0
  0
ENDBLK
  5
172
330
170
100
AcDbEntity
  8
0
100
AcDbBlockEnd
  0
BLOCK
  5
17C
330
17B
100
AcDbEntity
  8
0
100
AcDbBlockBegin
  2
_D_4
 70
     0
 10
0.0
 20
0.0
 30
0.0
  3
_D_4
  1

  0
INSERT
  5
17E
330
17B
100
AcDbEntity
  8
0
  6
Continuous
 62
     7
370
    18
100
AcDbBlockReference
  2
_CLOSED
 10
5.4321534979
 20
4.6129727682
 30
0.0
 41
0.14
 42
0.14
 50
0.0
  0
INSERT
  5
17F
330
17B
100
AcDbEntity
  8
0
  6
Continuous
 62
     7
370
    18
100
AcDbBlockReference
  2
_CLOSED
 10
5.7071534979
 20
4.6129727682
 30
0.0
 41
0.14
 42
0.14
 50
180.0
  0
LINE
  5
180
330
17B
100
AcDbEntity
  8
0
  6
Continuous
 62
     7
370
    18
100
AcDbLine
 10
5.4321534979
 20
5.0398350221
 30
0.0
 11
5.4321534979
 21
4.5736026895
 31
0.0
  0
LINE
  5
181
330
17B
100
AcDbEntity
  8
0
  6
Continuous
 62
     7
370
    18
100
AcDbLine
 10
5.7071534979
 20
4.9383925024
 30
0.0
 11
5.7071534979
 21
4.5736026895
 31
0.0
  0
LINE
  5
182
330
17B
100
AcDbEntity
  8
0
  6
Continuous
 62
     7
370
    18
100
AcDbLine
 10
5.4321534979
 20
4.6129727682
 30
0.0
 11
5.1821534979
 21
4.6129727682
 31
0.0
  0
LINE
  5
183
330
17B
100
AcDbEntity
  8
0
  6
Continuous
 62
     7
370
    18
100
AcDbLine
 10
5.4321534979
 20
4.6129727682
 30
0.0
 11
5.7071534979
 21
4.6129727682
 31
0.0
  0
LINE
  5
184
330
17B
100
AcDbEntity
  8
0
  6
Continuous
 62
     7
370
    18
100
AcDbLine
 10
5.7071534979
 20
4.6129727682
 30
0.0
 11
6.2575838318
 21
4.6129727682
 31
0.0
  0
MTEXT
  5
185
330
17B
100
AcDbEntity
  8
0
  6
Continuous
 62
     7
370
    18
100
AcDbMText
 10
5.7994145213
 20
4.7906002058
 30
0.0
 40
0.1377952756
 41
0.0
 71
     1
 72
     1
  1
2.750
  7
SLDTEXTSTYLE0
 73
     1
 44
1.0
  0
ENDBLK
  5
17D
330
17B
100
AcDbEntity
  8
0
100
AcDbBlockEnd
  0
BLOCK
  5
188
330
187
100
AcDbEntity
  8
0
100
AcDbBlockBegin
  2
_D_5
 70
     0
 10
0.0
 20
0.0
 30
0.0
  3
_D_5
  1

  0
INSERT
  5
18A
330
187
100
AcDbEntity
  8
0
  6
Continuous
 62
     7
370
    18
100
AcDbBlockReference
  2
_CLOSED
 10
1.8571534979
 20
4.7722913457
 30
0.0
 41
0.14
 42
0.14
 50
0.0
  0
INSERT
  5
18B
330
187
100
AcDbEntity
  8
0
  6
Continuous
 62
     7
370
    18
100
AcDbBlockReference
  2
_CLOSED
 10
2.1321534979
 20
4.7722913457
 30
0.0
 41
0.14
 42
0.14
 50
180.0
  0
LINE
  5
18C
330
187
100
AcDbEntity
  8
0
  6
Continuous
 62
     7
370
    18
100
AcDbLine
 10
1.8571534979
 20
4.9383925024
 30
0.0
 11
1.8571534979
 21
4.732921267
 31
0.0
  0
LINE
  5
18D
330
187
100
AcDbEntity
  8
0
  6
Continuous
 62
     7
370
    18
100
AcDbLine
 10
2.1321534979
 20
5.0398350221
 30
0.0
 11
2.1321534979
 21
4.732921267
 31
0.0
  0
LINE
  5
18E
330
187
100
AcDbEntity
  8
0
  6
Continuous
 62
     7
370
    18
100
AcDbLine
 10
1.8571534979
 20
4.7722913457
 30
0.0
 11
1.6071534979
 21
4.7722913457
 31
0.0
  0
LINE
  5
18F
330
187
100
AcDbEntity
  8
0
  6
Continuous
 62
     7
370
    18
100
AcDbLine
 10
1.8571534979
 20
4.7722913457
 30
0.0
 11
2.1321534979
 21
4.7722913457
 31
0.0
  0
LINE
  5
190
330
187
100
AcDbEntity
  8
0
  6
Continuous
 62
     7
370
    18
100
AcDbLine
 10
2.1321534979
 20
4.7722913457
 30
0.0
 11
3.0489648047
 21
4.7722913457
 31
0.0
  0
MTEXT
  5
191
330
187
100
AcDbEntity
  8
0
  6
Continuous
 62
     7
370
    18
100
AcDbMText
 10
2.5907954942
 20
4.9499187833
 30
0.0
 40
0.1377952756
 41
0.0
 71
     1
 72
     1
  1
2.750
  7
SLDTEXTSTYLE0
 73
     1
 44
1.0
  0
ENDBLK
  5
189
330
187
100
AcDbEntity
  8
0
100
AcDbBlockEnd
  0
BLOCK
  5
195
330
194
100
AcDbEntity
  8
0
100
AcDbBlockBegin
  2
_D_6
 70
     0
 10
0.0
 20
0.0
 30
0.0
  3
_D_6
  1

  0
INSERT
  5
197
330
194
100
AcDbEntity
  8
0
  6
Continuous
 62
     7
370
    18
100
AcDbBlockReference
  2
_CLOSED
 10
6.2692509317
 20
5.0527625811
 30
0.0
 41
0.14
 42
0.14
 50
270.0
  0
INSERT
  5
198
330
194
100
AcDbEntity
  8
0
  6
Continuous
 62
     7
370
    18
100
AcDbBlockReference
  2
_CLOSED
 10
6.2692509317
 20
4.9777625811
 30
0.0
 41
0.14
 42
0.14
 50
90.0
  0
LINE
  5
199
330
194
100
AcDbEntity
  8
0
  6
Continuous
 62
     7
370
    18
100
AcDbLine
 10
2.7450810569
 20
5.0527625811
 30
0.0
 11
6.3086210104
 21
5.0527625811
 31
0.0
  0
LINE
  5
19A
330
194
100
AcDbEntity
  8
0
  6
Continuous
 62
     7
370
    18
100
AcDbLine
 10
5.7465235766
 20
4.9777625811
 30
0.0
 11
6.3086210104
 21
4.9777625811
 31
0.0
  0
LINE
  5
19B
330
194
100
AcDbEntity
  8
0
  6
Continuous
 62
     7
370
    18
100
AcDbLine
 10
6.2692509317
 20
5.0527625811
 30
0.0
 11
6.2692509317
 21
5.5961503416
 31
0.0
  0
LINE
  5
19C
330
194
100
AcDbEntity
  8
0
  6
Continuous
 62
     7
370
    18
100
AcDbLine
 10
6.2692509317
 20
5.0527625811
 30
0.0
 11
6.2692509317
 21
4.9777625811
 31
0.0
  0
LINE
  5
19D
330
194
100
AcDbEntity
  8
0
  6
Continuous
 62
     7
370
    18
100
AcDbLine
 10
6.2692509317
 20
4.9777625811
 30
0.0
 11
6.2692509317
 21
4.7277625811
 31
0.0
  0
MTEXT
  5
19E
330
194
100
AcDbEntity
  8
0
  6
Continuous
 62
     7
370
    18
100
AcDbMText
 10
6.0916234941
 20
5.1379810311
 30
0.0
 40
0.1377952756
 41
0.0
 71
     1
 72
     1
  1
0.750
  7
SLDTEXTSTYLE0
 11
-7.044195017643634E-15
 21
1.0
 31
0.0
 73
     1
 44
1.0
  0
ENDBLK
  5
196
330
194
100
AcDbEntity
  8
0
100
AcDbBlockEnd
  0
BLOCK
  5
1A1
330
1A0
100
AcDbEntity
  8
0
100
AcDbBlockBegin
  2
_D_7
 70
     0
 10
0.0
 20
0.0
 30
0.0
  3
_D_7
  1

  0
INSERT
  5
1A3
330
1A0
100
AcDbEntity
  8
0
  6
Continuous
 62
     7
370
    18
100
AcDbBlockReference
  2
_CLOSED
 10
1.9321534979
 20
4.4953736077
 30
0.0
 41
0.14
 42
0.14
 50
180.0
  0
INSERT
  5
1A4
330
1A0
100
AcDbEntity
  8
0
  6
Continuous
 62
     7
370
    18
100
AcDbBlockReference
  2
_CLOSED
 10
1.8571534979
 20
4.4953736077
 30
0.0
 41
0.14
 42
0.14
 50
0.0
  0
LINE
  5
1A5
330
1A0
100
AcDbEntity
  8
0
  6
Continuous
 62
     7
370
    18
100
AcDbLine
 10
1.9321534979
 20
5.2523350221
 30
0.0
 11
1.9321534979
 21
4.4560035289
 31
0.0
  0
LINE
  5
1A6
330
1A0
100
AcDbEntity
  8
0
  6
Continuous
 62
     7
370
    18
100
AcDbLine
 10
1.8571534979
 20
4.9383925024
 30
0.0
 11
1.8571534979
 21
4.4560035289
 31
0.0
  0
LINE
  5
1A7
330
1A0
100
AcDbEntity
  8
0
  6
Continuous
 62
     7
370
    18
100
AcDbLine
 10
1.9321534979
 20
4.4953736077
 30
0.0
 11
2.8138639141
 21
4.4953736077
 31
0.0
  0
LINE
  5
1A8
330
1A0
100
AcDbEntity
  8
0
  6
Continuous
 62
     7
370
    18
100
AcDbLine
 10
1.9321534979
 20
4.4953736077
 30
0.0
 11
1.8571534979
 21
4.4953736077
 31
0.0
  0
LINE
  5
1A9
330
1A0
100
AcDbEntity
  8
0
  6
Continuous
 62
     7
370
    18
100
AcDbLine
 10
1.8571534979
 20
4.4953736077
 30
0.0
 11
1.6071534979
 21
4.4953736077
 31
0.0
  0
MTEXT
  5
1AA
330
1A0
100
AcDbEntity
  8
0
  6
Continuous
 62
     7
370
    18
100
AcDbMText
 10
2.3556946036
 20
4.6730010453
 30
0.0
 40
0.1377952756
 41
0.0
 71
     1
 72
     1
  1
0.750
  7
SLDTEXTSTYLE0
 73
     1
 44
1.0
  0
ENDBLK
  5
1A2
330
1A0
100
AcDbEntity
  8
0
100
AcDbBlockEnd
  0
BLOCK
  5
1AD
330
1AC
100
AcDbEntity
  8
0
100
AcDbBlockBegin
  2
_D_8
 70
     0
 10
0.0
 20
0.0
 30
0.0
  3
_D_8
  1

  0
INSERT
  5
1AF
330
1AC
100
AcDbEntity
  8
0
  6
Continuous
 62
     7
370
    18
100
AcDbBlockReference
  2
_CLOSED
 10
3.6321534979
 20
4.5974652254
 30
0.0
 41
0.14
 42
0.14
 50
0.0
  0
INSERT
  5
1B0
330
1AC
100
AcDbEntity
  8
0
  6
Continuous
 62
     7
370
    18
100
AcDbBlockReference
  2
_CLOSED
 10
3.9321534979
 20
4.5974652254
 30
0.0
 41
0.14
 42
0.14
 50
180.0
  0
LINE
  5
1B1
330
1AC
100
AcDbEntity
  8
0
  6
Continuous
 62
     7
370
    18
100
AcDbLine
 10
3.6321534979
 20
5.0398350221
 30
0.0
 11
3.6321534979
 21
4.5580951466
 31
0.0
  0
LINE
  5
1B2
330
1AC
100
AcDbEntity
  8
0
  6
Continuous
 62
     7
370
    18
100
AcDbLine
 10
3.9321534979
 20
5.0398350221
 30
0.0
 11
3.9321534979
 21
4.5580951466
 31
0.0
  0
LINE
  5
1B3
330
1AC
100
AcDbEntity
  8
0
  6
Continuous
 62
     7
370
    18
100
AcDbLine
 10
3.6321534979
 20
4.5974652254
 30
0.0
 11
3.3821534979
 21
4.5974652254
 31
0.0
  0
LINE
  5
1B4
330
1AC
100
AcDbEntity
  8
0
  6
Continuous
 62
     7
370
    18
100
AcDbLine
 10
3.6321534979
 20
4.5974652254
 30
0.0
 11
3.9321534979
 21
4.5974652254
 31
0.0
  0
LINE
  5
1B5
330
1AC
100
AcDbEntity
  8
0
  6
Continuous
 62
     7
370
    18
100
AcDbLine
 10
3.9321534979
 20
4.5974652254
 30
0.0
 11
4.4644401242
 21
4.5974652254
 31
0.0
  0
MTEXT
  5
1B6
330
1AC
100
AcDbEntity
  8
0
  6
Continuous
 62
     7
370
    18
100
AcDbMText
 10
4.0062708137
 20
4.775092663
 30
0.0
 40
0.1377952756
 41
0.0
 71
     1
 72
     1
  1
3.000
  7
SLDTEXTSTYLE0
 73
     1
 44
1.0
  0
ENDBLK
  5
1AE
330
1AC
100
AcDbEntity
  8
0
100
AcDbBlockEnd
  0
BLOCK
  5
1B9
330
1B8
100
AcDbEntity
  8
0
100
AcDbBlockBegin
  2
_D_9
 70
     0
 10
0.0
 20
0.0
 30
0.0
  3
_D_9
  1

  0
INSERT
  5
1BB
330
1B8
100
AcDbEntity
  8
0
  6
Continuous
 62
     7
370
    18
100
AcDbBlockReference
  2
_CLOSED
 10
1.6689264842
 20
7.0527625811
 30
0.0
 41
0.14
 42
0.14
 50
270.0
  0
INSERT
  5
1BC
330
1B8
100
AcDbEntity
  8
0
  6
Continuous
 62
     7
370
    18
100
AcDbBlockReference
  2
_CLOSED
 10
1.6689264842
 20
6.9777625811
 30
0.0
 41
0.14
 42
0.14
 50
90.0
  0
LINE
  5
1BD
330
1B8
100
AcDbEntity
  8
0
  6
Continuous
 62
     7
370
    18
100
AcDbLine
 10
1.8177834191
 20
7.0527625811
 30
0.0
 11
1.6295564055
 21
7.0527625811
 31
0.0
  0
LINE
  5
1BE
330
1B8
100
AcDbEntity
  8
0
  6
Continuous
 62
     7
370
    18
100
AcDbLine
 10
2.7192259388
 20
6.9777625811
 30
0.0
 11
1.6295564055
 21
6.9777625811
 31
0.0
  0
LINE
  5
1BF
330
1B8
100
AcDbEntity
  8
0
  6
Continuous
 62
     7
370
    18
100
AcDbLine
 10
1.6689264842
 20
7.0527625811
 30
0.0
 11
1.6689264842
 21
7.3027625811
 31
0.0
  0
LINE
  5
1C0
330
1B8
100
AcDbEntity
  8
0
  6
Continuous
 62
     7
370
    18
100
AcDbLine
 10
1.6689264842
 20
7.0527625811
 30
0.0
 11
1.6689264842
 21
6.9777625811
 31
0.0
  0
LINE
  5
1C1
330
1B8
100
AcDbEntity
  8
0
  6
Continuous
 62
     7
370
    18
100
AcDbLine
 10
1.6689264842
 20
6.9777625811
 30
0.0
 11
1.6689264842
 21
6.320685959
 31
0.0
  0
MTEXT
  5
1C2
330
1B8
100
AcDbEntity
  8
0
  6
Continuous
 62
     7
370
    18
100
AcDbMText
 10
1.4912990466
 20
6.320685959
 30
0.0
 40
0.1377952756
 41
0.0
 71
     1
 72
     1
  1
0.750
  7
SLDTEXTSTYLE0
 11
-7.044195017643634E-15
 21
1.0
 31
0.0
 73
     1
 44
1.0
  0
ENDBLK
  5
1BA
330
1B8
100
AcDbEntity
  8
0
100
AcDbBlockEnd
  0
BLOCK
  5
1C5
330
1C4
100
AcDbEntity
  8
0
100
AcDbBlockBegin
  2
_D_10
 70
     0
 10
0.0
 20
0.0
 30
0.0
  3
_D_10
  1

  0
INSERT
  5
1C7
330
1C4
100
AcDbEntity
  8
0
  6
Continuous
 62
     7
370
    18
100
AcDbBlockReference
  2
_CLOSED
 10
1.6640793112
 20
6.1652625811
 30
0.0
 41
0.14
 42
0.14
 50
270.0
  0
INSERT
  5
1C8
330
1C4
100
AcDbEntity
  8
0
  6
Continuous
 62
     7
370
    18
100
AcDbBlockReference
  2
_CLOSED
 10
1.6640793112
 20
5.8652625811
 30
0.0
 41
0.14
 42
0.14
 50
90.0
  0
LINE
  5
1C9
330
1C4
100
AcDbEntity
  8
0
  6
Continuous
 62
     7
370
    18
100
AcDbLine
 10
1.9192259388
 20
6.1652625811
 30
0.0
 11
1.6247092325
 21
6.1652625811
 31
0.0
  0
LINE
  5
1CA
330
1C4
100
AcDbEntity
  8
0
  6
Continuous
 62
     7
370
    18
100
AcDbLine
 10
1.9192259388
 20
5.8652625811
 30
0.0
 11
1.6247092325
 21
5.8652625811
 31
0.0
  0
LINE
  5
1CB
330
1C4
100
AcDbEntity
  8
0
  6
Continuous
 62
     7
370
    18
100
AcDbLine
 10
1.6640793112
 20
6.1652625811
 30
0.0
 11
1.6640793112
 21
6.4152625811
 31
0.0
  0
LINE
  5
1CC
330
1C4
100
AcDbEntity
  8
0
  6
Continuous
 62
     7
370
    18
100
AcDbLine
 10
1.6640793112
 20
6.1652625811
 30
0.0
 11
1.6640793112
 21
5.8652625811
 31
0.0
  0
LINE
  5
1CD
330
1C4
100
AcDbEntity
  8
0
  6
Continuous
 62
     7
370
    18
100
AcDbLine
 10
1.6640793112
 20
5.8652625811
 30
0.0
 11
1.6640793112
 21
5.6152625811
 31
0.0
  0
MTEXT
  5
1CE
330
1C4
100
AcDbEntity
  8
0
  6
Continuous
 62
     7
370
    18
100
AcDbMText
 10
1.4864518737
 20
5.7500119529
 30
0.0
 40
0.1377952756
 41
0.0
 71
     1
 72
     1
  1
3.000
  7
SLDTEXTSTYLE0
 11
-1.414962237524464E-14
 21
1.0
 31
0.0
 73
     1
 44
1.0
  0
ENDBLK
  5
1C6
330
1C4
100
AcDbEntity
  8
0
100
AcDbBlockEnd
  0
BLOCK
  5
1D2
330
1D1
100
AcDbEntity
  8
0
100
AcDbBlockBegin
  2
_D_11
 70
     0
 10
0.0
 20
0.0
 30
0.0
  3
_D_11
  1

  0
INSERT
  5
1D4
330
1D1
100
AcDbEntity
  8
0
  6
Continuous
 62
     7
370
    18
100
AcDbBlockReference
  2
_CLOSED
 10
1.3616005195
 20
5.2652625811
 30
0.0
 41
0.14
 42
0.14
 50
270.0
  0
INSERT
  5
1D5
330
1D1
100
AcDbEntity
  8
0
  6
Continuous
 62
     7
370
    18
100
AcDbBlockReference
  2
_CLOSED
 10
1.3616005195
 20
4.9777625811
 30
0.0
 41
0.14
 42
0.14
 50
90.0
  0
LINE
  5
1D6
330
1D1
100
AcDbEntity
  8
0
  6
Continuous
 62
     7
370
    18
100
AcDbLine
 10
1.9192259388
 20
5.2652625811
 30
0.0
 11
1.3222304408
 21
5.2652625811
 31
0.0
  0
LINE
  5
1D7
330
1D1
100
AcDbEntity
  8
0
  6
Continuous
 62
     7
370
    18
100
AcDbLine
 10
1.8177834191
 20
4.9777625811
 30
0.0
 11
1.3222304408
 21
4.9777625811
 31
0.0
  0
LINE
  5
1D8
330
1D1
100
AcDbEntity
  8
0
  6
Continuous
 62
     7
370
    18
100
AcDbLine
 10
1.3616005195
 20
5.2652625811
 30
0.0
 11
1.3616005195
 21
5.5152625811
 31
0.0
  0
LINE
  5
1D9
330
1D1
100
AcDbEntity
  8
0
  6
Continuous
 62
     7
370
    18
100
AcDbLine
 10
1.3616005195
 20
5.2652625811
 30
0.0
 11
1.3616005195
 21
4.9777625811
 31
0.0
  0
LINE
  5
1DA
330
1D1
100
AcDbEntity
  8
0
  6
Continuous
 62
     7
370
    18
100
AcDbLine
 10
1.3616005195
 20
4.9777625811
 30
0.0
 11
1.3616005195
 21
4.7277625811
 31
0.0
  0
MTEXT
  5
1DB
330
1D1
100
AcDbEntity
  8
0
  6
Continuous
 62
     7
370
    18
100
AcDbMText
 10
1.1839730819
 20
4.9837323472
 30
0.0
 40
0.1377952756
 41
0.0
 71
     1
 72
     1
  1
2.875
  7
SLDTEXTSTYLE0
 11
-7.044195017643634E-15
 21
1.0
 31
0.0
 73
     1
 44
1.0
  0
ENDBLK
  5
1D3
330
1D1
100
AcDbEntity
  8
0
100
AcDbBlockEnd
  0
BLOCK
  5
1DD
330
1DC
100
AcDbEntity
  8
0
100
AcDbBlockBegin
  2
SW_CENTERMARKSYMBOL_0
 70
     0
 10
0.0
 20
0.0
 30
0.0
  3
SW_CENTERMARKSYMBOL_0
  1

  0
LINE
  5
1DF
330
1DC
100
AcDbEntity
  8
0
  6
Continuous
 62
     0
370
     0
100
AcDbLine
 10
0.0
 20
0.0
 30
0.0
 11
0.0
 21
0.0098425197
 31
0.0
  0
LINE
  5
1E0
330
1DC
100
AcDbEntity
  8
0
  6
Continuous
 62
     0
370
     0
100
AcDbLine
 10
0.0
 20
0.0
 30
0.0
 11
-0.0098425197
 21
0.0
 31
0.0
  0
LINE
  5
1E1
330
1DC
100
AcDbEntity
  8
0
  6
Continuous
 62
     0
370
     0
100
AcDbLine
 10
0.0
 20
0.0
 30
0.0
 11
0.0
 21
-0.0098425197
 31
0.0
  0
LINE
  5
1E2
330
1DC
100
AcDbEntity
  8
0
  6
Continuous
 62
     0
370
     0
100
AcDbLine
 10
0.0
 20
0.0
 30
0.0
 11
0.0098425197
 21
0.0
 31
0.0
  0
LINE
  5
1E3
330
1DC
100
AcDbEntity
  8
0
  6
Continuous
 62
     0
370
     0
100
AcDbLine
 10
0.0
 20
-0.0196850394
 30
0.0
 11
0.0
 21
-0.0264425197
 31
0.0
  0
LINE
  5
1E4
330
1DC
100
AcDbEntity
  8
0
  6
Continuous
 62
     0
370
     0
100
AcDbLine
 10
0.0196850394
 20
0.0
 30
0.0
 11
0.0264425197
 21
0.0
 31
0.0
  0
LINE
  5
1E5
330
1DC
100
AcDbEntity
  8
0
  6
Continuous
 62
     0
370
     0
100
AcDbLine
 10
0.0
 20
0.3
 30
0.0
 11
0.0
 21
0.3098425197
 31
0.0
  0
LINE
  5
1E6
330
1DC
100
AcDbEntity
  8
0
  6
Continuous
 62
     0
370
     0
100
AcDbLine
 10
0.0
 20
0.3
 30
0.0
 11
-0.0098425197
 21
0.3
 31
0.0
  0
LINE
  5
1E7
330
1DC
100
AcDbEntity
  8
0
  6
Continuous
 62
     0
370
     0
100
AcDbLine
 10
0.0
 20
0.3
 30
0.0
 11
0.0
 21
0.2901574803
 31
0.0
  0
LINE
  5
1E8
330
1DC
100
AcDbEntity
  8
0
  6
Continuous
 62
     0
370
     0
100
AcDbLine
 10
0.0
 20
0.3
 30
0.0
 11
0.0098425197
 21
0.3
 31
0.0
  0
LINE
  5
1E9
330
1DC
100
AcDbEntity
  8
0
  6
Continuous
 62
     0
370
     0
100
AcDbLine
 10
0.0196850394
 20
0.3
 30
0.0
 11
0.0264425197
 21
0.3
 31
0.0
  0
LINE
  5
1EA
330
1DC
100
AcDbEntity
  8
0
  6
Continuous
 62
     0
370
     0
100
AcDbLine
 10
0.0
 20
0.6
 30
0.0
 11
0.0
 21
0.6098425197
 31
0.0
  0
LINE
  5
1EB
330
1DC
100
AcDbEntity
  8
0
  6
Continuous
 62
     0
370
     0
100
AcDbLine
 10
0.0
 20
0.6
 30
0.0
 11
-0.0098425197
 21
0.6
 31
0.0
  0
LINE
  5
1EC
330
1DC
100
AcDbEntity
  8
0
  6
Continuous
 62
     0
370
     0
100
AcDbLine
 10
0.0
 20
0.6
 30
0.0
 11
0.0
 21
0.5901574803
 31
0.0
  0
LINE
  5
1ED
330
1DC
100
AcDbEntity
  8
0
  6
Continuous
 62
     0
370
     0
100
AcDbLine
 10
0.0
 20
0.6
 30
0.0
 11
0.0098425197
 21
0.6
 31
0.0
  0
LINE
  5
1EE
330
1DC
100
AcDbEntity
  8
0
  6
Continuous
 62
     0
370
     0
100
AcDbLine
 10
0.0196850394
 20
0.6
 30
0.0
 11
0.0264425197
 21
0.6
 31
0.0
  0
LINE
  5
1EF
330
1DC
100
AcDbEntity
  8
0
  6
Continuous
 62
     0
370
     0
100
AcDbLine
 10
0.0
 20
0.9
 30
0.0
 11
0.0
 21
0.9098425197
 31
0.0
  0
LINE
  5
1F0
330
1DC
100
AcDbEntity
  8
0
  6
Continuous
 62
     0
370
     0
100
AcDbLine
 10
0.0
 20
0.9
 30
0.0
 11
-0.0098425197
 21
0.9
 31
0.0
  0
LINE
  5
1F1
330
1DC
100
AcDbEntity
  8
0
  6
Continuous
 62
     0
370
     0
100
AcDbLine
 10
0.0
 20
0.9
 30
0.0
 11
0.0
 21
0.8901574803
 31
0.0
  0
LINE
  5
1F2
330
1DC
100
AcDbEntity
  8
0
  6
Continuous
 62
     0
370
     0
100
AcDbLine
 10
0.0
 20
0.9
 30
0.0
 11
0.0098425197
 21
0.9
 31
0.0
  0
LINE
  5
1F3
330
1DC
100
AcDbEntity
  8
0
  6
Continuous
 62
     0
370
     0
100
AcDbLine
 10
0.0196850394
 20
0.9
 30
0.0
 11
0.0264425197
 21
0.9
 31
0.0
  0
LINE
  5
1F4
330
1DC
100
AcDbEntity
  8
0
  6
Continuous
 62
     0
370
     0
100
AcDbLine
 10
0.0
 20
1.2
 30
0.0
 11
0.0
 21
1.2098425197
 31
0.0
  0
LINE
  5
1F5
330
1DC
100
AcDbEntity
  8
0
  6
Continuous
 62
     0
370
     0
100
AcDbLine
 10
0.0
 20
1.2
 30
0.0
 11
-0.0098425197
 21
1.2
 31
0.0
  0
LINE
  5
1F6
330
1DC
100
AcDbEntity
  8
0
  6
Continuous
 62
     0
370
     0
100
AcDbLine
 10
0.0
 20
1.2
 30
0.0
 11
0.0
 21
1.1901574803
 31
0.0
  0
LINE
  5
1F7
330
1DC
100
AcDbEntity
  8
0
  6
Continuous
 62
     0
370
     0
100
AcDbLine
 10
0.0
 20
1.2
 30
0.0
 11
0.0098425197
 21
1.2
 31
0.0
  0
LINE
  5
1F8
330
1DC
100
AcDbEntity
  8
0
  6
Continuous
 62
     0
370
     0
100
AcDbLine
 10
0.0196850394
 20
1.2
 30
0.0
 11
0.0264425197
 21
1.2
 31
0.0
  0
LINE
  5
1F9
330
1DC
100
AcDbEntity
  8
0
  6
Continuous
 62
     0
370
     0
100
AcDbLine
 10
0.0
 20
1.5
 30
0.0
 11
0.0
 21
1.5098425197
 31
0.0
  0
LINE
  5
1FA
330
1DC
100
AcDbEntity
  8
0
  6
Continuous
 62
     0
370
     0
100
AcDbLine
 10
0.0
 20
1.5
 30
0.0
 11
-0.0098425197
 21
1.5
 31
0.0
  0
LINE
  5
1FB
330
1DC
100
AcDbEntity
  8
0
  6
Continuous
 62
     0
370
     0
100
AcDbLine
 10
0.0
 20
1.5
 30
0.0
 11
0.0
 21
1.4901574803
 31
0.0
  0
LINE
  5
1FC
330
1DC
100
AcDbEntity
  8
0
  6
Continuous
 62
     0
370
     0
100
AcDbLine
 10
0.0
 20
1.5
 30
0.0
 11
0.0098425197
 21
1.5
 31
0.0
  0
LINE
  5
1FD
330
1DC
100
AcDbEntity
  8
0
  6
Continuous
 62
     0
370
     0
100
AcDbLine
 10
0.0
 20
1.5196850394
 30
0.0
 11
0.0
 21
1.5264425197
 31
0.0
  0
LINE
  5
1FE
330
1DC
100
AcDbEntity
  8
0
  6
Continuous
 62
     0
370
     0
100
AcDbLine
 10
0.0196850394
 20
1.5
 30
0.0
 11
0.0264425197
 21
1.5
 31
0.0
  0
LINE
  5
1FF
330
1DC
100
AcDbEntity
  8
0
  6
Continuous
 62
     0
370
     0
100
AcDbLine
 10
-3.7
 20
0.0
 30
0.0
 11
-3.7
 21
0.0098425197
 31
0.0
  0
LINE
  5
200
330
1DC
100
AcDbEntity
  8
0
  6
Continuous
 62
     0
370
     0
100
AcDbLine
 10
-3.7
 20
0.0
 30
0.0
 11
-3.7098425197
 21
0.0
 31
0.0
  0
LINE
  5
201
330
1DC
100
AcDbEntity
  8
0
  6
Continuous
 62
     0
370
     0
100
AcDbLine
 10
-3.7
 20
0.0
 30
0.0
 11
-3.7
 21
-0.0098425197
 31
0.0
  0
LINE
  5
202
330
1DC
100
AcDbEntity
  8
0
  6
Continuous
 62
     0
370
     0
100
AcDbLine
 10
-3.7
 20
0.0
 30
0.0
 11
-3.6901574803
 21
0.0
 31
0.0
  0
LINE
  5
203
330
1DC
100
AcDbEntity
  8
0
  6
Continuous
 62
     0
370
     0
100
AcDbLine
 10
-3.7196850394
 20
0.0
 30
0.0
 11
-3.7264425197
 21
0.0
 31
0.0
  0
LINE
  5
204
330
1DC
100
AcDbEntity
  8
0
  6
Continuous
 62
     0
370
     0
100
AcDbLine
 10
-3.7
 20
-0.0196850394
 30
0.0
 11
-3.7
 21
-0.0264425197
 31
0.0
  0
LINE
  5
205
330
1DC
100
AcDbEntity
  8
0
  6
Continuous
 62
     0
370
     0
100
AcDbLine
 10
-3.7
 20
0.3
 30
0.0
 11
-3.7
 21
0.3098425197
 31
0.0
  0
LINE
  5
206
330
1DC
100
AcDbEntity
  8
0
  6
Continuous
 62
     0
370
     0
100
AcDbLine
 10
-3.7
 20
0.3
 30
0.0
 11
-3.7098425197
 21
0.3
 31
0.0
  0
LINE
  5
207
330
1DC
100
AcDbEntity
  8
0
  6
Continuous
 62
     0
370
     0
100
AcDbLine
 10
-3.7
 20
0.3
 30
0.0
 11
-3.7
 21
0.2901574803
 31
0.0
  0
LINE
  5
208
330
1DC
100
AcDbEntity
  8
0
  6
Continuous
 62
     0
370
     0
100
AcDbLine
 10
-3.7
 20
0.3
 30
0.0
 11
-3.6901574803
 21
0.3
 31
0.0
  0
LINE
  5
209
330
1DC
100
AcDbEntity
  8
0
  6
Continuous
 62
     0
370
     0
100
AcDbLine
 10
-3.7196850394
 20
0.3
 30
0.0
 11
-3.7264425197
 21
0.3
 31
0.0
  0
LINE
  5
20A
330
1DC
100
AcDbEntity
  8
0
  6
Continuous
 62
     0
370
     0
100
AcDbLine
 10
-3.7
 20
0.6
 30
0.0
 11
-3.7
 21
0.6098425197
 31
0.0
  0
LINE
  5
20B
330
1DC
100
AcDbEntity
  8
0
  6
Continuous
 62
     0
370
     0
100
AcDbLine
 10
-3.7
 20
0.6
 30
0.0
 11
-3.7098425197
 21
0.6
 31
0.0
  0
LINE
  5
20C
330
1DC
100
AcDbEntity
  8
0
  6
Continuous
 62
     0
370
     0
100
AcDbLine
 10
-3.7
 20
0.6
 30
0.0
 11
-3.7
 21
0.5901574803
 31
0.0
  0
LINE
  5
20D
330
1DC
100
AcDbEntity
  8
0
  6
Continuous
 62
     0
370
     0
100
AcDbLine
 10
-3.7
 20
0.6
 30
0.0
 11
-3.6901574803
 21
0.6
 31
0.0
  0
LINE
  5
20E
330
1DC
100
AcDbEntity
  8
0
  6
Continuous
 62
     0
370
     0
100
AcDbLine
 10
-3.7196850394
 20
0.6
 30
0.0
 11
-3.7264425197
 21
0.6
 31
0.0
  0
LINE
  5
20F
330
1DC
100
AcDbEntity
  8
0
  6
Continuous
 62
     0
370
     0
100
AcDbLine
 10
-3.7
 20
0.9
 30
0.0
 11
-3.7
 21
0.9098425197
 31
0.0
  0
LINE
  5
210
330
1DC
100
AcDbEntity
  8
0
  6
Continuous
 62
     0
370
     0
100
AcDbLine
 10
-3.7
 20
0.9
 30
0.0
 11
-3.7098425197
 21
0.9
 31
0.0
  0
LINE
  5
211
330
1DC
100
AcDbEntity
  8
0
  6
Continuous
 62
     0
370
     0
100
AcDbLine
 10
-3.7
 20
0.9
 30
0.0
 11
-3.7
 21
0.8901574803
 31
0.0
  0
LINE
  5
212
330
1DC
100
AcDbEntity
  8
0
  6
Continuous
 62
     0
370
     0
100
AcDbLine
 10
-3.7
 20
0.9
 30
0.0
 11
-3.6901574803
 21
0.9
 31
0.0
  0
LINE
  5
213
330
1DC
100
AcDbEntity
  8
0
  6
Continuous
 62
     0
370
     0
100
AcDbLine
 10
-3.7196850394
 20
0.9
 30
0.0
 11
-3.7264425197
 21
0.9
 31
0.0
  0
LINE
  5
214
330
1DC
100
AcDbEntity
  8
0
  6
Continuous
 62
     0
370
     0
100
AcDbLine
 10
-3.7
 20
1.2
 30
0.0
 11
-3.7
 21
1.2098425197
 31
0.0
  0
LINE
  5
215
330
1DC
100
AcDbEntity
  8
0
  6
Continuous
 62
     0
370
     0
100
AcDbLine
 10
-3.7
 20
1.2
 30
0.0
 11
-3.7098425197
 21
1.2
 31
0.0
  0
LINE
  5
216
330
1DC
100
AcDbEntity
  8
0
  6
Continuous
 62
     0
370
     0
100
AcDbLine
 10
-3.7
 20
1.2
 30
0.0
 11
-3.7
 21
1.1901574803
 31
0.0
  0
LINE
  5
217
330
1DC
100
AcDbEntity
  8
0
  6
Continuous
 62
     0
370
     0
100
AcDbLine
 10
-3.7
 20
1.2
 30
0.0
 11
-3.6901574803
 21
1.2
 31
0.0
  0
LINE
  5
218
330
1DC
100
AcDbEntity
  8
0
  6
Continuous
 62
     0
370
     0
100
AcDbLine
 10
-3.7196850394
 20
1.2
 30
0.0
 11
-3.7264425197
 21
1.2
 31
0.0
  0
LINE
  5
219
330
1DC
100
AcDbEntity
  8
0
  6
Continuous
 62
     0
370
     0
100
AcDbLine
 10
-3.7
 20
1.5
 30
0.0
 11
-3.7
 21
1.5098425197
 31
0.0
  0
LINE
  5
21A
330
1DC
100
AcDbEntity
  8
0
  6
Continuous
 62
     0
370
     0
100
AcDbLine
 10
-3.7
 20
1.5
 30
0.0
 11
-3.7098425197
 21
1.5
 31
0.0
  0
LINE
  5
21B
330
1DC
100
AcDbEntity
  8
0
  6
Continuous
 62
     0
370
     0
100
AcDbLine
 10
-3.7
 20
1.5
 30
0.0
 11
-3.7
 21
1.4901574803
 31
0.0
  0
LINE
  5
21C
330
1DC
100
AcDbEntity
  8
0
  6
Continuous
 62
     0
370
     0
100
AcDbLine
 10
-3.7
 20
1.5
 30
0.0
 11
-3.6901574803
 21
1.5
 31
0.0
  0
LINE
  5
21D
330
1DC
100
AcDbEntity
  8
0
  6
Continuous
 62
     0
370
     0
100
AcDbLine
 10
-3.7
 20
1.5196850394
 30
0.0
 11
-3.7
 21
1.5264425197
 31
0.0
  0
LINE
  5
21E
330
1DC
100
AcDbEntity
  8
0
  6
Continuous
 62
     0
370
     0
100
AcDbLine
 10
-3.7196850394
 20
1.5
 30
0.0
 11
-3.7264425197
 21
1.5
 31
0.0
  0
LINE
  5
21F
330
1DC
100
AcDbEntity
  8
0
  6
CENTERX2
 62
     0
370
     0
100
AcDbLine
 10
0.0
 20
0.0196850394
 30
0.0
 11
0.0
 21
0.2803149606
 31
0.0
  0
LINE
  5
220
330
1DC
100
AcDbEntity
  8
0
  6
CENTERX2
 62
     0
370
     0
100
AcDbLine
 10
0.0
 20
0.3196850394
 30
0.0
 11
0.0
 21
0.5803149606
 31
0.0
  0
LINE
  5
221
330
1DC
100
AcDbEntity
  8
0
  6
CENTERX2
 62
     0
370
     0
100
AcDbLine
 10
0.0
 20
0.6196850394
 30
0.0
 11
0.0
 21
0.8803149606
 31
0.0
  0
LINE
  5
222
330
1DC
100
AcDbEntity
  8
0
  6
CENTERX2
 62
     0
370
     0
100
AcDbLine
 10
0.0
 20
0.9196850394
 30
0.0
 11
0.0
 21
1.1803149606
 31
0.0
  0
LINE
  5
223
330
1DC
100
AcDbEntity
  8
0
  6
CENTERX2
 62
     0
370
     0
100
AcDbLine
 10
0.0
 20
1.2196850394
 30
0.0
 11
0.0
 21
1.4803149606
 31
0.0
  0
LINE
  5
224
330
1DC
100
AcDbEntity
  8
0
  6
CENTERX2
 62
     0
370
     0
100
AcDbLine
 10
-3.6803149606
 20
0.0
 30
0.0
 11
-0.0196850394
 21
0.0
 31
0.0
  0
LINE
  5
225
330
1DC
100
AcDbEntity
  8
0
  6
CENTERX2
 62
     0
370
     0
100
AcDbLine
 10
-3.6803149606
 20
0.3
 30
0.0
 11
-0.0196850394
 21
0.3
 31
0.0
  0
LINE
  5
226
330
1DC
100
AcDbEntity
  8
0
  6
CENTERX2
 62
     0
370
     0
100
AcDbLine
 10
-3.7
 20
0.0196850394
 30
0.0
 11
-3.7
 21
0.2803149606
 31
0.0
  0
LINE
  5
227
330
1DC
100
AcDbEntity
  8
0
  6
CENTERX2
 62
     0
370
     0
100
AcDbLine
 10
-3.6803149606
 20
0.6
 30
0.0
 11
-0.0196850394
 21
0.6
 31
0.0
  0
LINE
  5
228
330
1DC
100
AcDbEntity
  8
0
  6
CENTERX2
 62
     0
370
     0
100
AcDbLine
 10
-3.7
 20
0.3196850394
 30
0.0
 11
-3.7
 21
0.5803149606
 31
0.0
  0
LINE
  5
229
330
1DC
100
AcDbEntity
  8
0
  6
CENTERX2
 62
     0
370
     0
100
AcDbLine
 10
-3.6803149606
 20
0.9
 30
0.0
 11
-0.0196850394
 21
0.9
 31
0.0
  0
LINE
  5
22A
330
1DC
100
AcDbEntity
  8
0
  6
CENTERX2
 62
     0
370
     0
100
AcDbLine
 10
-3.7
 20
0.6196850394
 30
0.0
 11
-3.7
 21
0.8803149606
 31
0.0
  0
LINE
  5
22B
330
1DC
100
AcDbEntity
  8
0
  6
CENTERX2
 62
     0
370
     0
100
AcDbLine
 10
-3.6803149606
 20
1.2
 30
0.0
 11
-0.0196850394
 21
1.2
 31
0.0
  0
LINE
  5
22C
330
1DC
100
AcDbEntity
  8
0
  6
CENTERX2
 62
     0
370
     0
100
AcDbLine
 10
-3.7
 20
0.9196850394
 30
0.0
 11
-3.7
 21
1.1803149606
 31
0.0
  0
LINE
  5
22D
330
1DC
100
AcDbEntity
  8
0
  6
CENTERX2
 62
     0
370
     0
100
AcDbLine
 10
-3.6803149606
 20
1.5
 30
0.0
 11
-0.0196850394
 21
1.5
 31
0.0
  0
LINE
  5
22E
330
1DC
100
AcDbEntity
  8
0
  6
CENTERX2
 62
     0
370
     0
100
AcDbLine
 10
-3.7
 20
1.2196850394
 30
0.0
 11
-3.7
 21
1.4803149606
 31
0.0
  0
ENDBLK
  5
1DE
330
1DC
100
AcDbEntity
  8
0
100
AcDbBlockEnd
  0
BLOCK
  5
231
330
230
100
AcDbEntity
  8
0
100
AcDbBlockBegin
  2
SW_CENTERMARKSYMBOL_1
 70
     0
 10
0.0
 20
0.0
 30
0.0
  3
SW_CENTERMARKSYMBOL_1
  1

  0
LINE
  5
233
330
230
100
AcDbEntity
  8
0
  6
Continuous
 62
     0
370
     0
100
AcDbLine
 10
0.0
 20
0.0
 30
0.0
 11
0.0
 21
0.0098425197
 31
0.0
  0
LINE
  5
234
330
230
100
AcDbEntity
  8
0
  6
Continuous
 62
     0
370
     0
100
AcDbLine
 10
0.0
 20
0.0
 30
0.0
 11
-0.0098425197
 21
0.0
 31
0.0
  0
LINE
  5
235
330
230
100
AcDbEntity
  8
0
  6
Continuous
 62
     0
370
     0
100
AcDbLine
 10
0.0
 20
0.0
 30
0.0
 11
0.0
 21
-0.0098425197
 31
0.0
  0
LINE
  5
236
330
230
100
AcDbEntity
  8
0
  6
Continuous
 62
     0
370
     0
100
AcDbLine
 10
0.0
 20
0.0
 30
0.0
 11
0.0098425197
 21
0.0
 31
0.0
  0
LINE
  5
237
330
230
100
AcDbEntity
  8
0
  6
Continuous
 62
     0
370
     0
100
AcDbLine
 10
0.0
 20
-0.0196850394
 30
0.0
 11
0.0
 21
-0.0264425197
 31
0.0
  0
LINE
  5
238
330
230
100
AcDbEntity
  8
0
  6
Continuous
 62
     0
370
     0
100
AcDbLine
 10
0.0196850394
 20
0.0
 30
0.0
 11
0.0264425197
 21
0.0
 31
0.0
  0
LINE
  5
239
330
230
100
AcDbEntity
  8
0
  6
Continuous
 62
     0
370
     0
100
AcDbLine
 10
0.0
 20
1.925
 30
0.0
 11
0.0
 21
1.9348425197
 31
0.0
  0
LINE
  5
23A
330
230
100
AcDbEntity
  8
0
  6
Continuous
 62
     0
370
     0
100
AcDbLine
 10
0.0
 20
1.925
 30
0.0
 11
-0.0098425197
 21
1.925
 31
0.0
  0
LINE
  5
23B
330
230
100
AcDbEntity
  8
0
  6
Continuous
 62
     0
370
     0
100
AcDbLine
 10
0.0
 20
1.925
 30
0.0
 11
0.0
 21
1.9151574803
 31
0.0
  0
LINE
  5
23C
330
230
100
AcDbEntity
  8
0
  6
Continuous
 62
     0
370
     0
100
AcDbLine
 10
0.0
 20
1.925
 30
0.0
 11
0.0098425197
 21
1.925
 31
0.0
  0
LINE
  5
23D
330
230
100
AcDbEntity
  8
0
  6
Continuous
 62
     0
370
     0
100
AcDbLine
 10
0.0
 20
1.9446850394
 30
0.0
 11
0.0
 21
1.9514425197
 31
0.0
  0
LINE
  5
23E
330
230
100
AcDbEntity
  8
0
  6
Continuous
 62
     0
370
     0
100
AcDbLine
 10
0.0196850394
 20
1.925
 30
0.0
 11
0.0264425197
 21
1.925
 31
0.0
  0
LINE
  5
23F
330
230
100
AcDbEntity
  8
0
  6
Continuous
 62
     0
370
     0
100
AcDbLine
 10
-0.3
 20
0.0
 30
0.0
 11
-0.3
 21
0.0098425197
 31
0.0
  0
LINE
  5
240
330
230
100
AcDbEntity
  8
0
  6
Continuous
 62
     0
370
     0
100
AcDbLine
 10
-0.3
 20
0.0
 30
0.0
 11
-0.3098425197
 21
0.0
 31
0.0
  0
LINE
  5
241
330
230
100
AcDbEntity
  8
0
  6
Continuous
 62
     0
370
     0
100
AcDbLine
 10
-0.3
 20
0.0
 30
0.0
 11
-0.3
 21
-0.0098425197
 31
0.0
  0
LINE
  5
242
330
230
100
AcDbEntity
  8
0
  6
Continuous
 62
     0
370
     0
100
AcDbLine
 10
-0.3
 20
0.0
 30
0.0
 11
-0.2901574803
 21
0.0
 31
0.0
  0
LINE
  5
243
330
230
100
AcDbEntity
  8
0
  6
Continuous
 62
     0
370
     0
100
AcDbLine
 10
-0.3
 20
-0.0196850394
 30
0.0
 11
-0.3
 21
-0.0264425197
 31
0.0
  0
LINE
  5
244
330
230
100
AcDbEntity
  8
0
  6
Continuous
 62
     0
370
     0
100
AcDbLine
 10
-0.3
 20
1.925
 30
0.0
 11
-0.3
 21
1.9348425197
 31
0.0
  0
LINE
  5
245
330
230
100
AcDbEntity
  8
0
  6
Continuous
 62
     0
370
     0
100
AcDbLine
 10
-0.3
 20
1.925
 30
0.0
 11
-0.3098425197
 21
1.925
 31
0.0
  0
LINE
  5
246
330
230
100
AcDbEntity
  8
0
  6
Continuous
 62
     0
370
     0
100
AcDbLine
 10
-0.3
 20
1.925
 30
0.0
 11
-0.3
 21
1.9151574803
 31
0.0
  0
LINE
  5
247
330
230
100
AcDbEntity
  8
0
  6
Continuous
 62
     0
370
     0
100
AcDbLine
 10
-0.3
 20
1.925
 30
0.0
 11
-0.2901574803
 21
1.925
 31
0.0
  0
LINE
  5
248
330
230
100
AcDbEntity
  8
0
  6
Continuous
 62
     0
370
     0
100
AcDbLine
 10
-0.3
 20
1.9446850394
 30
0.0
 11
-0.3
 21
1.9514425197
 31
0.0
  0
LINE
  5
249
330
230
100
AcDbEntity
  8
0
  6
Continuous
 62
     0
370
     0
100
AcDbLine
 10
-0.6
 20
0.0
 30
0.0
 11
-0.6
 21
0.0098425197
 31
0.0
  0
LINE
  5
24A
330
230
100
AcDbEntity
  8
0
  6
Continuous
 62
     0
370
     0
100
AcDbLine
 10
-0.6
 20
0.0
 30
0.0
 11
-0.6098425197
 21
0.0
 31
0.0
  0
LINE
  5
24B
330
230
100
AcDbEntity
  8
0
  6
Continuous
 62
     0
370
     0
100
AcDbLine
 10
-0.6
 20
0.0
 30
0.0
 11
-0.6
 21
-0.0098425197
 31
0.0
  0
LINE
  5
24C
330
230
100
AcDbEntity
  8
0
  6
Continuous
 62
     0
370
     0
100
AcDbLine
 10
-0.6
 20
0.0
 30
0.0
 11
-0.5901574803
 21
0.0
 31
0.0
  0
LINE
  5
24D
330
230
100
AcDbEntity
  8
0
  6
Continuous
 62
     0
370
     0
100
AcDbLine
 10
-0.6
 20
-0.0196850394
 30
0.0
 11
-0.6
 21
-0.0264425197
 31
0.0
  0
LINE
  5
24E
330
230
100
AcDbEntity
  8
0
  6
Continuous
 62
     0
370
     0
100
AcDbLine
 10
-0.9
 20
0.0
 30
0.0
 11
-0.9
 21
0.0098425197
 31
0.0
  0
LINE
  5
24F
330
230
100
AcDbEntity
  8
0
  6
Continuous
 62
     0
370
     0
100
AcDbLine
 10
-0.9
 20
0.0
 30
0.0
 11
-0.9098425197
 21
0.0
 31
0.0
  0
LINE
  5
250
330
230
100
AcDbEntity
  8
0
  6
Continuous
 62
     0
370
     0
100
AcDbLine
 10
-0.9
 20
0.0
 30
0.0
 11
-0.9
 21
-0.0098425197
 31
0.0
  0
LINE
  5
251
330
230
100
AcDbEntity
  8
0
  6
Continuous
 62
     0
370
     0
100
AcDbLine
 10
-0.9
 20
0.0
 30
0.0
 11
-0.8901574803
 21
0.0
 31
0.0
  0
LINE
  5
252
330
230
100
AcDbEntity
  8
0
  6
Continuous
 62
     0
370
     0
100
AcDbLine
 10
-0.9
 20
-0.0196850394
 30
0.0
 11
-0.9
 21
-0.0264425197
 31
0.0
  0
LINE
  5
253
330
230
100
AcDbEntity
  8
0
  6
Continuous
 62
     0
370
     0
100
AcDbLine
 10
-1.2
 20
0.0
 30
0.0
 11
-1.2
 21
0.0098425197
 31
0.0
  0
LINE
  5
254
330
230
100
AcDbEntity
  8
0
  6
Continuous
 62
     0
370
     0
100
AcDbLine
 10
-1.2
 20
0.0
 30
0.0
 11
-1.2098425197
 21
0.0
 31
0.0
  0
LINE
  5
255
330
230
100
AcDbEntity
  8
0
  6
Continuous
 62
     0
370
     0
100
AcDbLine
 10
-1.2
 20
0.0
 30
0.0
 11
-1.2
 21
-0.0098425197
 31
0.0
  0
LINE
  5
256
330
230
100
AcDbEntity
  8
0
  6
Continuous
 62
     0
370
     0
100
AcDbLine
 10
-1.2
 20
0.0
 30
0.0
 11
-1.1901574803
 21
0.0
 31
0.0
  0
LINE
  5
257
330
230
100
AcDbEntity
  8
0
  6
Continuous
 62
     0
370
     0
100
AcDbLine
 10
-1.2
 20
-0.0196850394
 30
0.0
 11
-1.2
 21
-0.0264425197
 31
0.0
  0
LINE
  5
258
330
230
100
AcDbEntity
  8
0
  6
Continuous
 62
     0
370
     0
100
AcDbLine
 10
-1.5
 20
0.0
 30
0.0
 11
-1.5
 21
0.0098425197
 31
0.0
  0
LINE
  5
259
330
230
100
AcDbEntity
  8
0
  6
Continuous
 62
     0
370
     0
100
AcDbLine
 10
-1.5
 20
0.0
 30
0.0
 11
-1.5098425197
 21
0.0
 31
0.0
  0
LINE
  5
25A
330
230
100
AcDbEntity
  8
0
  6
Continuous
 62
     0
370
     0
100
AcDbLine
 10
-1.5
 20
0.0
 30
0.0
 11
-1.5
 21
-0.0098425197
 31
0.0
  0
LINE
  5
25B
330
230
100
AcDbEntity
  8
0
  6
Continuous
 62
     0
370
     0
100
AcDbLine
 10
-1.5
 20
0.0
 30
0.0
 11
-1.4901574803
 21
0.0
 31
0.0
  0
LINE
  5
25C
330
230
100
AcDbEntity
  8
0
  6
Continuous
 62
     0
370
     0
100
AcDbLine
 10
-1.5
 20
-0.0196850394
 30
0.0
 11
-1.5
 21
-0.0264425197
 31
0.0
  0
LINE
  5
25D
330
230
100
AcDbEntity
  8
0
  6
Continuous
 62
     0
370
     0
100
AcDbLine
 10
-1.8
 20
0.0
 30
0.0
 11
-1.8
 21
0.0098425197
 31
0.0
  0
LINE
  5
25E
330
230
100
AcDbEntity
  8
0
  6
Continuous
 62
     0
370
     0
100
AcDbLine
 10
-1.8
 20
0.0
 30
0.0
 11
-1.8098425197
 21
0.0
 31
0.0
  0
LINE
  5
25F
330
230
100
AcDbEntity
  8
0
  6
Continuous
 62
     0
370
     0
100
AcDbLine
 10
-1.8
 20
0.0
 30
0.0
 11
-1.8
 21
-0.0098425197
 31
0.0
  0
LINE
  5
260
330
230
100
AcDbEntity
  8
0
  6
Continuous
 62
     0
370
     0
100
AcDbLine
 10
-1.8
 20
0.0
 30
0.0
 11
-1.7901574803
 21
0.0
 31
0.0
  0
LINE
  5
261
330
230
100
AcDbEntity
  8
0
  6
Continuous
 62
     0
370
     0
100
AcDbLine
 10
-1.8
 20
-0.0196850394
 30
0.0
 11
-1.8
 21
-0.0264425197
 31
0.0
  0
LINE
  5
262
330
230
100
AcDbEntity
  8
0
  6
Continuous
 62
     0
370
     0
100
AcDbLine
 10
-2.1
 20
0.0
 30
0.0
 11
-2.1
 21
0.0098425197
 31
0.0
  0
LINE
  5
263
330
230
100
AcDbEntity
  8
0
  6
Continuous
 62
     0
370
     0
100
AcDbLine
 10
-2.1
 20
0.0
 30
0.0
 11
-2.1098425197
 21
0.0
 31
0.0
  0
LINE
  5
264
330
230
100
AcDbEntity
  8
0
  6
Continuous
 62
     0
370
     0
100
AcDbLine
 10
-2.1
 20
0.0
 30
0.0
 11
-2.1
 21
-0.0098425197
 31
0.0
  0
LINE
  5
265
330
230
100
AcDbEntity
  8
0
  6
Continuous
 62
     0
370
     0
100
AcDbLine
 10
-2.1
 20
0.0
 30
0.0
 11
-2.0901574803
 21
0.0
 31
0.0
  0
LINE
  5
266
330
230
100
AcDbEntity
  8
0
  6
Continuous
 62
     0
370
     0
100
AcDbLine
 10
-2.1
 20
-0.0196850394
 30
0.0
 11
-2.1
 21
-0.0264425197
 31
0.0
  0
LINE
  5
267
330
230
100
AcDbEntity
  8
0
  6
Continuous
 62
     0
370
     0
100
AcDbLine
 10
-2.4
 20
0.0
 30
0.0
 11
-2.4
 21
0.0098425197
 31
0.0
  0
LINE
  5
268
330
230
100
AcDbEntity
  8
0
  6
Continuous
 62
     0
370
     0
100
AcDbLine
 10
-2.4
 20
0.0
 30
0.0
 11
-2.4098425197
 21
0.0
 31
0.0
  0
LINE
  5
269
330
230
100
AcDbEntity
  8
0
  6
Continuous
 62
     0
370
     0
100
AcDbLine
 10
-2.4
 20
0.0
 30
0.0
 11
-2.4
 21
-0.0098425197
 31
0.0
  0
LINE
  5
26A
330
230
100
AcDbEntity
  8
0
  6
Continuous
 62
     0
370
     0
100
AcDbLine
 10
-2.4
 20
0.0
 30
0.0
 11
-2.3901574803
 21
0.0
 31
0.0
  0
LINE
  5
26B
330
230
100
AcDbEntity
  8
0
  6
Continuous
 62
     0
370
     0
100
AcDbLine
 10
-2.4
 20
-0.0196850394
 30
0.0
 11
-2.4
 21
-0.0264425197
 31
0.0
  0
LINE
  5
26C
330
230
100
AcDbEntity
  8
0
  6
Continuous
 62
     0
370
     0
100
AcDbLine
 10
-2.7
 20
0.0
 30
0.0
 11
-2.7
 21
0.0098425197
 31
0.0
  0
LINE
  5
26D
330
230
100
AcDbEntity
  8
0
  6
Continuous
 62
     0
370
     0
100
AcDbLine
 10
-2.7
 20
0.0
 30
0.0
 11
-2.7098425197
 21
0.0
 31
0.0
  0
LINE
  5
26E
330
230
100
AcDbEntity
  8
0
  6
Continuous
 62
     0
370
     0
100
AcDbLine
 10
-2.7
 20
0.0
 30
0.0
 11
-2.7
 21
-0.0098425197
 31
0.0
  0
LINE
  5
26F
330
230
100
AcDbEntity
  8
0
  6
Continuous
 62
     0
370
     0
100
AcDbLine
 10
-2.7
 20
0.0
 30
0.0
 11
-2.6901574803
 21
0.0
 31
0.0
  0
LINE
  5
270
330
230
100
AcDbEntity
  8
0
  6
Continuous
 62
     0
370
     0
100
AcDbLine
 10
-2.7
 20
-0.0196850394
 30
0.0
 11
-2.7
 21
-0.0264425197
 31
0.0
  0
LINE
  5
271
330
230
100
AcDbEntity
  8
0
  6
Continuous
 62
     0
370
     0
100
AcDbLine
 10
-3.0
 20
0.0
 30
0.0
 11
-3.0
 21
0.0098425197
 31
0.0
  0
LINE
  5
272
330
230
100
AcDbEntity
  8
0
  6
Continuous
 62
     0
370
     0
100
AcDbLine
 10
-3.0
 20
0.0
 30
0.0
 11
-3.0098425197
 21
0.0
 31
0.0
  0
LINE
  5
273
330
230
100
AcDbEntity
  8
0
  6
Continuous
 62
     0
370
     0
100
AcDbLine
 10
-3.0
 20
0.0
 30
0.0
 11
-3.0
 21
-0.0098425197
 31
0.0
  0
LINE
  5
274
330
230
100
AcDbEntity
  8
0
  6
Continuous
 62
     0
370
     0
100
AcDbLine
 10
-3.0
 20
0.0
 30
0.0
 11
-2.9901574803
 21
0.0
 31
0.0
  0
LINE
  5
275
330
230
100
AcDbEntity
  8
0
  6
Continuous
 62
     0
370
     0
100
AcDbLine
 10
-3.0
 20
-0.0196850394
 30
0.0
 11
-3.0
 21
-0.0264425197
 31
0.0
  0
LINE
  5
276
330
230
100
AcDbEntity
  8
0
  6
Continuous
 62
     0
370
     0
100
AcDbLine
 10
-3.3
 20
0.0
 30
0.0
 11
-3.3
 21
0.0098425197
 31
0.0
  0
LINE
  5
277
330
230
100
AcDbEntity
  8
0
  6
Continuous
 62
     0
370
     0
100
AcDbLine
 10
-3.3
 20
0.0
 30
0.0
 11
-3.3098425197
 21
0.0
 31
0.0
  0
LINE
  5
278
330
230
100
AcDbEntity
  8
0
  6
Continuous
 62
     0
370
     0
100
AcDbLine
 10
-3.3
 20
0.0
 30
0.0
 11
-3.3
 21
-0.0098425197
 31
0.0
  0
LINE
  5
279
330
230
100
AcDbEntity
  8
0
  6
Continuous
 62
     0
370
     0
100
AcDbLine
 10
-3.3
 20
0.0
 30
0.0
 11
-3.2901574803
 21
0.0
 31
0.0
  0
LINE
  5
27A
330
230
100
AcDbEntity
  8
0
  6
Continuous
 62
     0
370
     0
100
AcDbLine
 10
-3.3196850394
 20
0.0
 30
0.0
 11
-3.3264425197
 21
0.0
 31
0.0
  0
LINE
  5
27B
330
230
100
AcDbEntity
  8
0
  6
Continuous
 62
     0
370
     0
100
AcDbLine
 10
-3.3
 20
-0.0196850394
 30
0.0
 11
-3.3
 21
-0.0264425197
 31
0.0
  0
LINE
  5
27C
330
230
100
AcDbEntity
  8
0
  6
Continuous
 62
     0
370
     0
100
AcDbLine
 10
-0.6
 20
1.925
 30
0.0
 11
-0.6
 21
1.9348425197
 31
0.0
  0
LINE
  5
27D
330
230
100
AcDbEntity
  8
0
  6
Continuous
 62
     0
370
     0
100
AcDbLine
 10
-0.6
 20
1.925
 30
0.0
 11
-0.6098425197
 21
1.925
 31
0.0
  0
LINE
  5
27E
330
230
100
AcDbEntity
  8
0
  6
Continuous
 62
     0
370
     0
100
AcDbLine
 10
-0.6
 20
1.925
 30
0.0
 11
-0.6
 21
1.9151574803
 31
0.0
  0
LINE
  5
27F
330
230
100
AcDbEntity
  8
0
  6
Continuous
 62
     0
370
     0
100
AcDbLine
 10
-0.6
 20
1.925
 30
0.0
 11
-0.5901574803
 21
1.925
 31
0.0
  0
LINE
  5
280
330
230
100
AcDbEntity
  8
0
  6
Continuous
 62
     0
370
     0
100
AcDbLine
 10
-0.6
 20
1.9446850394
 30
0.0
 11
-0.6
 21
1.9514425197
 31
0.0
  0
LINE
  5
281
330
230
100
AcDbEntity
  8
0
  6
Continuous
 62
     0
370
     0
100
AcDbLine
 10
-0.9
 20
1.925
 30
0.0
 11
-0.9
 21
1.9348425197
 31
0.0
  0
LINE
  5
282
330
230
100
AcDbEntity
  8
0
  6
Continuous
 62
     0
370
     0
100
AcDbLine
 10
-0.9
 20
1.925
 30
0.0
 11
-0.9098425197
 21
1.925
 31
0.0
  0
LINE
  5
283
330
230
100
AcDbEntity
  8
0
  6
Continuous
 62
     0
370
     0
100
AcDbLine
 10
-0.9
 20
1.925
 30
0.0
 11
-0.9
 21
1.9151574803
 31
0.0
  0
LINE
  5
284
330
230
100
AcDbEntity
  8
0
  6
Continuous
 62
     0
370
     0
100
AcDbLine
 10
-0.9
 20
1.925
 30
0.0
 11
-0.8901574803
 21
1.925
 31
0.0
  0
LINE
  5
285
330
230
100
AcDbEntity
  8
0
  6
Continuous
 62
     0
370
     0
100
AcDbLine
 10
-0.9
 20
1.9446850394
 30
0.0
 11
-0.9
 21
1.9514425197
 31
0.0
  0
LINE
  5
286
330
230
100
AcDbEntity
  8
0
  6
Continuous
 62
     0
370
     0
100
AcDbLine
 10
-1.2
 20
1.925
 30
0.0
 11
-1.2
 21
1.9348425197
 31
0.0
  0
LINE
  5
287
330
230
100
AcDbEntity
  8
0
  6
Continuous
 62
     0
370
     0
100
AcDbLine
 10
-1.2
 20
1.925
 30
0.0
 11
-1.2098425197
 21
1.925
 31
0.0
  0
LINE
  5
288
330
230
100
AcDbEntity
  8
0
  6
Continuous
 62
     0
370
     0
100
AcDbLine
 10
-1.2
 20
1.925
 30
0.0
 11
-1.2
 21
1.9151574803
 31
0.0
  0
LINE
  5
289
330
230
100
AcDbEntity
  8
0
  6
Continuous
 62
     0
370
     0
100
AcDbLine
 10
-1.2
 20
1.925
 30
0.0
 11
-1.1901574803
 21
1.925
 31
0.0
  0
LINE
  5
28A
330
230
100
AcDbEntity
  8
0
  6
Continuous
 62
     0
370
     0
100
AcDbLine
 10
-1.2
 20
1.9446850394
 30
0.0
 11
-1.2
 21
1.9514425197
 31
0.0
  0
LINE
  5
28B
330
230
100
AcDbEntity
  8
0
  6
Continuous
 62
     0
370
     0
100
AcDbLine
 10
-1.5
 20
1.925
 30
0.0
 11
-1.5
 21
1.9348425197
 31
0.0
  0
LINE
  5
28C
330
230
100
AcDbEntity
  8
0
  6
Continuous
 62
     0
370
     0
100
AcDbLine
 10
-1.5
 20
1.925
 30
0.0
 11
-1.5098425197
 21
1.925
 31
0.0
  0
LINE
  5
28D
330
230
100
AcDbEntity
  8
0
  6
Continuous
 62
     0
370
     0
100
AcDbLine
 10
-1.5
 20
1.925
 30
0.0
 11
-1.5
 21
1.9151574803
 31
0.0
  0
LINE
  5
28E
330
230
100
AcDbEntity
  8
0
  6
Continuous
 62
     0
370
     0
100
AcDbLine
 10
-1.5
 20
1.925
 30
0.0
 11
-1.4901574803
 21
1.925
 31
0.0
  0
LINE
  5
28F
330
230
100
AcDbEntity
  8
0
  6
Continuous
 62
     0
370
     0
100
AcDbLine
 10
-1.5
 20
1.9446850394
 30
0.0
 11
-1.5
 21
1.9514425197
 31
0.0
  0
LINE
  5
290
330
230
100
AcDbEntity
  8
0
  6
Continuous
 62
     0
370
     0
100
AcDbLine
 10
-1.8
 20
1.925
 30
0.0
 11
-1.8
 21
1.9348425197
 31
0.0
  0
LINE
  5
291
330
230
100
AcDbEntity
  8
0
  6
Continuous
 62
     0
370
     0
100
AcDbLine
 10
-1.8
 20
1.925
 30
0.0
 11
-1.8098425197
 21
1.925
 31
0.0
  0
LINE
  5
292
330
230
100
AcDbEntity
  8
0
  6
Continuous
 62
     0
370
     0
100
AcDbLine
 10
-1.8
 20
1.925
 30
0.0
 11
-1.8
 21
1.9151574803
 31
0.0
  0
LINE
  5
293
330
230
100
AcDbEntity
  8
0
  6
Continuous
 62
     0
370
     0
100
AcDbLine
 10
-1.8
 20
1.925
 30
0.0
 11
-1.7901574803
 21
1.925
 31
0.0
  0
LINE
  5
294
330
230
100
AcDbEntity
  8
0
  6
Continuous
 62
     0
370
     0
100
AcDbLine
 10
-1.8
 20
1.9446850394
 30
0.0
 11
-1.8
 21
1.9514425197
 31
0.0
  0
LINE
  5
295
330
230
100
AcDbEntity
  8
0
  6
Continuous
 62
     0
370
     0
100
AcDbLine
 10
-2.1
 20
1.925
 30
0.0
 11
-2.1
 21
1.9348425197
 31
0.0
  0
LINE
  5
296
330
230
100
AcDbEntity
  8
0
  6
Continuous
 62
     0
370
     0
100
AcDbLine
 10
-2.1
 20
1.925
 30
0.0
 11
-2.1098425197
 21
1.925
 31
0.0
  0
LINE
  5
297
330
230
100
AcDbEntity
  8
0
  6
Continuous
 62
     0
370
     0
100
AcDbLine
 10
-2.1
 20
1.925
 30
0.0
 11
-2.1
 21
1.9151574803
 31
0.0
  0
LINE
  5
298
330
230
100
AcDbEntity
  8
0
  6
Continuous
 62
     0
370
     0
100
AcDbLine
 10
-2.1
 20
1.925
 30
0.0
 11
-2.0901574803
 21
1.925
 31
0.0
  0
LINE
  5
299
330
230
100
AcDbEntity
  8
0
  6
Continuous
 62
     0
370
     0
100
AcDbLine
 10
-2.1
 20
1.9446850394
 30
0.0
 11
-2.1
 21
1.9514425197
 31
0.0
  0
LINE
  5
29A
330
230
100
AcDbEntity
  8
0
  6
Continuous
 62
     0
370
     0
100
AcDbLine
 10
-2.4
 20
1.925
 30
0.0
 11
-2.4
 21
1.9348425197
 31
0.0
  0
LINE
  5
29B
330
230
100
AcDbEntity
  8
0
  6
Continuous
 62
     0
370
     0
100
AcDbLine
 10
-2.4
 20
1.925
 30
0.0
 11
-2.4098425197
 21
1.925
 31
0.0
  0
LINE
  5
29C
330
230
100
AcDbEntity
  8
0
  6
Continuous
 62
     0
370
     0
100
AcDbLine
 10
-2.4
 20
1.925
 30
0.0
 11
-2.4
 21
1.9151574803
 31
0.0
  0
LINE
  5
29D
330
230
100
AcDbEntity
  8
0
  6
Continuous
 62
     0
370
     0
100
AcDbLine
 10
-2.4
 20
1.925
 30
0.0
 11
-2.3901574803
 21
1.925
 31
0.0
  0
LINE
  5
29E
330
230
100
AcDbEntity
  8
0
  6
Continuous
 62
     0
370
     0
100
AcDbLine
 10
-2.4
 20
1.9446850394
 30
0.0
 11
-2.4
 21
1.9514425197
 31
0.0
  0
LINE
  5
29F
330
230
100
AcDbEntity
  8
0
  6
Continuous
 62
     0
370
     0
100
AcDbLine
 10
-2.7
 20
1.925
 30
0.0
 11
-2.7
 21
1.9348425197
 31
0.0
  0
LINE
  5
2A0
330
230
100
AcDbEntity
  8
0
  6
Continuous
 62
     0
370
     0
100
AcDbLine
 10
-2.7
 20
1.925
 30
0.0
 11
-2.7098425197
 21
1.925
 31
0.0
  0
LINE
  5
2A1
330
230
100
AcDbEntity
  8
0
  6
Continuous
 62
     0
370
     0
100
AcDbLine
 10
-2.7
 20
1.925
 30
0.0
 11
-2.7
 21
1.9151574803
 31
0.0
  0
LINE
  5
2A2
330
230
100
AcDbEntity
  8
0
  6
Continuous
 62
     0
370
     0
100
AcDbLine
 10
-2.7
 20
1.925
 30
0.0
 11
-2.6901574803
 21
1.925
 31
0.0
  0
LINE
  5
2A3
330
230
100
AcDbEntity
  8
0
  6
Continuous
 62
     0
370
     0
100
AcDbLine
 10
-2.7
 20
1.9446850394
 30
0.0
 11
-2.7
 21
1.9514425197
 31
0.0
  0
LINE
  5
2A4
330
230
100
AcDbEntity
  8
0
  6
Continuous
 62
     0
370
     0
100
AcDbLine
 10
-3.0
 20
1.925
 30
0.0
 11
-3.0
 21
1.9348425197
 31
0.0
  0
LINE
  5
2A5
330
230
100
AcDbEntity
  8
0
  6
Continuous
 62
     0
370
     0
100
AcDbLine
 10
-3.0
 20
1.925
 30
0.0
 11
-3.0098425197
 21
1.925
 31
0.0
  0
LINE
  5
2A6
330
230
100
AcDbEntity
  8
0
  6
Continuous
 62
     0
370
     0
100
AcDbLine
 10
-3.0
 20
1.925
 30
0.0
 11
-3.0
 21
1.9151574803
 31
0.0
  0
LINE
  5
2A7
330
230
100
AcDbEntity
  8
0
  6
Continuous
 62
     0
370
     0
100
AcDbLine
 10
-3.0
 20
1.925
 30
0.0
 11
-2.9901574803
 21
1.925
 31
0.0
  0
LINE
  5
2A8
330
230
100
AcDbEntity
  8
0
  6
Continuous
 62
     0
370
     0
100
AcDbLine
 10
-3.0
 20
1.9446850394
 30
0.0
 11
-3.0
 21
1.9514425197
 31
0.0
  0
LINE
  5
2A9
330
230
100
AcDbEntity
  8
0
  6
Continuous
 62
     0
370
     0
100
AcDbLine
 10
-3.3
 20
1.925
 30
0.0
 11
-3.3
 21
1.9348425197
 31
0.0
  0
LINE
  5
2AA
330
230
100
AcDbEntity
  8
0
  6
Continuous
 62
     0
370
     0
100
AcDbLine
 10
-3.3
 20
1.925
 30
0.0
 11
-3.3098425197
 21
1.925
 31
0.0
  0
LINE
  5
2AB
330
230
100
AcDbEntity
  8
0
  6
Continuous
 62
     0
370
     0
100
AcDbLine
 10
-3.3
 20
1.925
 30
0.0
 11
-3.3
 21
1.9151574803
 31
0.0
  0
LINE
  5
2AC
330
230
100
AcDbEntity
  8
0
  6
Continuous
 62
     0
370
     0
100
AcDbLine
 10
-3.3
 20
1.925
 30
0.0
 11
-3.2901574803
 21
1.925
 31
0.0
  0
LINE
  5
2AD
330
230
100
AcDbEntity
  8
0
  6
Continuous
 62
     0
370
     0
100
AcDbLine
 10
-3.3
 20
1.9446850394
 30
0.0
 11
-3.3
 21
1.9514425197
 31
0.0
  0
LINE
  5
2AE
330
230
100
AcDbEntity
  8
0
  6
Continuous
 62
     0
370
     0
100
AcDbLine
 10
-3.3196850394
 20
1.925
 30
0.0
 11
-3.3264425197
 21
1.925
 31
0.0
  0
LINE
  5
2AF
330
230
100
AcDbEntity
  8
0
  6
CENTERX2
 62
     0
370
     0
100
AcDbLine
 10
0.0
 20
0.0196850394
 30
0.0
 11
0.0
 21
1.9053149606
 31
0.0
  0
LINE
  5
2B0
330
230
100
AcDbEntity
  8
0
  6
CENTERX2
 62
     0
370
     0
100
AcDbLine
 10
-0.2803149606
 20
0.0
 30
0.0
 11
-0.0196850394
 21
0.0
 31
0.0
  0
LINE
  5
2B1
330
230
100
AcDbEntity
  8
0
  6
CENTERX2
 62
     0
370
     0
100
AcDbLine
 10
-0.2803149606
 20
1.925
 30
0.0
 11
-0.0196850394
 21
1.925
 31
0.0
  0
LINE
  5
2B2
330
230
100
AcDbEntity
  8
0
  6
CENTERX2
 62
     0
370
     0
100
AcDbLine
 10
-0.3
 20
0.0196850394
 30
0.0
 11
-0.3
 21
1.9053149606
 31
0.0
  0
LINE
  5
2B3
330
230
100
AcDbEntity
  8
0
  6
CENTERX2
 62
     0
370
     0
100
AcDbLine
 10
-0.5803149606
 20
0.0
 30
0.0
 11
-0.3196850394
 21
0.0
 31
0.0
  0
LINE
  5
2B4
330
230
100
AcDbEntity
  8
0
  6
CENTERX2
 62
     0
370
     0
100
AcDbLine
 10
-0.8803149606
 20
0.0
 30
0.0
 11
-0.6196850394
 21
0.0
 31
0.0
  0
LINE
  5
2B5
330
230
100
AcDbEntity
  8
0
  6
CENTERX2
 62
     0
370
     0
100
AcDbLine
 10
-1.1803149606
 20
0.0
 30
0.0
 11
-0.9196850394
 21
0.0
 31
0.0
  0
LINE
  5
2B6
330
230
100
AcDbEntity
  8
0
  6
CENTERX2
 62
     0
370
     0
100
AcDbLine
 10
-1.4803149606
 20
0.0
 30
0.0
 11
-1.2196850394
 21
0.0
 31
0.0
  0
LINE
  5
2B7
330
230
100
AcDbEntity
  8
0
  6
CENTERX2
 62
     0
370
     0
100
AcDbLine
 10
-1.7803149606
 20
0.0
 30
0.0
 11
-1.5196850394
 21
0.0
 31
0.0
  0
LINE
  5
2B8
330
230
100
AcDbEntity
  8
0
  6
CENTERX2
 62
     0
370
     0
100
AcDbLine
 10
-2.0803149606
 20
0.0
 30
0.0
 11
-1.8196850394
 21
0.0
 31
0.0
  0
LINE
  5
2B9
330
230
100
AcDbEntity
  8
0
  6
CENTERX2
 62
     0
370
     0
100
AcDbLine
 10
-2.3803149606
 20
0.0
 30
0.0
 11
-2.1196850394
 21
0.0
 31
0.0
  0
LINE
  5
2BA
330
230
100
AcDbEntity
  8
0
  6
CENTERX2
 62
     0
370
     0
100
AcDbLine
 10
-2.6803149606
 20
0.0
 30
0.0
 11
-2.4196850394
 21
0.0
 31
0.0
  0
LINE
  5
2BB
330
230
100
AcDbEntity
  8
0
  6
CENTERX2
 62
     0
370
     0
100
AcDbLine
 10
-2.9803149606
 20
0.0
 30
0.0
 11
-2.7196850394
 21
0.0
 31
0.0
  0
LINE
  5
2BC
330
230
100
AcDbEntity
  8
0
  6
CENTERX2
 62
     0
370
     0
100
AcDbLine
 10
-3.2803149606
 20
0.0
 30
0.0
 11
-3.0196850394
 21
0.0
 31
0.0
  0
LINE
  5
2BD
330
230
100
AcDbEntity
  8
0
  6
CENTERX2
 62
     0
370
     0
100
AcDbLine
 10
-0.5803149606
 20
1.925
 30
0.0
 11
-0.3196850394
 21
1.925
 31
0.0
  0
LINE
  5
2BE
330
230
100
AcDbEntity
  8
0
  6
CENTERX2
 62
     0
370
     0
100
AcDbLine
 10
-0.6
 20
0.0196850394
 30
0.0
 11
-0.6
 21
1.9053149606
 31
0.0
  0
LINE
  5
2BF
330
230
100
AcDbEntity
  8
0
  6
CENTERX2
 62
     0
370
     0
100
AcDbLine
 10
-0.8803149606
 20
1.925
 30
0.0
 11
-0.6196850394
 21
1.925
 31
0.0
  0
LINE
  5
2C0
330
230
100
AcDbEntity
  8
0
  6
CENTERX2
 62
     0
370
     0
100
AcDbLine
 10
-0.9
 20
0.0196850394
 30
0.0
 11
-0.9
 21
1.9053149606
 31
0.0
  0
LINE
  5
2C1
330
230
100
AcDbEntity
  8
0
  6
CENTERX2
 62
     0
370
     0
100
AcDbLine
 10
-1.1803149606
 20
1.925
 30
0.0
 11
-0.9196850394
 21
1.925
 31
0.0
  0
LINE
  5
2C2
330
230
100
AcDbEntity
  8
0
  6
CENTERX2
 62
     0
370
     0
100
AcDbLine
 10
-1.2
 20
0.0196850394
 30
0.0
 11
-1.2
 21
1.9053149606
 31
0.0
  0
LINE
  5
2C3
330
230
100
AcDbEntity
  8
0
  6
CENTERX2
 62
     0
370
     0
100
AcDbLine
 10
-1.4803149606
 20
1.925
 30
0.0
 11
-1.2196850394
 21
1.925
 31
0.0
  0
LINE
  5
2C4
330
230
100
AcDbEntity
  8
0
  6
CENTERX2
 62
     0
370
     0
100
AcDbLine
 10
-1.5
 20
0.0196850394
 30
0.0
 11
-1.5
 21
1.9053149606
 31
0.0
  0
LINE
  5
2C5
330
230
100
AcDbEntity
  8
0
  6
CENTERX2
 62
     0
370
     0
100
AcDbLine
 10
-1.7803149606
 20
1.925
 30
0.0
 11
-1.5196850394
 21
1.925
 31
0.0
  0
LINE
  5
2C6
330
230
100
AcDbEntity
  8
0
  6
CENTERX2
 62
     0
370
     0
100
AcDbLine
 10
-1.8
 20
0.0196850394
 30
0.0
 11
-1.8
 21
1.9053149606
 31
0.0
  0
LINE
  5
2C7
330
230
100
AcDbEntity
  8
0
  6
CENTERX2
 62
     0
370
     0
100
AcDbLine
 10
-2.0803149606
 20
1.925
 30
0.0
 11
-1.8196850394
 21
1.925
 31
0.0
  0
LINE
  5
2C8
330
230
100
AcDbEntity
  8
0
  6
CENTERX2
 62
     0
370
     0
100
AcDbLine
 10
-2.1
 20
0.0196850394
 30
0.0
 11
-2.1
 21
1.9053149606
 31
0.0
  0
LINE
  5
2C9
330
230
100
AcDbEntity
  8
0
  6
CENTERX2
 62
     0
370
     0
100
AcDbLine
 10
-2.3803149606
 20
1.925
 30
0.0
 11
-2.1196850394
 21
1.925
 31
0.0
  0
LINE
  5
2CA
330
230
100
AcDbEntity
  8
0
  6
CENTERX2
 62
     0
370
     0
100
AcDbLine
 10
-2.4
 20
0.0196850394
 30
0.0
 11
-2.4
 21
1.9053149606
 31
0.0
  0
LINE
  5
2CB
330
230
100
AcDbEntity
  8
0
  6
CENTERX2
 62
     0
370
     0
100
AcDbLine
 10
-2.6803149606
 20
1.925
 30
0.0
 11
-2.4196850394
 21
1.925
 31
0.0
  0
LINE
  5
2CC
330
230
100
AcDbEntity
  8
0
  6
CENTERX2
 62
     0
370
     0
100
AcDbLine
 10
-2.7
 20
0.0196850394
 30
0.0
 11
-2.7
 21
1.9053149606
 31
0.0
  0
LINE
  5
2CD
330
230
100
AcDbEntity
  8
0
  6
CENTERX2
 62
     0
370
     0
100
AcDbLine
 10
-2.9803149606
 20
1.925
 30
0.0
 11
-2.7196850394
 21
1.925
 31
0.0
  0
LINE
  5
2CE
330
230
100
AcDbEntity
  8
0
  6
CENTERX2
 62
     0
370
     0
100
AcDbLine
 10
-3.0
 20
0.0196850394
 30
0.0
 11
-3.0
 21
1.9053149606
 31
0.0
  0
LINE
  5
2CF
330
230
100
AcDbEntity
  8
0
  6
CENTERX2
 62
     0
370
     0
100
AcDbLine
 10
-3.2803149606
 20
1.925
 30
0.0
 11
-3.0196850394
 21
1.925
 31
0.0
  0
LINE
  5
2D0
330
230
100
AcDbEntity
  8
0
  6
CENTERX2
 62
     0
370
     0
100
AcDbLine
 10
-3.3
 20
0.0196850394
 30
0.0
 11
-3.3
 21
1.9053149606
 31
0.0
  0
ENDBLK
  5
232
330
230
100
AcDbEntity
  8
0
100
AcDbBlockEnd
  0
BLOCK
  5
2D8
330
2D7
100
AcDbEntity
  8
0
100
AcDbBlockBegin
  2
_D_12
 70
     0
 10
0.0
 20
0.0
 30
0.0
  3
_D_12
  1

  0
INSERT
  5
2DA
330
2D7
100
AcDbEntity
  8
0
  6
Continuous
 62
     7
370
    18
100
AcDbBlockReference
  2
_CLOSED
 10
9.0895856264
 20
7.0527625811
 30
0.0
 41
0.14
 42
0.14
 50
90.0
  0
INSERT
  5
2DB
330
2D7
100
AcDbEntity
  8
0
  6
Continuous
 62
     7
370
    18
100
AcDbBlockReference
  2
_CLOSED
 10
9.0895856264
 20
4.9777625811
 30
0.0
 41
0.14
 42
0.14
 50
270.0
  0
LINE
  5
2DC
330
2D7
100
AcDbEntity
  8
0
  6
Continuous
 62
     7
370
    18
100
AcDbLine
 10
9.3185064245
 20
7.0527625811
 30
0.0
 11
9.0502155477
 21
7.0527625811
 31
0.0
  0
LINE
  5
2DD
330
2D7
100
AcDbEntity
  8
0
  6
Continuous
 62
     7
370
    18
100
AcDbLine
 10
9.3185064245
 20
4.9777625811
 30
0.0
 11
9.0502155477
 21
4.9777625811
 31
0.0
  0
LINE
  5
2DE
330
2D7
100
AcDbEntity
  8
0
  6
Continuous
 62
     7
370
    18
100
AcDbLine
 10
9.0895856264
 20
7.0527625811
 30
0.0
 11
9.0895856264
 21
4.9777625811
 31
0.0
  0
MTEXT
  5
2DF
330
2D7
100
AcDbEntity
  8
0
  6
Continuous
 62
     7
370
    18
100
AcDbMText
 10
8.9119581888
 20
5.9022232146
 30
0.0
 40
0.1377952756
 41
0.0
 71
     1
 72
     1
  1
20.750
  7
SLDTEXTSTYLE0
 11
-7.044195017643634E-15
 21
1.0
 31
0.0
 73
     1
 44
1.0
  0
ENDBLK
  5
2D9
330
2D7
100
AcDbEntity
  8
0
100
AcDbBlockEnd
  0
BLOCK
  5
2E2
330
2E1
100
AcDbEntity
  8
0
100
AcDbBlockBegin
  2
_D_13
 70
     0
 10
0.0
 20
0.0
 30
0.0
  3
_D_13
  1

  0
INSERT
  5
2E4
330
2E1
100
AcDbEntity
  8
0
  6
Continuous
 62
     7
370
    18
100
AcDbBlockReference
  2
_CLOSED
 10
9.3578765033
 20
4.469197928
 30
0.0
 41
0.14
 42
0.14
 50
0.0
  0
INSERT
  5
2E5
330
2E1
100
AcDbEntity
  8
0
  6
Continuous
 62
     7
370
    18
100
AcDbBlockReference
  2
_CLOSED
 10
9.4578765033
 20
4.469197928
 30
0.0
 41
0.14
 42
0.14
 50
180.0
  0
LINE
  5
2E6
330
2E1
100
AcDbEntity
  8
0
  6
Continuous
 62
     7
370
    18
100
AcDbLine
 10
9.3578765033
 20
4.9383925024
 30
0.0
 11
9.3578765033
 21
4.4298278493
 31
0.0
  0
LINE
  5
2E7
330
2E1
100
AcDbEntity
  8
0
  6
Continuous
 62
     7
370
    18
100
AcDbLine
 10
9.4578765033
 20
4.9383925024
 30
0.0
 11
9.4578765033
 21
4.4298278493
 31
0.0
  0
LINE
  5
2E8
330
2E1
100
AcDbEntity
  8
0
  6
Continuous
 62
     7
370
    18
100
AcDbLine
 10
9.3578765033
 20
4.469197928
 30
0.0
 11
9.1078765033
 21
4.469197928
 31
0.0
  0
LINE
  5
2E9
330
2E1
100
AcDbEntity
  8
0
  6
Continuous
 62
     7
370
    18
100
AcDbLine
 10
9.3578765033
 20
4.469197928
 30
0.0
 11
9.4578765033
 21
4.469197928
 31
0.0
  0
LINE
  5
2EA
330
2E1
100
AcDbEntity
  8
0
  6
Continuous
 62
     7
370
    18
100
AcDbLine
 10
9.4578765033
 20
4.469197928
 30
0.0
 11
10.2261066569
 21
4.469197928
 31
0.0
  0
MTEXT
  5
2EB
330
2E1
100
AcDbEntity
  8
0
  6
Continuous
 62
     7
370
    18
100
AcDbMText
 10
9.7679373464
 20
4.6468253656
 30
0.0
 40
0.1377952756
 41
0.0
 71
     1
 72
     1
  1
1.000
  7
SLDTEXTSTYLE0
 73
     1
 44
1.0
  0
ENDBLK
  5
2E3
330
2E1
100
AcDbEntity
  8
0
100
AcDbBlockEnd
  0
ENDSEC
  0
SECTION
  2
ENTITIES
  0
LINE
  5
74
330
1F
100
AcDbEntity
  8
0
  6
Continuous
 62
     7
370
    18
100
AcDbLine
 10
4.6682571288
 20
0.5
 30
0.0
 11
4.6682571288
 21
2.4643479659
 31
0.0
  0
LINE
  5
75
330
1F
100
AcDbEntity
  8
0
  6
Continuous
 62
     7
370
    18
100
AcDbLine
 10
2.6911075579
 20
2.4643479659
 30
0.0
 11
10.5
 21
2.4643479659
 31
0.0
  0
LINE
  5
76
330
1F
100
AcDbEntity
  8
0
  6
Continuous
 62
     7
370
    18
100
AcDbLine
 10
6.0452023081
 20
2.4643479659
 30
0.0
 11
6.0452023081
 21
0.5
 31
0.0
  0
LINE
  5
77
330
1F
100
AcDbEntity
  8
0
  6
Continuous
 62
     7
370
    18
100
AcDbLine
 10
7.7412800044
 20
2.4643479659
 30
0.0
 11
7.7412800044
 21
0.5
 31
0.0
  0
LINE
  5
78
330
1F
100
AcDbEntity
  8
0
  6
Continuous
 62
     7
370
    18
100
AcDbLine
 10
7.7412800044
 20
0.7128858394
 30
0.0
 11
10.5
 21
0.7128858394
 31
0.0
  0
LINE
  5
79
330
1F
100
AcDbEntity
  8
0
  6
Continuous
 62
     7
370
    18
100
AcDbLine
 10
7.7412800044
 20
1.2198630749
 30
0.0
 11
10.5
 21
1.2198630749
 31
0.0
  0
LINE
  5
7A
330
1F
100
AcDbEntity
  8
0
  6
Continuous
 62
     7
370
    18
100
AcDbLine
 10
7.7412800044
 20
2.0971972001
 30
0.0
 11
10.5
 21
2.0971972001
 31
0.0
  0
LINE
  5
7B
330
1F
100
AcDbEntity
  8
0
  6
Continuous
 62
     7
370
    18
100
AcDbLine
 10
8.136824752
 20
1.2198630749
 30
0.0
 11
8.136824752
 21
0.7128858394
 31
0.0
  0
LINE
  5
7C
330
1F
100
AcDbEntity
  8
0
  6
Continuous
 62
     7
370
    18
100
AcDbLine
 10
8.5644165176
 20
0.7128858394
 30
0.0
 11
8.5644165176
 21
0.5
 31
0.0
  0
LINE
  5
7D
330
1F
100
AcDbEntity
  8
0
  6
Continuous
 62
     7
370
    18
100
AcDbLine
 10
9.9280647045
 20
1.2198630749
 30
0.0
 11
9.9280647045
 21
0.7128858394
 31
0.0
  0
LINE
  5
7E
330
1F
100
AcDbEntity
  8
0
  6
Continuous
 62
     7
370
    18
100
AcDbLine
 10
9.5363286631
 20
0.7128858394
 30
0.0
 11
9.5363286631
 21
0.5
 31
0.0
  0
LINE
  5
7F
330
1F
100
AcDbEntity
  8
0
  6
Continuous
 62
     7
370
    18
100
AcDbLine
 10
2.6911075579
 20
0.6962748291
 30
0.0
 11
6.0452023081
 21
0.6962748291
 31
0.0
  0
LINE
  5
80
330
1F
100
AcDbEntity
  8
0
  6
Continuous
 62
     7
370
    18
100
AcDbLine
 10
6.0452023081
 20
1.9018479659
 30
0.0
 11
7.7412800044
 21
1.9018479659
 31
0.0
  0
LINE
  5
81
330
1F
100
AcDbEntity
  8
0
  6
Continuous
 62
     7
370
    18
100
AcDbLine
 10
6.0452023081
 20
2.0893479659
 30
0.0
 11
7.7412800044
 21
2.0893479659
 31
0.0
  0
LINE
  5
82
330
1F
100
AcDbEntity
  8
0
  6
Continuous
 62
     7
370
    18
100
AcDbLine
 10
6.0452023081
 20
2.2768479659
 30
0.0
 11
7.7412800044
 21
2.2768479659
 31
0.0
  0
LINE
  5
83
330
1F
100
AcDbEntity
  8
0
  6
Continuous
 62
     7
370
    18
100
AcDbLine
 10
7.7412800044
 20
1.3393479659
 30
0.0
 11
6.0497082514
 21
1.3393479659
 31
0.0
  0
LINE
  5
84
330
1F
100
AcDbEntity
  8
0
  6
Continuous
 62
     7
370
    18
100
AcDbLine
 10
7.2622310388
 20
2.4643479659
 30
0.0
 11
7.2622310388
 21
1.3393479659
 31
0.0
  0
LINE
  5
85
330
1F
100
AcDbEntity
  8
0
  6
Continuous
 62
     7
370
    18
100
AcDbLine
 10
6.7937038342
 20
2.4643479659
 30
0.0
 11
6.7937038342
 21
1.3393479659
 31
0.0
  0
LINE
  5
86
330
1F
100
AcDbEntity
  8
0
  6
Continuous
 62
     7
370
    18
100
AcDbLine
 10
4.6682571288
 20
0.9637233598
 30
0.0
 11
6.0452023081
 21
0.9637233598
 31
0.0
  0
LINE
  5
87
330
1F
100
AcDbEntity
  8
0
  6
Continuous
 62
     7
370
    18
100
AcDbLine
 10
4.6682571288
 20
1.2337233598
 30
0.0
 11
6.0497082514
 21
1.2337233598
 31
0.0
  0
LINE
  5
88
330
1F
100
AcDbEntity
  8
0
  6
Continuous
 62
     7
370
    18
100
AcDbLine
 10
2.6911075579
 20
0.5
 30
0.0
 11
2.6911075579
 21
2.4643479659
 31
0.0
  0
LINE
  5
89
330
1F
100
AcDbEntity
  8
0
  6
Continuous
 62
     7
370
    18
100
AcDbLine
 10
2.6911075579
 20
1.2143479659
 30
0.0
 11
4.6682571288
 21
1.2143479659
 31
0.0
  0
LINE
  5
8A
330
1F
100
AcDbEntity
  8
0
  6
Continuous
 62
     7
370
    18
100
AcDbLine
 10
2.6911075579
 20
1.4643479659
 30
0.0
 11
4.6682571288
 21
1.4643479659
 31
0.0
  0
LINE
  5
8B
330
1F
100
AcDbEntity
  8
0
  6
Continuous
 62
     7
370
    18
100
AcDbLine
 10
2.6911075579
 20
1.7143479659
 30
0.0
 11
4.6682571288
 21
1.7143479659
 31
0.0
  0
LINE
  5
8C
330
1F
100
AcDbEntity
  8
0
  6
Continuous
 62
     7
370
    18
100
AcDbLine
 10
2.6911075579
 20
1.9643479659
 30
0.0
 11
4.6682571288
 21
1.9643479659
 31
0.0
  0
LINE
  5
8D
330
1F
100
AcDbEntity
  8
0
  6
Continuous
 62
     7
370
    18
100
AcDbLine
 10
3.6890876875
 20
2.4643479659
 30
0.0
 11
3.6890876875
 21
0.6962748291
 31
0.0
  0
LINE
  5
8E
330
1F
100
AcDbEntity
  8
0
  6
Continuous
 62
     7
370
    18
100
AcDbLine
 10
6.0452023081
 20
2.3100081789
 30
0.0
 11
4.6682571288
 21
2.3100081789
 31
0.0
  0
LINE
  5
8F
330
1F
100
AcDbEntity
  8
0
  6
Continuous
 62
     7
370
    18
100
AcDbLine
 10
7.7412800044
 20
1.7143479659
 30
0.0
 11
6.0452023081
 21
1.7143479659
 31
0.0
  0
LINE
  5
90
330
1F
100
AcDbEntity
  8
0
  6
Continuous
 62
     7
370
    18
100
AcDbLine
 10
7.7412800044
 20
1.5268479659
 30
0.0
 11
6.0452023081
 21
1.5268479659
 31
0.0
  0
LINE
  5
91
330
1F
100
AcDbEntity
  8
0
  6
Continuous
 62
     7
370
    18
100
AcDbLine
 10
2.6911075579
 20
2.2143479659
 30
0.0
 11
4.6682571288
 21
2.2143479659
 31
0.0
  0
LINE
  5
92
330
1F
100
AcDbEntity
  8
0
  6
Continuous
 62
     7
370
    18
100
AcDbLine
 10
4.6682571288
 20
1.5037233598
 30
0.0
 11
6.0497082514
 21
1.5037233598
 31
0.0
  0
LINE
  5
93
330
1F
100
AcDbEntity
  8
0
  6
Continuous
 62
     7
370
    18
100
AcDbLine
 10
2.6911075579
 20
0.9643479659
 30
0.0
 11
4.6682571288
 21
0.9643479659
 31
0.0
  0
LINE
  5
94
330
1F
100
AcDbEntity
  8
0
  6
Continuous
 62
     7
370
    18
100
AcDbLine
 10
1.0538982943
 20
0.5
 30
0.0
 11
1.0538982943
 21
1.4143479659
 31
0.0
  0
LINE
  5
95
330
1F
100
AcDbEntity
  8
0
  6
Continuous
 62
     7
370
    18
100
AcDbLine
 10
2.6911075579
 20
1.4143479659
 30
0.0
 11
1.0538982943
 21
1.4143479659
 31
0.0
  0
LINE
  5
96
330
1F
100
AcDbEntity
  8
0
  6
Continuous
 62
     7
370
    50
100
AcDbLine
 10
0.5
 20
0.5
 30
0.0
 11
0.5
 21
8.0
 31
0.0
  0
LINE
  5
97
330
1F
100
AcDbEntity
  8
0
  6
Continuous
 62
     7
370
    50
100
AcDbLine
 10
0.5
 20
8.0
 30
0.0
 11
10.5
 21
8.0
 31
0.0
  0
LINE
  5
98
330
1F
100
AcDbEntity
  8
0
  6
Continuous
 62
     7
370
    50
100
AcDbLine
 10
10.5
 20
8.0
 30
0.0
 11
10.5
 21
0.5
 31
0.0
  0
LINE
  5
99
330
1F
100
AcDbEntity
  8
0
  6
Continuous
 62
     7
370
    50
100
AcDbLine
 10
10.5
 20
0.5
 30
0.0
 11
0.5
 21
0.5
 31
0.0
  0
LINE
  5
9A
330
1F
100
AcDbEntity
  8
0
  6
Continuous
 62
     7
370
    25
100
AcDbLine
 10
0.125
 20
4.25
 30
0.0
 11
0.5
 21
4.25
 31
0.0
  0
LINE
  5
9B
330
1F
100
AcDbEntity
  8
0
  6
Continuous
 62
     7
370
    25
100
AcDbLine
 10
5.5
 20
8.375
 30
0.0
 11
5.5
 21
8.0
 31
0.0
  0
LINE
  5
9C
330
1F
100
AcDbEntity
  8
0
  6
Continuous
 62
     7
370
    25
100
AcDbLine
 10
10.875
 20
4.25
 30
0.0
 11
10.5
 21
4.25
 31
0.0
  0
LINE
  5
9D
330
1F
100
AcDbEntity
  8
0
  6
Continuous
 62
     7
370
    25
100
AcDbLine
 10
5.5
 20
0.125
 30
0.0
 11
5.5
 21
0.5
 31
0.0
  0
LINE
  5
9E
330
1F
100
AcDbEntity
  8
0
  6
Continuous
 62
     7
370
    25
100
AcDbLine
 10
0.5
 20
4.25
 30
0.0
 11
0.125
 21
4.25
 31
0.0
  0
LINE
  5
9F
330
1F
100
AcDbEntity
  8
0
  6
Continuous
 62
     7
370
    25
100
AcDbLine
 10
10.5
 20
4.25
 30
0.0
 11
10.875
 21
4.25
 31
0.0
  0
LINE
  5
A0
330
1F
100
AcDbEntity
  8
0
  6
Continuous
 62
     7
370
    25
100
AcDbLine
 10
5.5
 20
8.0
 30
0.0
 11
5.5
 21
8.375
 31
0.0
  0
LINE
  5
A1
330
1F
100
AcDbEntity
  8
0
  6
Continuous
 62
     7
370
    25
100
AcDbLine
 10
5.5
 20
0.5
 30
0.0
 11
5.5
 21
0.125
 31
0.0
  0
MTEXT
  5
A3
330
1F
100
AcDbEntity
  8
0
  6
Continuous
 62
     7
370
     0
100
AcDbMText
 10
6.4365241464
 20
0.9918478554
 30
0.0
 40
0.1377952756
 41
0.0
 71
     1
 72
     1
  1
Quantity 2
  7
SLDTEXTSTYLE0
 73
     1
 44
1.0
  0
MTEXT
  5
A4
330
1F
100
AcDbEntity
  8
0
  6
Continuous
 62
     7
370
     0
100
AcDbMText
 10
0.2541961946
 20
2.2780770569
 30
0.0
 40
0.24
 41
0.0
 71
     2
 72
     1
  1
A
  7
SLDTEXTSTYLE0
 73
     1
 44
1.0
  0
MTEXT
  5
A5
330
1F
100
AcDbEntity
  8
0
  6
Continuous
 62
     7
370
     0
100
AcDbMText
 10
10.7266371394
 20
2.2780770569
 30
0.0
 40
0.24
 41
0.0
 71
     2
 72
     1
  1
A
  7
SLDTEXTSTYLE0
 73
     1
 44
1.0
  0
MTEXT
  5
A6
330
1F
100
AcDbEntity
  8
0
  6
Continuous
 62
     7
370
     0
100
AcDbMText
 10
0.2619461901
 20
6.5280770569
 30
0.0
 40
0.24
 41
0.0
 71
     2
 72
     1
  1
B
  7
SLDTEXTSTYLE0
 73
     1
 44
1.0
  0
MTEXT
  5
A7
330
1F
100
AcDbEntity
  8
0
  6
Continuous
 62
     7
370
     0
100
AcDbMText
 10
10.734387135
 20
6.5280770569
 30
0.0
 40
0.24
 41
0.0
 71
     2
 72
     1
  1
B
  7
SLDTEXTSTYLE0
 73
     1
 44
1.0
  0
MTEXT
  5
A8
330
1F
100
AcDbEntity
  8
0
  6
Continuous
 62
     7
370
     0
100
AcDbMText
 10
2.7475833335
 20
0.3774865057
 30
0.0
 40
0.24
 41
0.0
 71
     2
 72
     1
  1
2
  7
SLDTEXTSTYLE0
 73
     1
 44
1.0
  0
MTEXT
  5
A9
330
1F
100
AcDbEntity
  8
0
  6
Continuous
 62
     7
370
     0
100
AcDbMText
 10
2.7475833335
 20
8.3919082773
 30
0.0
 40
0.24
 41
0.0
 71
     2
 72
     1
  1
2
  7
SLDTEXTSTYLE0
 73
     1
 44
1.0
  0
MTEXT
  5
AA
330
1F
100
AcDbEntity
  8
0
  6
Continuous
 62
     7
370
     0
100
AcDbMText
 10
8.2475833335
 20
0.3774865057
 30
0.0
 40
0.24
 41
0.0
 71
     2
 72
     1
  1
1
  7
SLDTEXTSTYLE0
 73
     1
 44
1.0
  0
MTEXT
  5
AB
330
1F
100
AcDbEntity
  8
0
  6
Continuous
 62
     7
370
     0
100
AcDbMText
 10
8.2475833335
 20
8.3919082773
 30
0.0
 40
0.24
 41
0.0
 71
     2
 72
     1
  1
1
  7
SLDTEXTSTYLE0
 73
     1
 44
1.0
  0
MTEXT
  5
AC
330
1F
100
AcDbEntity
  8
0
  6
Continuous
 62
     7
370
     0
100
AcDbMText
 10
5.3593841725
 20
1.1208879488
 30
0.0
 40
0.09375
 41
0.0
 71
     2
 72
     1
  1
Acrylic
  7
SLDTEXTSTYLE0
 73
     1
 44
1.0
  0
MTEXT
  5
AD
330
1F
100
AcDbEntity
  8
0
  6
Continuous
 62
     7
370
     0
100
AcDbMText
 10
9.1519640168
 20
1.8925862739
 30
0.0
 40
0.25
 41
0.0
 71
     2
 72
     1
  1
Runway 5
  7
SLDTEXTSTYLE0
 73
     1
 44
1.0
  0
MTEXT
  5
AE
330
1F
100
AcDbEntity
  8
0
  6
Continuous
 62
     7
370
     0
100
AcDbMText
 10
10.2242139508
 20
1.057620295
 30
0.0
 40
0.25
 41
0.0
 71
     2
 72
     1
  1
04
  7
SLDTEXTSTYLE0
 73
     1
 44
1.0
  0
MTEXT
  5
AF
330
1F
100
AcDbEntity
  8
0
  6
Continuous
 62
     7
370
     0
100
AcDbMText
 10
5.3564467586
 20
0.6257720645
 30
0.0
 40
0.0625
 41
0.0
 71
     2
 72
     1
  1
DO NOT SCALE DRAWING
  7
SLDTEXTSTYLE0
 73
     1
 44
1.0
  0
MTEXT
  5
B0
330
1F
100
AcDbEntity
  8
0
  6
Continuous
 62
     7
370
     0
100
AcDbMText
 10
9.0390006451
 20
1.0579889803
 30
0.0
 40
0.25
 41
0.0
 71
     2
 72
     1
  1
5
  7
SLDTEXTSTYLE0
 73
     1
 44
1.0
  0
MTEXT
  5
B2
330
1F
100
AcDbEntity
  8
0
  6
Continuous
 62
     7
370
     0
100
AcDbMText
 10
9.6272008483
 20
0.6603507825
 30
0.0
 40
0.1
 41
0.0
 71
     1
 72
     1
  1
SHEET 1 OF 1
  7
SLDTEXTSTYLE1
 73
     1
 44
1.0
  0
MTEXT
  5
B3
330
1F
100
AcDbEntity
  8
0
  6
Continuous
 62
     7
370
     0
100
AcDbMText
 10
7.0306481744
 20
2.2235572393
 30
0.0
 40
0.075
 41
0.0
 71
     2
 72
     1
  1
Austin
  7
SLDTEXTSTYLE0
 73
     1
 44
1.0
  0
MTEXT
  5
B4
330
1F
100
AcDbEntity
  8
0
  6
Continuous
 62
     7
370
     0
100
AcDbMText
 10
4.7148807858
 20
2.4212222426
 30
0.0
 40
0.07
 41
0.0
 71
     1
 72
     1
  1
UNLESS OTHERWISE SPECIFIED:
  7
SLDTEXTSTYLE0
 73
     1
 44
1.0
  0
MTEXT
  5
B5
330
1F
100
AcDbEntity
  8
0
  6
Continuous
 62
     7
370
     0
100
AcDbMText
 10
7.8286869647
 20
0.6600256172
 30
0.0
 40
0.1
 41
0.0
 71
     1
 72
     1
  1
SCALE: 1:10
  7
SLDTEXTSTYLE0
 73
     1
 44
1.0
  0
MTEXT
  5
B6
330
1F
100
AcDbEntity
  8
0
  6
Continuous
 62
     7
370
     0
100
AcDbMText
 10
8.5724421647
 20
0.6566031637
 30
0.0
 40
0.1
 41
0.0
 71
     1
 72
     1
  1
WEIGHT:
  7
SLDTEXTSTYLE0
 73
     1
 44
1.0
  0
MTEXT
  5
B7
330
1F
100
AcDbEntity
  8
0
  6
Continuous
 62
     7
370
     0
100
AcDbMText
 10
10.0978310983
 20
1.1898931282
 30
0.0
 40
0.1
 41
0.0
 71
     1
 72
     1
  1
REV
  7
SLDTEXTSTYLE0
 73
     1
 44
1.0
  0
MTEXT
  5
B9
330
1F
100
AcDbEntity
  8
0
  6
Continuous
 62
     7
370
     0
100
AcDbMText
 10
8.1685300898
 20
1.1937993586
 30
0.0
 40
0.1
 41
0.0
 71
     1
 72
     1
  1
DWG.  NO.
  7
SLDTEXTSTYLE2
 73
     1
 44
1.0
  0
MTEXT
  5
BA
330
1F
100
AcDbEntity
  8
0
  6
Continuous
 62
     7
370
     0
100
AcDbMText
 10
7.8299212632
 20
1.0521409015
 30
0.0
 40
0.25
 41
0.0
 71
     1
 72
     1
  1
A
  7
SLDTEXTSTYLE0
 73
     1
 44
1.0
  0
MTEXT
  5
BB
330
1F
100
AcDbEntity
  8
0
  6
Continuous
 62
     7
370
     0
100
AcDbMText
 10
7.8220311822
 20
1.1951981776
 30
0.0
 40
0.1
 41
0.0
 71
     1
 72
     1
  1
SIZE
  7
SLDTEXTSTYLE0
 73
     1
 44
1.0
  0
MTEXT
  5
BC
330
1F
100
AcDbEntity
  8
0
  6
Continuous
 62
     7
370
     0
100
AcDbMText
 10
7.7871434177
 20
2.062714942
 30
0.0
 40
0.1
 41
0.0
 71
     1
 72
     1
  1
TITLE:
  7
SLDTEXTSTYLE0
 73
     1
 44
1.0
  0
MTEXT
  5
BD
330
1F
100
AcDbEntity
  8
0
  6
Continuous
 62
     7
370
     0
100
AcDbMText
 10
6.9064504929
 20
2.3985429566
 30
0.0
 40
0.065
 41
0.0
 71
     1
 72
     1
  1
NAME
  7
SLDTEXTSTYLE0
 73
     1
 44
1.0
  0
MTEXT
  5
BE
330
1F
100
AcDbEntity
  8
0
  6
Continuous
 62
     7
370
     0
100
AcDbMText
 10
7.3982240634
 20
2.3968067411
 30
0.0
 40
0.065
 41
0.0
 71
     1
 72
     1
  1
DATE
  7
SLDTEXTSTYLE0
 73
     1
 44
1.0
  0
MTEXT
  5
BF
330
1F
100
AcDbEntity
  8
0
  6
Continuous
 62
     7
370
     0
100
AcDbMText
 10
6.0977877029
 20
1.2956181437
 30
0.0
 40
0.065
 41
0.0
 71
     1
 72
     1
  1
COMMENTS:
  7
SLDTEXTSTYLE0
 73
     1
 44
1.0
  0
MTEXT
  5
C0
330
1F
100
AcDbEntity
  8
0
  6
Continuous
 62
     7
370
     0
100
AcDbMText
 10
6.0969141461
 20
1.4615369972
 30
0.0
 40
0.065
 41
0.0
 71
     1
 72
     1
  1
Q.A.
  7
SLDTEXTSTYLE0
 73
     1
 44
1.0
  0
MTEXT
  5
C1
330
1F
100
AcDbEntity
  8
0
  6
Continuous
 62
     7
370
     0
100
AcDbMText
 10
6.0985384509
 20
1.6474596716
 30
0.0
 40
0.065
 41
0.0
 71
     1
 72
     1
  1
MFG APPR.
  7
SLDTEXTSTYLE0
 73
     1
 44
1.0
  0
MTEXT
  5
C2
330
1F
100
AcDbEntity
  8
0
  6
Continuous
 62
     7
370
     0
100
AcDbMText
 10
6.0935901344
 20
1.8346770078
 30
0.0
 40
0.065
 41
0.0
 71
     1
 72
     1
  1
ENG APPR.
  7
SLDTEXTSTYLE0
 73
     1
 44
1.0
  0
MTEXT
  5
C3
330
1F
100
AcDbEntity
  8
0
  6
Continuous
 62
     7
370
     0
100
AcDbMText
 10
6.0964833951
 20
2.0171967381
 30
0.0
 40
0.065
 41
0.0
 71
     1
 72
     1
  1
CHECKED
  7
SLDTEXTSTYLE0
 73
     1
 44
1.0
  0
MTEXT
  5
C4
330
1F
100
AcDbEntity
  8
0
  6
Continuous
 62
     7
370
     0
100
AcDbMText
 10
6.0943524356
 20
2.2095569525
 30
0.0
 40
0.065
 41
0.0
 71
     1
 72
     1
  1
DRAWN
  7
SLDTEXTSTYLE0
 73
     1
 44
1.0
  0
MTEXT
  5
C5
330
1F
100
AcDbEntity
  8
0
  6
Continuous
 62
     7
370
     0
100
AcDbMText
 10
4.6909330979
 20
0.9424500643
 30
0.0
 40
0.06
 41
0.0
 71
     1
 72
     1
  1
FINISH
  7
SLDTEXTSTYLE0
 73
     1
 44
1.0
  0
MTEXT
  5
C6
330
1F
100
AcDbEntity
  8
0
  6
Continuous
 62
     7
370
     0
100
AcDbMText
 10
4.6881970648
 20
1.210748588
 30
0.0
 40
0.06
 41
0.0
 71
     1
 72
     1
  1
MATERIAL
  7
SLDTEXTSTYLE0
 73
     1
 44
1.0
  0
INSERT
  5
CC
330
1F
100
AcDbEntity
  8
0
  6
Continuous
 62
     7
370
     0
100
AcDbBlockReference
  2
SW_NOTE_0
 10
4.6932656633
 20
1.3725811239
 30
0.0
  0
INSERT
  5
DC
330
1F
100
AcDbEntity
  8
0
  6
Continuous
 62
     7
370
     0
100
AcDbBlockReference
  2
SW_NOTE_1
 10
4.7054069353
 20
2.1128437016
 30
0.0
  0
MTEXT
  5
DD
330
1F
100
AcDbEntity
  8
0
  6
Continuous
 62
     7
370
     0
100
AcDbMText
 10
3.4232130086
 20
0.627936029
 30
0.0
 40
0.0625
 41
0.0
 71
     1
 72
     1
  1
APPLICATION
  7
SLDTEXTSTYLE0
 73
     1
 44
1.0
  0
MTEXT
  5
DE
330
1F
100
AcDbEntity
  8
0
  6
Continuous
 62
     7
370
     0
100
AcDbMText
 10
3.9706337758
 20
0.8581722568
 30
0.0
 40
0.0625
 41
0.0
 71
     1
 72
     1
  1
USED ON
  7
SLDTEXTSTYLE0
 73
     1
 44
1.0
  0
MTEXT
  5
DF
330
1F
100
AcDbEntity
  8
0
  6
Continuous
 62
     7
370
     0
100
AcDbMText
 10
2.9740749536
 20
0.8571363076
 30
0.0
 40
0.0625
 41
0.0
 71
     1
 72
     1
  1
NEXT ASSY
  7
SLDTEXTSTYLE0
 73
     1
 44
1.0
  0
MTEXT
  5
E0
330
1F
100
AcDbEntity
  8
0
  6
Continuous
 62
     7
370
     0
100
AcDbMText
 10
1.2413219489
 20
1.3575940977
 30
0.0
 40
0.06
 41
0.0
 71
     1
 72
     1
  1
PROPRIETARY AND CONFIDENTIAL
  7
SLDTEXTSTYLE0
 73
     1
 44
1.0
  0
INSERT
  5
EB
330
1F
100
AcDbEntity
  8
0
  6
Continuous
 62
     7
370
     0
100
AcDbBlockReference
  2
SW_NOTE_2
 10
1.0926939074
 20
1.1392761214
 30
0.0
  0
CIRCLE
  5
EC
330
1F
100
AcDbEntity
  8
0
  6
Continuous
 62
     7
370
    25
100
AcDbCircle
 10
1.9321534979
 20
6.7652625811
 30
0.0
 40
0.0317499999999997
  0
CIRCLE
  5
ED
330
1F
100
AcDbEntity
  8
0
  6
Continuous
 62
     7
370
    25
100
AcDbCircle
 10
1.9321534979
 20
6.7652625811
 30
0.0
 40
0.0165999999999995
  0
CIRCLE
  5
EE
330
1F
100
AcDbEntity
  8
0
  6
Continuous
 62
     7
370
    25
100
AcDbCircle
 10
1.9321534979
 20
5.2652625811
 30
0.0
 40
0.0317499999999988
  0
CIRCLE
  5
EF
330
1F
100
AcDbEntity
  8
0
  6
Continuous
 62
     7
370
    25
100
AcDbCircle
 10
1.9321534979
 20
5.2652625811
 30
0.0
 40
0.0165999999999995
  0
CIRCLE
  5
F0
330
1F
100
AcDbEntity
  8
0
  6
Continuous
 62
     7
370
    25
100
AcDbCircle
 10
1.9321534979
 20
5.5652625811
 30
0.0
 40
0.0317500000000006
  0
CIRCLE
  5
F1
330
1F
100
AcDbEntity
  8
0
  6
Continuous
 62
     7
370
    25
100
AcDbCircle
 10
1.9321534979
 20
5.5652625811
 30
0.0
 40
0.0165999999999995
  0
CIRCLE
  5
F2
330
1F
100
AcDbEntity
  8
0
  6
Continuous
 62
     7
370
    25
100
AcDbCircle
 10
1.9321534979
 20
5.8652625811
 30
0.0
 40
0.0317499999999997
  0
CIRCLE
  5
F3
330
1F
100
AcDbEntity
  8
0
  6
Continuous
 62
     7
370
    25
100
AcDbCircle
 10
1.9321534979
 20
5.8652625811
 30
0.0
 40
0.0166000000000004
  0
CIRCLE
  5
F4
330
1F
100
AcDbEntity
  8
0
  6
Continuous
 62
     7
370
    25
100
AcDbCircle
 10
1.9321534979
 20
6.1652625811
 30
0.0
 40
0.0317500000000006
  0
CIRCLE
  5
F5
330
1F
100
AcDbEntity
  8
0
  6
Continuous
 62
     7
370
    25
100
AcDbCircle
 10
1.9321534979
 20
6.1652625811
 30
0.0
 40
0.0166000000000004
  0
CIRCLE
  5
F6
330
1F
100
AcDbEntity
  8
0
  6
Continuous
 62
     7
370
    25
100
AcDbCircle
 10
1.9321534979
 20
6.4652625811
 30
0.0
 40
0.0317499999999997
  0
CIRCLE
  5
F7
330
1F
100
AcDbEntity
  8
0
  6
Continuous
 62
     7
370
    25
100
AcDbCircle
 10
1.9321534979
 20
6.4652625811
 30
0.0
 40
0.0166000000000004
  0
CIRCLE
  5
F8
330
1F
100
AcDbEntity
  8
0
  6
Continuous
 62
     7
370
    25
100
AcDbCircle
 10
2.1321534979
 20
5.0527625811
 30
0.0
 40
0.0317500000000006
  0
CIRCLE
  5
F9
330
1F
100
AcDbEntity
  8
0
  6
Continuous
 62
     7
370
    25
100
AcDbCircle
 10
2.1321534979
 20
5.0527625811
 30
0.0
 40
0.0166000000000004
  0
CIRCLE
  5
FA
330
1F
100
AcDbEntity
  8
0
  6
Continuous
 62
     7
370
    25
100
AcDbCircle
 10
2.1321534979
 20
6.9777625811
 30
0.0
 40
0.0317500000000006
  0
CIRCLE
  5
FB
330
1F
100
AcDbEntity
  8
0
  6
Continuous
 62
     7
370
    25
100
AcDbCircle
 10
2.1321534979
 20
6.9777625811
 30
0.0
 40
0.0166000000000004
  0
CIRCLE
  5
FC
330
1F
100
AcDbEntity
  8
0
  6
Continuous
 62
     7
370
    25
100
AcDbCircle
 10
2.4321534979
 20
6.9777625811
 30
0.0
 40
0.0317500000000006
  0
CIRCLE
  5
FD
330
1F
100
AcDbEntity
  8
0
  6
Continuous
 62
     7
370
    25
100
AcDbCircle
 10
2.4321534979
 20
6.9777625811
 30
0.0
 40
0.0166000000000004
  0
CIRCLE
  5
FE
330
1F
100
AcDbEntity
  8
0
  6
Continuous
 62
     7
370
    25
100
AcDbCircle
 10
2.4321534979
 20
5.0527625811
 30
0.0
 40
0.0317500000000006
  0
CIRCLE
  5
FF
330
1F
100
AcDbEntity
  8
0
  6
Continuous
 62
     7
370
    25
100
AcDbCircle
 10
2.4321534979
 20
5.0527625811
 30
0.0
 40
0.0166000000000004
  0
CIRCLE
  5
100
330
1F
100
AcDbEntity
  8
0
  6
Continuous
 62
     7
370
    25
100
AcDbCircle
 10
2.7321534979
 20
5.0527625811
 30
0.0
 40
0.0317500000000006
  0
CIRCLE
  5
101
330
1F
100
AcDbEntity
  8
0
  6
Continuous
 62
     7
370
    25
100
AcDbCircle
 10
2.7321534979
 20
5.0527625811
 30
0.0
 40
0.0166000000000004
  0
CIRCLE
  5
102
330
1F
100
AcDbEntity
  8
0
  6
Continuous
 62
     7
370
    25
100
AcDbCircle
 10
2.7321534979
 20
6.9777625811
 30
0.0
 40
0.0317500000000006
  0
CIRCLE
  5
103
330
1F
100
AcDbEntity
  8
0
  6
Continuous
 62
     7
370
    25
100
AcDbCircle
 10
2.7321534979
 20
6.9777625811
 30
0.0
 40
0.0166000000000004
  0
CIRCLE
  5
104
330
1F
100
AcDbEntity
  8
0
  6
Continuous
 62
     7
370
    25
100
AcDbCircle
 10
3.0321534979
 20
5.0527625811
 30
0.0
 40
0.0317499999999988
  0
CIRCLE
  5
105
330
1F
100
AcDbEntity
  8
0
  6
Continuous
 62
     7
370
    25
100
AcDbCircle
 10
3.0321534979
 20
5.0527625811
 30
0.0
 40
0.0165999999999995
  0
CIRCLE
  5
106
330
1F
100
AcDbEntity
  8
0
  6
Continuous
 62
     7
370
    25
100
AcDbCircle
 10
3.0321534979
 20
6.9777625811
 30
0.0
 40
0.0317499999999988
  0
CIRCLE
  5
107
330
1F
100
AcDbEntity
  8
0
  6
Continuous
 62
     7
370
    25
100
AcDbCircle
 10
3.0321534979
 20
6.9777625811
 30
0.0
 40
0.0165999999999995
  0
CIRCLE
  5
108
330
1F
100
AcDbEntity
  8
0
  6
Continuous
 62
     7
370
    25
100
AcDbCircle
 10
3.3321534979
 20
6.9777625811
 30
0.0
 40
0.0317499999999997
  0
CIRCLE
  5
109
330
1F
100
AcDbEntity
  8
0
  6
Continuous
 62
     7
370
    25
100
AcDbCircle
 10
3.3321534979
 20
6.9777625811
 30
0.0
 40
0.0166000000000004
  0
CIRCLE
  5
10A
330
1F
100
AcDbEntity
  8
0
  6
Continuous
 62
     7
370
    25
100
AcDbCircle
 10
3.3321534979
 20
5.0527625811
 30
0.0
 40
0.0317499999999997
  0
CIRCLE
  5
10B
330
1F
100
AcDbEntity
  8
0
  6
Continuous
 62
     7
370
    25
100
AcDbCircle
 10
3.3321534979
 20
5.0527625811
 30
0.0
 40
0.0166000000000004
  0
LINE
  5
10C
330
1F
100
AcDbEntity
  8
0
  6
Continuous
 62
     7
370
    25
100
AcDbLine
 10
1.8571534979
 20
7.0527625811
 30
0.0
 11
1.8571534979
 21
4.9777625811
 31
0.0
  0
LINE
  5
10D
330
1F
100
AcDbEntity
  8
0
  6
Continuous
 62
     7
370
    25
100
AcDbLine
 10
5.7071534979
 20
7.0527625811
 30
0.0
 11
1.8571534979
 21
7.0527625811
 31
0.0
  0
LINE
  5
10E
330
1F
100
AcDbEntity
  8
0
  6
Continuous
 62
     7
370
    25
100
AcDbLine
 10
5.7071534979
 20
7.0527625811
 30
0.0
 11
5.7071534979
 21
4.9777625811
 31
0.0
  0
LINE
  5
10F
330
1F
100
AcDbEntity
  8
0
  6
Continuous
 62
     7
370
    25
100
AcDbLine
 10
5.7071534979
 20
4.9777625811
 30
0.0
 11
1.8571534979
 21
4.9777625811
 31
0.0
  0
CIRCLE
  5
110
330
1F
100
AcDbEntity
  8
0
  6
Continuous
 62
     7
370
    25
100
AcDbCircle
 10
5.4321534979
 20
5.0527625811
 30
0.0
 40
0.0317499999999997
  0
CIRCLE
  5
111
330
1F
100
AcDbEntity
  8
0
  6
Continuous
 62
     7
370
    25
100
AcDbCircle
 10
5.4321534979
 20
6.9777625811
 30
0.0
 40
0.0317500000000006
  0
CIRCLE
  5
112
330
1F
100
AcDbEntity
  8
0
  6
Continuous
 62
     7
370
    25
100
AcDbCircle
 10
5.1321534979
 20
5.0527625811
 30
0.0
 40
0.0317499999999997
  0
CIRCLE
  5
113
330
1F
100
AcDbEntity
  8
0
  6
Continuous
 62
     7
370
    25
100
AcDbCircle
 10
5.1321534979
 20
6.9777625811
 30
0.0
 40
0.0317499999999997
  0
CIRCLE
  5
114
330
1F
100
AcDbEntity
  8
0
  6
Continuous
 62
     7
370
    25
100
AcDbCircle
 10
4.8321534979
 20
5.0527625811
 30
0.0
 40
0.0317500000000006
  0
CIRCLE
  5
115
330
1F
100
AcDbEntity
  8
0
  6
Continuous
 62
     7
370
    25
100
AcDbCircle
 10
4.5321534979
 20
5.0527625811
 30
0.0
 40
0.0317500000000006
  0
CIRCLE
  5
116
330
1F
100
AcDbEntity
  8
0
  6
Continuous
 62
     7
370
    25
100
AcDbCircle
 10
4.2321534979
 20
5.0527625811
 30
0.0
 40
0.0317499999999997
  0
CIRCLE
  5
117
330
1F
100
AcDbEntity
  8
0
  6
Continuous
 62
     7
370
    25
100
AcDbCircle
 10
3.9321534979
 20
5.0527625811
 30
0.0
 40
0.0317499999999997
  0
CIRCLE
  5
118
330
1F
100
AcDbEntity
  8
0
  6
Continuous
 62
     7
370
    25
100
AcDbCircle
 10
3.6321534979
 20
5.0527625811
 30
0.0
 40
0.0317499999999997
  0
CIRCLE
  5
119
330
1F
100
AcDbEntity
  8
0
  6
Continuous
 62
     7
370
    25
100
AcDbCircle
 10
4.8321534979
 20
6.9777625811
 30
0.0
 40
0.0317500000000006
  0
CIRCLE
  5
11A
330
1F
100
AcDbEntity
  8
0
  6
Continuous
 62
     7
370
    25
100
AcDbCircle
 10
4.5321534979
 20
6.9777625811
 30
0.0
 40
0.0317500000000006
  0
CIRCLE
  5
11B
330
1F
100
AcDbEntity
  8
0
  6
Continuous
 62
     7
370
    25
100
AcDbCircle
 10
4.2321534979
 20
6.9777625811
 30
0.0
 40
0.0317499999999997
  0
CIRCLE
  5
11C
330
1F
100
AcDbEntity
  8
0
  6
Continuous
 62
     7
370
    25
100
AcDbCircle
 10
3.9321534979
 20
6.9777625811
 30
0.0
 40
0.0317499999999997
  0
CIRCLE
  5
11D
330
1F
100
AcDbEntity
  8
0
  6
Continuous
 62
     7
370
    25
100
AcDbCircle
 10
3.6321534979
 20
6.9777625811
 30
0.0
 40
0.0317499999999997
  0
CIRCLE
  5
11E
330
1F
100
AcDbEntity
  8
0
  6
Continuous
 62
     7
370
    25
100
AcDbCircle
 10
5.6321534979
 20
5.2652625811
 30
0.0
 40
0.0317499999999997
  0
CIRCLE
  5
11F
330
1F
100
AcDbEntity
  8
0
  6
Continuous
 62
     7
370
    25
100
AcDbCircle
 10
5.6321534979
 20
5.5652625811
 30
0.0
 40
0.0317499999999997
  0
CIRCLE
  5
120
330
1F
100
AcDbEntity
  8
0
  6
Continuous
 62
     7
370
    25
100
AcDbCircle
 10
5.6321534979
 20
5.8652625811
 30
0.0
 40
0.0317500000000006
  0
CIRCLE
  5
121
330
1F
100
AcDbEntity
  8
0
  6
Continuous
 62
     7
370
    25
100
AcDbCircle
 10
5.6321534979
 20
6.1652625811
 30
0.0
 40
0.0317499999999997
  0
CIRCLE
  5
122
330
1F
100
AcDbEntity
  8
0
  6
Continuous
 62
     7
370
    25
100
AcDbCircle
 10
5.6321534979
 20
6.4652625811
 30
0.0
 40
0.0317500000000006
  0
CIRCLE
  5
123
330
1F
100
AcDbEntity
  8
0
  6
Continuous
 62
     7
370
    25
100
AcDbCircle
 10
5.6321534979
 20
6.7652625811
 30
0.0
 40
0.0317499999999997
  0
CIRCLE
  5
124
330
1F
100
AcDbEntity
  8
0
  6
Continuous
 62
     7
370
    25
100
AcDbCircle
 10
3.6321534979
 20
5.0527625811
 30
0.0
 40
0.0165999999999995
  0
CIRCLE
  5
125
330
1F
100
AcDbEntity
  8
0
  6
Continuous
 62
     7
370
    25
100
AcDbCircle
 10
3.6321534979
 20
6.9777625811
 30
0.0
 40
0.0165999999999995
  0
CIRCLE
  5
126
330
1F
100
AcDbEntity
  8
0
  6
Continuous
 62
     7
370
    25
100
AcDbCircle
 10
3.9321534979
 20
6.9777625811
 30
0.0
 40
0.0166000000000004
  0
CIRCLE
  5
127
330
1F
100
AcDbEntity
  8
0
  6
Continuous
 62
     7
370
    25
100
AcDbCircle
 10
3.9321534979
 20
5.0527625811
 30
0.0
 40
0.0166000000000004
  0
CIRCLE
  5
128
330
1F
100
AcDbEntity
  8
0
  6
Continuous
 62
     7
370
    25
100
AcDbCircle
 10
4.2321534979
 20
5.0527625811
 30
0.0
 40
0.0166000000000004
  0
CIRCLE
  5
129
330
1F
100
AcDbEntity
  8
0
  6
Continuous
 62
     7
370
    25
100
AcDbCircle
 10
4.2321534979
 20
6.9777625811
 30
0.0
 40
0.0166000000000004
  0
CIRCLE
  5
12A
330
1F
100
AcDbEntity
  8
0
  6
Continuous
 62
     7
370
    25
100
AcDbCircle
 10
4.5321534979
 20
5.0527625811
 30
0.0
 40
0.0166000000000004
  0
CIRCLE
  5
12B
330
1F
100
AcDbEntity
  8
0
  6
Continuous
 62
     7
370
    25
100
AcDbCircle
 10
4.5321534979
 20
6.9777625811
 30
0.0
 40
0.0166000000000004
  0
CIRCLE
  5
12C
330
1F
100
AcDbEntity
  8
0
  6
Continuous
 62
     7
370
    25
100
AcDbCircle
 10
4.8321534979
 20
6.9777625811
 30
0.0
 40
0.0166000000000004
  0
CIRCLE
  5
12D
330
1F
100
AcDbEntity
  8
0
  6
Continuous
 62
     7
370
    25
100
AcDbCircle
 10
4.8321534979
 20
5.0527625811
 30
0.0
 40
0.0166000000000004
  0
CIRCLE
  5
12E
330
1F
100
AcDbEntity
  8
0
  6
Continuous
 62
     7
370
    25
100
AcDbCircle
 10
5.1321534979
 20
5.0527625811
 30
0.0
 40
0.0165999999999995
  0
CIRCLE
  5
12F
330
1F
100
AcDbEntity
  8
0
  6
Continuous
 62
     7
370
    25
100
AcDbCircle
 10
5.1321534979
 20
6.9777625811
 30
0.0
 40
0.0165999999999995
  0
CIRCLE
  5
130
330
1F
100
AcDbEntity
  8
0
  6
Continuous
 62
     7
370
    25
100
AcDbCircle
 10
5.4321534979
 20
5.0527625811
 30
0.0
 40
0.0166000000000004
  0
CIRCLE
  5
131
330
1F
100
AcDbEntity
  8
0
  6
Continuous
 62
     7
370
    25
100
AcDbCircle
 10
5.4321534979
 20
6.9777625811
 30
0.0
 40
0.0166000000000004
  0
CIRCLE
  5
132
330
1F
100
AcDbEntity
  8
0
  6
Continuous
 62
     7
370
    25
100
AcDbCircle
 10
5.6321534979
 20
6.1652625811
 30
0.0
 40
0.0165999999999995
  0
CIRCLE
  5
133
330
1F
100
AcDbEntity
  8
0
  6
Continuous
 62
     7
370
    25
100
AcDbCircle
 10
5.6321534979
 20
5.2652625811
 30
0.0
 40
0.0166000000000004
  0
CIRCLE
  5
134
330
1F
100
AcDbEntity
  8
0
  6
Continuous
 62
     7
370
    25
100
AcDbCircle
 10
5.6321534979
 20
5.5652625811
 30
0.0
 40
0.0166000000000004
  0
CIRCLE
  5
135
330
1F
100
AcDbEntity
  8
0
  6
Continuous
 62
     7
370
    25
100
AcDbCircle
 10
5.6321534979
 20
6.7652625811
 30
0.0
 40
0.0166000000000004
  0
CIRCLE
  5
136
330
1F
100
AcDbEntity
  8
0
  6
Continuous
 62
     7
370
    25
100
AcDbCircle
 10
5.6321534979
 20
5.8652625811
 30
0.0
 40
0.0166000000000004
  0
CIRCLE
  5
137
330
1F
100
AcDbEntity
  8
0
  6
Continuous
 62
     7
370
    25
100
AcDbCircle
 10
5.6321534979
 20
6.4652625811
 30
0.0
 40
0.0165999999999995
  0
DIMENSION
  5
138
330
1F
100
AcDbEntity
  8
0
  6
Continuous
 62
     7
370
    18
100
AcDbDimension
  2
_D
 10
5.4004034979
 20
6.9777625811
 30
0.0
 11
7.3768091397
 21
7.1986177914
 31
0.0
 70
   163
  1
24 x <> THRU ALL\P{\fGDT;w}%%c 0.635 X 82°\P
 71
     1
 42
-1.0
  3
SLDDIMSTYLE0
100
AcDbDiametricDimension
 15
5.4639034979
 25
6.9777625811
 35
0.0
 40
0.0
  0
DIMENSION
  5
156
330
1F
100
AcDbEntity
  8
0
  6
Continuous
 62
     7
370
    18
100
AcDbDimension
  2
_D_1
 10
5.6051572397
 20
6.7819737912
 30
0.0
 11
7.3768091397
 21
6.5494895848
 31
0.0
 70
   163
  1
12 x <> THRU ALL\P{\fGDT;w}%%c 0.635 X 82°\P
 71
     1
 42
-1.0
  3
SLDDIMSTYLE0
100
AcDbDiametricDimension
 15
5.6591497561
 25
6.748551371
 35
0.0
 40
0.0
  0
DIMENSION
  5
164
330
1F
100
AcDbEntity
  8
0
  6
Continuous
 62
     7
370
    18
100
AcDbDimension
  2
_D_2
 10
1.147431227
 20
4.9777625811
 30
0.0
 11
1.147431227
 21
6.1046636607
 31
0.0
 70
   160
  1
<>
 71
     2
 42
-1.0
  3
SLDDIMSTYLE1
100
AcDbAlignedDimension
 13
1.8571534979
 23
7.0527625811
 33
0.0
 14
1.8571534979
 24
4.9777625811
 34
0.0
 50
90.0
100
AcDbRotatedDimension
  0
DIMENSION
  5
16F
330
1F
100
AcDbEntity
  8
0
  6
Continuous
 62
     7
370
    18
100
AcDbDimension
  2
_D_3
 10
1.8571534979
 20
7.1814409259
 30
0.0
 11
3.9176632561
 21
7.1814409259
 31
0.0
 70
   160
  1
<>
 71
     2
 42
-1.0
  3
SLDDIMSTYLE1
100
AcDbAlignedDimension
 13
5.7071534979
 23
7.0527625811
 33
0.0
 14
1.8571534979
 24
7.0527625811
 34
0.0
100
AcDbRotatedDimension
  0
DIMENSION
  5
179
330
1F
100
AcDbEntity
  8
0
  6
Continuous
 62
     7
370
    18
100
AcDbDimension
  2
_D_4
 10
5.7071534979
 20
4.6129727682
 30
0.0
 11
6.0284991766
 21
4.6129727682
 31
0.0
 70
   160
  1
<>
 71
     2
 42
-1.0
  3
SLDDIMSTYLE2
100
AcDbAlignedDimension
 13
5.4321534979
 23
5.0792051008
 33
0.0
 14
5.7071534979
 24
4.9777625811
 34
0.0
100
AcDbRotatedDimension
  0
DIMENSION
  5
186
330
1F
100
AcDbEntity
  8
0
  6
Continuous
 62
     7
370
    18
100
AcDbDimension
  2
_D_5
 10
2.1321534979
 20
4.7722913457
 30
0.0
 11
2.8198801495
 21
4.7722913457
 31
0.0
 70
   160
  1
<>
 71
     2
 42
-1.0
  3
SLDDIMSTYLE2
100
AcDbAlignedDimension
 13
1.8571534979
 23
4.9777625811
 33
0.0
 14
2.1321534979
 24
5.0792051008
 34
0.0
100
AcDbRotatedDimension
  0
DIMENSION
  5
192
330
1F
100
AcDbEntity
  8
0
  6
Continuous
 62
     7
370
    18
100
AcDbDimension
  2
_D_6
 10
6.2692509317
 20
4.9777625811
 30
0.0
 11
6.2692509317
 21
5.3670656864
 31
0.0
 70
   160
  1
<>
 71
     2
 42
-1.0
  3
SLDDIMSTYLE3
100
AcDbAlignedDimension
 13
2.7057109782
 23
5.0527625811
 33
0.0
 14
5.7071534979
 24
4.9777625811
 34
0.0
 50
90.0
100
AcDbRotatedDimension
  0
DIMENSION
  5
19F
330
1F
100
AcDbEntity
  8
0
  6
Continuous
 62
     7
370
    18
100
AcDbDimension
  2
_D_7
 10
1.8571534979
 20
4.4953736077
 30
0.0
 11
2.5847792589
 21
4.4953736077
 31
0.0
 70
   160
  1
<>
 71
     2
 42
-1.0
  3
SLDDIMSTYLE3
100
AcDbAlignedDimension
 13
1.9321534979
 23
5.2917051008
 33
0.0
 14
1.8571534979
 24
4.9777625811
 34
0.0
100
AcDbRotatedDimension
  0
DIMENSION
  5
1AB
330
1F
100
AcDbEntity
  8
0
  6
Continuous
 62
     7
370
    18
100
AcDbDimension
  2
_D_8
 10
3.9321534979
 20
4.5974652254
 30
0.0
 11
4.235355469
 21
4.5974652254
 31
0.0
 70
   160
  1
<>
 71
     2
 42
-1.0
  3
SLDDIMSTYLE2
100
AcDbAlignedDimension
 13
3.6321534979
 23
5.0792051008
 33
0.0
 14
3.9321534979
 24
5.0792051008
 34
0.0
 50
0.0
100
AcDbRotatedDimension
  0
DIMENSION
  5
1B7
330
1F
100
AcDbEntity
  8
0
  6
Continuous
 62
     7
370
    18
100
AcDbDimension
  2
_D_9
 10
1.6689264842
 20
6.9777625811
 30
0.0
 11
1.6689264842
 21
6.5497706143
 31
0.0
 70
   160
  1
<>
 71
     2
 42
-1.0
  3
SLDDIMSTYLE3
100
AcDbAlignedDimension
 13
1.8571534979
 23
7.0527625811
 33
0.0
 14
2.7585960176
 24
6.9777625811
 34
0.0
 50
90.0
100
AcDbRotatedDimension
  0
DIMENSION
  5
1C3
330
1F
100
AcDbEntity
  8
0
  6
Continuous
 62
     7
370
    18
100
AcDbDimension
  2
_D_10
 10
1.6640793112
 20
5.8652625811
 30
0.0
 11
1.6640793112
 21
5.9790966082
 31
0.0
 70
   160
  1
<>
 71
     2
 42
-1.0
  3
SLDDIMSTYLE2
100
AcDbAlignedDimension
 13
1.9585960176
 23
6.1652625811
 33
0.0
 14
1.9585960176
 24
5.8652625811
 34
0.0
 50
90.0
100
AcDbRotatedDimension
  0
DIMENSION
  5
1CF
330
1F
100
AcDbEntity
  8
0
  6
Continuous
 62
     7
370
    18
100
AcDbDimension
  2
_D_11
 10
1.3616005195
 20
4.9777625811
 30
0.0
 11
1.3616005195
 21
5.2128170024
 31
0.0
 70
   160
  1
<>
 71
     2
 42
-1.0
  3
SLDDIMSTYLE4
100
AcDbAlignedDimension
 13
1.9585960176
 23
5.2652625811
 33
0.0
 14
1.8571534979
 24
4.9777625811
 34
0.0
 50
90.0
100
AcDbRotatedDimension
  0
INSERT
  5
22F
330
1F
100
AcDbEntity
  8
0
  6
Continuous
 62
     7
370
     0
100
AcDbBlockReference
  2
SW_CENTERMARKSYMBOL_0
 10
5.6321534979
 20
5.2652625811
 30
0.0
  0
INSERT
  5
2D1
330
1F
100
AcDbEntity
  8
0
  6
Continuous
 62
     7
370
     0
100
AcDbBlockReference
  2
SW_CENTERMARKSYMBOL_1
 10
5.4321534979
 20
5.0527625811
 30
0.0
  0
LINE
  5
2D2
330
1F
100
AcDbEntity
  8
0
  6
Continuous
 62
     7
370
    25
100
AcDbLine
 10
9.3578765033
 20
7.0527625811
 30
0.0
 11
9.3578765033
 21
4.9777625811
 31
0.0
  0
LINE
  5
2D3
330
1F
100
AcDbEntity
  8
0
  6
Continuous
 62
     7
370
    25
100
AcDbLine
 10
9.4578765033
 20
7.0527625811
 30
0.0
 11
9.4578765033
 21
4.9777625811
 31
0.0
  0
LINE
  5
2D4
330
1F
100
AcDbEntity
  8
0
  6
Continuous
 62
     7
370
    25
100
AcDbLine
 10
9.3578765033
 20
4.9777625811
 30
0.0
 11
9.4578765033
 21
4.9777625811
 31
0.0
  0
LINE
  5
2D5
330
1F
100
AcDbEntity
  8
0
  6
Continuous
 62
     7
370
    25
100
AcDbLine
 10
9.3578765033
 20
7.0527625811
 30
0.0
 11
9.4578765033
 21
7.0527625811
 31
0.0
  0
DIMENSION
  5
2D6
330
1F
100
AcDbEntity
  8
0
  6
Continuous
 62
     7
370
    18
100
AcDbDimension
  2
_D_12
 10
9.0895856264
 20
4.9777625811
 30
0.0
 11
9.0895856264
 21
6.1822155751
 31
0.0
 70
   160
  1
<>
 71
     2
 42
-1.0
  3
SLDDIMSTYLE1
100
AcDbAlignedDimension
 13
9.3578765033
 23
7.0527625811
 33
0.0
 14
9.3578765033
 24
4.9777625811
 34
0.0
 50
90.0
100
AcDbRotatedDimension
  0
DIMENSION
  5
2E0
330
1F
100
AcDbEntity
  8
0
  6
Continuous
 62
     7
370
    18
100
AcDbDimension
  2
_D_13
 10
9.4578765033
 20
4.469197928
 30
0.0
 11
9.9970220016
 21
4.469197928
 31
0.0
 70
   160
  1
<>
 71
     2
 42
-1.0
  3
SLDDIMSTYLE2
100
AcDbAlignedDimension
 13
9.3578765033
 23
4.9777625811
 33
0.0
 14
9.4578765033
 24
4.9777625811
 34
0.0
100
AcDbRotatedDimension
  0
ENDSEC
  0
SECTION
  2
OBJECTS
  0
DICTIONARY
  5
C
330
0
100
AcDbDictionary
281
     1
  3
ACAD_GROUP
350
D
  3
ACAD_LAYOUT
350
1A
  3
ACAD_MLINESTYLE
350
17
  3
ACAD_PLOTSETTINGS
350
19
  3
ACAD_PLOTSTYLENAME
350
E
  3
ACAD_SCALELIST
350
47
  0
DICTIONARY
  5
D
102
{ACAD_REACTORS
330
C
102
}
330
C
100
AcDbDictionary
281
     1
  0
DICTIONARY
  5
1A
102
{ACAD_REACTORS
330
C
102
}
330
C
100
AcDbDictionary
281
     1
  3
Layout1
350
1E
  3
Layout2
350
26
  3
Model
350
22
  0
DICTIONARY
  5
17
102
{ACAD_REACTORS
330
C
102
}
330
C
100
AcDbDictionary
281
     1
  3
Standard
350
18
  0
DICTIONARY
  5
19
102
{ACAD_REACTORS
330
C
102
}
330
C
100
AcDbDictionary
281
     1
  0
ACDBDICTIONARYWDFLT
  5
E
102
{ACAD_REACTORS
330
C
102
}
330
C
100
AcDbDictionary
281
     1
  3
Normal
350
F
100
AcDbDictionaryWithDefault
340
F
  0
DICTIONARY
  5
47
102
{ACAD_REACTORS
330
C
102
}
330
C
100
AcDbDictionary
281
     1
  3
A0
350
48
  3
A1
350
49
  3
A2
350
4A
  3
A3
350
4B
  3
A4
350
4C
  3
A5
350
4D
  3
A6
350
4E
  3
A7
350
4F
  3
A8
350
50
  3
A9
350
51
  3
B0
350
52
  3
B1
350
53
  3
B2
350
54
  3
B3
350
55
  3
B4
350
56
  3
B5
350
57
  3
B6
350
58
  3
B7
350
59
  3
B8
350
5A
  3
B9
350
5B
  3
C0
350
5C
  3
C1
350
5D
  3
C2
350
5E
  3
C3
350
5F
  3
C4
350
60
  3
C5
350
61
  3
C6
350
62
  3
C7
350
63
  3
C8
350
64
  3
C9
350
65
  3
D0
350
66
  3
D1
350
67
  3
D2
350
68
  0
LAYOUT
  5
1E
102
{ACAD_REACTORS
330
1A
102
}
330
1A
100
AcDbPlotSettings
  1

  2
none_device
  4

  6

 40
0.0
 41
0.0
 42
0.0
 43
0.0
 44
0.0
 45
0.0
 46
0.0
 47
0.0
 48
0.0
 49
0.0
140
0.0
141
0.0
142
1.0
143
1.0
 70
   688
 72
     0
 73
     0
 74
     5
  7

 75
    16
147
1.0
148
0.0
149
0.0
100
AcDbLayout
  1
Layout1
 70
     1
 71
     1
 10
0.0
 20
0.0
 11
12.0
 21
9.0
 12
0.0
 22
0.0
 32
0.0
 14
1.0000000000E+20
 24
1.0000000000E+20
 34
1.0000000000E+20
 15
-1.0000000000E+20
 25
-1.0000000000E+20
 35
-1.0000000000E+20
146
0.0
 13
0.0
 23
0.0
 33
0.0
 16
1.0
 26
0.0
 36
0.0
 17
0.0
 27
1.0
 37
0.0
 76
     0
330
1B
  0
LAYOUT
  5
26
102
{ACAD_REACTORS
330
1A
102
}
330
1A
100
AcDbPlotSettings
  1

  2
none_device
  4

  6

 40
0.0
 41
0.0
 42
0.0
 43
0.0
 44
0.0
 45
0.0
 46
0.0
 47
0.0
 48
0.0
 49
0.0
140
0.0
141
0.0
142
1.0
143
1.0
 70
   688
 72
     0
 73
     0
 74
     5
  7

 75
    16
147
1.0
148
0.0
149
0.0
100
AcDbLayout
  1
Layout2
 70
     1
 71
     2
 10
0.0
 20
0.0
 11
0.0
 21
0.0
 12
0.0
 22
0.0
 32
0.0
 14
0.0
 24
0.0
 34
0.0
 15
0.0
 25
0.0
 35
0.0
146
0.0
 13
0.0
 23
0.0
 33
0.0
 16
1.0
 26
0.0
 36
0.0
 17
0.0
 27
1.0
 37
0.0
 76
     0
330
23
  0
LAYOUT
  5
22
102
{ACAD_REACTORS
330
1A
102
}
330
1A
100
AcDbPlotSettings
  1

  2
none_device
  4
Letter_(8.50_x_11.00_Inches)
  6

 40
6.35
 41
6.35
 42
6.35000508
 43
6.35000508
 44
215.9
 45
279.4
 46
0.0
 47
0.0
 48
0.0
 49
0.0
140
0.0
141
0.0
142
1.0
143
1.0
 70
  1712
 72
     0
 73
     0
 74
     0
  7

 75
     0
147
1.0
148
0.0
149
0.0
100
AcDbLayout
  1
Model
 70
     1
 71
     0
 10
0.0
 20
0.0
 11
11.0
 21
8.5
 12
0.0
 22
0.0
 32
0.0
 14
0.0
 24
0.0
 34
0.0
 15
11.0
 25
8.5
 35
0.0
146
0.0
 13
0.0
 23
0.0
 33
0.0
 16
1.0
 26
0.0
 36
0.0
 17
0.0
 27
1.0
 37
0.0
 76
     0
330
1F
331
29
  0
MLINESTYLE
  5
18
102
{ACAD_REACTORS
330
17
102
}
330
17
100
AcDbMlineStyle
  2
Standard
 70
     0
  3

 62
   256
 51
90.0
 52
90.0
 71
     2
 49
0.5
 62
   256
  6
BYLAYER
 49
-0.5
 62
   256
  6
BYLAYER
  0
ACDBPLACEHOLDER
  5
F
102
{ACAD_REACTORS
330
E
102
}
330
E
  0
SCALE
  5
48
102
{ACAD_REACTORS
330
47
102
}
330
47
100
AcDbScale
 70
     0
300
1:1
140
1.0
141
1.0
290
     1
  0
SCALE
  5
49
102
{ACAD_REACTORS
330
47
102
}
330
47
100
AcDbScale
 70
     0
300
1:2
140
1.0
141
2.0
290
     0
  0
SCALE
  5
4A
102
{ACAD_REACTORS
330
47
102
}
330
47
100
AcDbScale
 70
     0
300
1:4
140
1.0
141
4.0
290
     0
  0
SCALE
  5
4B
102
{ACAD_REACTORS
330
47
102
}
330
47
100
AcDbScale
 70
     0
300
1:5
140
1.0
141
5.0
290
     0
  0
SCALE
  5
4C
102
{ACAD_REACTORS
330
47
102
}
330
47
100
AcDbScale
 70
     0
300
1:8
140
1.0
141
8.0
290
     0
  0
SCALE
  5
4D
102
{ACAD_REACTORS
330
47
102
}
330
47
100
AcDbScale
 70
     0
300
1:10
140
1.0
141
10.0
290
     0
  0
SCALE
  5
4E
102
{ACAD_REACTORS
330
47
102
}
330
47
100
AcDbScale
 70
     0
300
1:16
140
1.0
141
16.0
290
     0
  0
SCALE
  5
4F
102
{ACAD_REACTORS
330
47
102
}
330
47
100
AcDbScale
 70
     0
300
1:20
140
1.0
141
20.0
290
     0
  0
SCALE
  5
50
102
{ACAD_REACTORS
330
47
102
}
330
47
100
AcDbScale
 70
     0
300
1:30
140
1.0
141
30.0
290
     0
  0
SCALE
  5
51
102
{ACAD_REACTORS
330
47
102
}
330
47
100
AcDbScale
 70
     0
300
1:40
140
1.0
141
40.0
290
     0
  0
SCALE
  5
52
102
{ACAD_REACTORS
330
47
102
}
330
47
100
AcDbScale
 70
     0
300
1:50
140
1.0
141
50.0
290
     0
  0
SCALE
  5
53
102
{ACAD_REACTORS
330
47
102
}
330
47
100
AcDbScale
 70
     0
300
1:100
140
1.0
141
100.0
290
     0
  0
SCALE
  5
54
102
{ACAD_REACTORS
330
47
102
}
330
47
100
AcDbScale
 70
     0
300
2:1
140
2.0
141
1.0
290
     0
  0
SCALE
  5
55
102
{ACAD_REACTORS
330
47
102
}
330
47
100
AcDbScale
 70
     0
300
4:1
140
4.0
141
1.0
290
     0
  0
SCALE
  5
56
102
{ACAD_REACTORS
330
47
102
}
330
47
100
AcDbScale
 70
     0
300
8:1
140
8.0
141
1.0
290
     0
  0
SCALE
  5
57
102
{ACAD_REACTORS
330
47
102
}
330
47
100
AcDbScale
 70
     0
300
10:1
140
10.0
141
1.0
290
     0
  0
SCALE
  5
58
102
{ACAD_REACTORS
330
47
102
}
330
47
100
AcDbScale
 70
     0
300
100:1
140
100.0
141
1.0
290
     0
  0
SCALE
  5
59
102
{ACAD_REACTORS
330
47
102
}
330
47
100
AcDbScale
 70
     0
300
1/128" = 1'-0"
140
0.0078125
141
12.0
290
     0
  0
SCALE
  5
5A
102
{ACAD_REACTORS
330
47
102
}
330
47
100
AcDbScale
 70
     0
300
1/64" = 1'-0"
140
0.015625
141
12.0
290
     0
  0
SCALE
  5
5B
102
{ACAD_REACTORS
330
47
102
}
330
47
100
AcDbScale
 70
     0
300
1/32" = 1'-0"
140
0.03125
141
12.0
290
     0
  0
SCALE
  5
5C
102
{ACAD_REACTORS
330
47
102
}
330
47
100
AcDbScale
 70
     0
300
1/16" = 1'-0"
140
0.0625
141
12.0
290
     0
  0
SCALE
  5
5D
102
{ACAD_REACTORS
330
47
102
}
330
47
100
AcDbScale
 70
     0
300
3/32" = 1'-0"
140
0.09375
141
12.0
290
     0
  0
SCALE
  5
5E
102
{ACAD_REACTORS
330
47
102
}
330
47
100
AcDbScale
 70
     0
300
1/8" = 1'-0"
140
0.125
141
12.0
290
     0
  0
SCALE
  5
5F
102
{ACAD_REACTORS
330
47
102
}
330
47
100
AcDbScale
 70
     0
300
3/16" = 1'-0"
140
0.1875
141
12.0
290
     0
  0
SCALE
  5
60
102
{ACAD_REACTORS
330
47
102
}
330
47
100
AcDbScale
 70
     0
300
1/4" = 1'-0"
140
0.25
141
12.0
290
     0
  0
SCALE
  5
61
102
{ACAD_REACTORS
330
47
102
}
330
47
100
AcDbScale
 70
     0
300
3/8" = 1'-0"
140
0.375
141
12.0
290
     0
  0
SCALE
  5
62
102
{ACAD_REACTORS
330
47
102
}
330
47
100
AcDbScale
 70
     0
300
1/2" = 1'-0"
140
0.5
141
12.0
290
     0
  0
SCALE
  5
63
102
{ACAD_REACTORS
330
47
102
}
330
47
100
AcDbScale
 70
     0
300
3/4" = 1'-0"
140
0.75
141
12.0
290
     0
  0
SCALE
  5
64
102
{ACAD_REACTORS
330
47
102
}
330
47
100
AcDbScale
 70
     0
300
1" = 1'-0"
140
1.0
141
12.0
290
     0
  0
SCALE
  5
65
102
{ACAD_REACTORS
330
47
102
}
330
47
100
AcDbScale
 70
     0
300
1-1/2" = 1'-0"
140
1.5
141
12.0
290
     0
  0
SCALE
  5
66
102
{ACAD_REACTORS
330
47
102
}
330
47
100
AcDbScale
 70
     0
300
3" = 1'-0"
140
3.0
141
12.0
290
     0
  0
SCALE
  5
67
102
{ACAD_REACTORS
330
47
102
}
330
47
100
AcDbScale
 70
     0
300
6" = 1'-0"
140
6.0
141
12.0
290
     0
  0
SCALE
  5
68
102
{ACAD_REACTORS
330
47
102
}
330
47
100
AcDbScale
 70
     0
300
1'-0" = 1'-0"
140
12.0
141
12.0
290
     0
  0
ENDSEC
  0
EOF
